G04 Layer: TopLayer*
G04 EasyEDA v6.4.25, 2022-01-12T17:36:27--7:00*
G04 12c81a346b754f11b05be9c808d69f64,c152627e17c142f38e8cee34c074023c,10*
G04 Gerber Generator version 0.2*
G04 Scale: 100 percent, Rotated: No, Reflected: No *
G04 Dimensions in millimeters *
G04 leading zeros omitted , absolute positions ,4 integer and 5 decimal *
%FSLAX45Y45*%
%MOMM*%

%ADD10C,0.2540*%
%ADD12R,3.0000X2.0000*%

%LPD*%
D10*
X4700000Y-3550000D02*
G01*
X4700000Y-3999999D01*
X3399998Y-3999999D01*
X4820000Y-3550000D02*
G01*
X4820000Y-4199999D01*
X4770000Y-4249999D01*
X3399998Y-4249999D01*
X4940000Y-3550000D02*
G01*
X4940000Y-4310001D01*
X4750003Y-4499998D01*
X3399998Y-4499998D01*
X5060000Y-3550000D02*
G01*
X5060000Y-4440001D01*
X4750003Y-4749998D01*
X3399998Y-4749998D01*
X5179999Y-3550000D02*
G01*
X5179999Y-4620000D01*
X4800000Y-5000000D01*
X3399998Y-5000000D01*
X5299999Y-3550000D02*
G01*
X5299999Y-4850000D01*
X4900000Y-5249999D01*
X3399998Y-5249999D01*
X5419999Y-3550000D02*
G01*
X5419999Y-5030000D01*
X4950000Y-5499999D01*
X3399998Y-5499999D01*
X5539999Y-3550000D02*
G01*
X5539999Y-5160002D01*
X4950002Y-5749998D01*
X3399998Y-5749998D01*
X5660003Y-3550000D02*
G01*
X5660003Y-3250001D01*
X2999999Y-3250001D01*
X2999999Y-6100000D01*
X3650000Y-6100000D01*
X5780001Y-3550000D02*
G01*
X5780001Y-3099998D01*
X2799999Y-3099998D01*
X2799999Y-6399999D01*
X3899999Y-6399999D01*
X3899999Y-6100000D01*
X5900000Y-3550000D02*
G01*
X5900000Y-2949999D01*
X2599999Y-2949999D01*
X2599999Y-6599999D01*
X4149999Y-6599999D01*
X4149999Y-6100000D01*
X4400041Y-6100063D02*
G01*
X4400041Y-6850126D01*
X2400045Y-6850126D01*
X2400045Y-2800095D01*
X5999988Y-2800095D01*
X6020054Y-2819907D01*
X6020054Y-3549904D01*
X6140000Y-3550000D02*
G01*
X6140000Y-4710000D01*
X5000000Y-5850001D01*
X4650000Y-5850001D01*
X4650000Y-6100000D01*
X4900000Y-6100000D02*
G01*
X4900000Y-6050000D01*
X5050000Y-5900000D01*
X5099999Y-5900000D01*
X6260002Y-4739998D01*
X6260002Y-3550000D01*
X6380002Y-3550000D02*
G01*
X6380002Y-4769998D01*
X5149999Y-6000000D01*
X5149999Y-6100000D01*
X5399999Y-6100000D02*
G01*
X5399999Y-5950000D01*
X6500002Y-4849997D01*
X6500002Y-3550000D01*
X6620002Y-3550000D02*
G01*
X6620002Y-4980000D01*
X5650001Y-5950000D01*
X5650001Y-6499999D01*
X6740001Y-3550000D02*
G01*
X6740001Y-5159999D01*
X5900000Y-6000000D01*
X5900000Y-6749999D01*
X5650001Y-6749999D01*
X6860001Y-3550000D02*
G01*
X6860001Y-5289999D01*
X6050000Y-6100000D01*
X6050000Y-7000001D01*
X5650001Y-6999998D01*
X5650001Y-7249998D02*
G01*
X6200000Y-7249998D01*
X6200000Y-6200000D01*
X6950001Y-5399999D01*
X6980001Y-5379999D01*
X6980001Y-3550000D01*
X5650001Y-7500000D02*
G01*
X6200000Y-7500000D01*
X6399999Y-7300000D01*
X6399999Y-6300000D01*
X7100001Y-5599998D01*
X7100001Y-3550000D01*
X7220000Y-3550000D02*
G01*
X7220000Y-5800001D01*
X7149998Y-5800001D01*
X6549999Y-6399999D01*
X6549999Y-7400000D01*
X6200000Y-7749999D01*
X5650001Y-7749999D01*
X7340091Y-3549904D02*
G01*
X7340091Y-5960110D01*
X6750050Y-6549897D01*
X6750050Y-7450073D01*
X6199886Y-7999984D01*
X5649975Y-7999984D01*
X5650001Y-8249998D02*
G01*
X6150002Y-8249998D01*
X6900001Y-7500000D01*
X6900001Y-6599999D01*
X7450000Y-6050000D01*
X7460000Y-5960000D01*
X7460000Y-3550000D01*
X11150000Y-3999999D02*
G01*
X10349999Y-3999999D01*
X10349999Y-3600000D01*
X10220002Y-3550000D02*
G01*
X10220002Y-4249999D01*
X11150000Y-4249999D01*
X10100002Y-3550000D02*
G01*
X10100002Y-4500001D01*
X11150000Y-4499998D01*
X9980002Y-3550000D02*
G01*
X9980002Y-4530003D01*
X10199997Y-4749998D01*
X11150000Y-4749998D01*
X11150091Y-4999989D02*
G01*
X10249915Y-4999989D01*
X9860025Y-4590034D01*
X9860025Y-3549904D01*
X9740003Y-3550000D02*
G01*
X9740003Y-4790003D01*
X10199999Y-5249999D01*
X11150000Y-5249999D01*
X9620003Y-3550000D02*
G01*
X9620003Y-4920002D01*
X10199999Y-5499999D01*
X11150000Y-5499999D01*
X11150000Y-5749998D02*
G01*
X10150000Y-5749998D01*
X9500001Y-5099999D01*
X9500003Y-3550000D01*
X9380001Y-3550000D02*
G01*
X9380001Y-3250001D01*
X11400000Y-3250001D01*
X11499999Y-3350000D01*
X11499999Y-6150000D01*
X10900001Y-6150000D01*
X10650001Y-6150000D02*
G01*
X10650001Y-6250000D01*
X10900001Y-6499999D01*
X11699999Y-6499999D01*
X11699999Y-3399998D01*
X11400000Y-3099998D01*
X9350001Y-3099998D01*
X9249999Y-3150001D01*
X9260001Y-3550000D01*
X9140002Y-3550000D02*
G01*
X9140002Y-2899999D01*
X11449999Y-2899999D01*
X11900001Y-3350000D01*
X11900001Y-6649999D01*
X10750001Y-6649999D01*
X10400002Y-6300000D01*
X10400002Y-6150000D01*
X10150093Y-6150102D02*
G01*
X10150093Y-6299962D01*
X10700004Y-6850126D01*
X12100052Y-6850126D01*
X12100052Y-3299968D01*
X11599925Y-2800095D01*
X9049999Y-2799999D01*
X9020047Y-3549904D01*
X8900002Y-3550000D02*
G01*
X8900002Y-4800003D01*
X9900000Y-5800001D01*
X9900000Y-6150000D01*
X9649968Y-6150102D02*
G01*
X9649968Y-5800089D01*
X8780018Y-4869942D01*
X8780018Y-3549904D01*
X8660002Y-3550000D02*
G01*
X8660002Y-5060002D01*
X9400001Y-5800001D01*
X9400001Y-6150000D01*
X9150002Y-6150000D02*
G01*
X9150002Y-5800001D01*
X8540003Y-5190002D01*
X8540003Y-3550000D01*
X8420000Y-3550000D02*
G01*
X8420000Y-5320002D01*
X8850000Y-5750001D01*
X8850000Y-6499999D01*
X8850000Y-6749999D02*
G01*
X8600000Y-6749999D01*
X8600000Y-5750001D01*
X8300001Y-5449999D01*
X8300001Y-3550000D01*
X8180001Y-3550000D02*
G01*
X8180001Y-5680001D01*
X8400000Y-5900000D01*
X8400000Y-6850001D01*
X8550000Y-7000001D01*
X8850000Y-6999998D01*
X8850000Y-7249998D02*
G01*
X8599998Y-7249998D01*
X8250001Y-6900001D01*
X8250001Y-6050000D01*
X8049999Y-5850001D01*
X8049999Y-3550000D01*
X7940001Y-3550000D02*
G01*
X7940001Y-5990003D01*
X8049999Y-6100000D01*
X8049999Y-6999998D01*
X8550000Y-7500000D01*
X8850000Y-7500000D01*
X8850122Y-7750047D02*
G01*
X8599931Y-7750047D01*
X7899908Y-7050023D01*
X7899908Y-6199886D01*
X7800086Y-6100063D01*
X7819897Y-3549904D01*
X7700002Y-3550000D02*
G01*
X7700002Y-7150000D01*
X8550000Y-7999999D01*
X8850000Y-7999999D01*
X7580002Y-3550000D02*
G01*
X7580002Y-7280003D01*
X8550000Y-8250001D01*
X8850000Y-8249998D01*
G36*
X4684999Y-3400000D02*
G01*
X4715002Y-3400000D01*
X4715002Y-3700000D01*
X4684999Y-3700000D01*
G37*
G36*
X4804999Y-3400000D02*
G01*
X4835001Y-3400000D01*
X4835001Y-3700000D01*
X4804999Y-3700000D01*
G37*
G36*
X4924999Y-3400000D02*
G01*
X4955001Y-3400000D01*
X4955001Y-3700000D01*
X4924999Y-3700000D01*
G37*
G36*
X5044998Y-3400000D02*
G01*
X5075001Y-3400000D01*
X5075001Y-3700000D01*
X5044998Y-3700000D01*
G37*
G36*
X5524997Y-3400000D02*
G01*
X5555000Y-3400000D01*
X5555000Y-3700000D01*
X5524997Y-3700000D01*
G37*
G36*
X5404998Y-3400000D02*
G01*
X5435000Y-3400000D01*
X5435000Y-3700000D01*
X5404998Y-3700000D01*
G37*
G36*
X5284998Y-3400000D02*
G01*
X5315000Y-3400000D01*
X5315000Y-3700000D01*
X5284998Y-3700000D01*
G37*
G36*
X5164998Y-3400000D02*
G01*
X5195001Y-3400000D01*
X5195001Y-3700000D01*
X5164998Y-3700000D01*
G37*
G36*
X6124999Y-3400000D02*
G01*
X6155001Y-3400000D01*
X6155001Y-3700000D01*
X6124999Y-3700000D01*
G37*
G36*
X6245001Y-3400000D02*
G01*
X6275003Y-3400000D01*
X6275003Y-3700000D01*
X6245001Y-3700000D01*
G37*
G36*
X6365001Y-3400000D02*
G01*
X6395003Y-3400000D01*
X6395003Y-3700000D01*
X6365001Y-3700000D01*
G37*
G36*
X6485000Y-3400000D02*
G01*
X6515003Y-3400000D01*
X6515003Y-3700000D01*
X6485000Y-3700000D01*
G37*
G36*
X6004999Y-3400000D02*
G01*
X6035001Y-3400000D01*
X6035001Y-3700000D01*
X6004999Y-3700000D01*
G37*
G36*
X5884999Y-3400000D02*
G01*
X5915002Y-3400000D01*
X5915002Y-3700000D01*
X5884999Y-3700000D01*
G37*
G36*
X5764999Y-3400000D02*
G01*
X5795002Y-3400000D01*
X5795002Y-3700000D01*
X5764999Y-3700000D01*
G37*
G36*
X5645002Y-3400000D02*
G01*
X5675005Y-3400000D01*
X5675005Y-3700000D01*
X5645002Y-3700000D01*
G37*
G36*
X7084999Y-3400000D02*
G01*
X7115002Y-3400000D01*
X7115002Y-3700000D01*
X7084999Y-3700000D01*
G37*
G36*
X7204999Y-3400000D02*
G01*
X7235002Y-3400000D01*
X7235002Y-3700000D01*
X7204999Y-3700000D01*
G37*
G36*
X7324999Y-3400000D02*
G01*
X7355001Y-3400000D01*
X7355001Y-3700000D01*
X7324999Y-3700000D01*
G37*
G36*
X7444999Y-3400000D02*
G01*
X7475001Y-3400000D01*
X7475001Y-3700000D01*
X7444999Y-3700000D01*
G37*
G36*
X6965000Y-3400000D02*
G01*
X6995002Y-3400000D01*
X6995002Y-3700000D01*
X6965000Y-3700000D01*
G37*
G36*
X6845000Y-3400000D02*
G01*
X6875002Y-3400000D01*
X6875002Y-3700000D01*
X6845000Y-3700000D01*
G37*
G36*
X6725000Y-3400000D02*
G01*
X6755002Y-3400000D01*
X6755002Y-3700000D01*
X6725000Y-3700000D01*
G37*
G36*
X6605000Y-3400000D02*
G01*
X6635003Y-3400000D01*
X6635003Y-3700000D01*
X6605000Y-3700000D01*
G37*
G36*
X8045000Y-3400000D02*
G01*
X8075002Y-3400000D01*
X8075002Y-3700000D01*
X8045000Y-3700000D01*
G37*
G36*
X8165000Y-3400000D02*
G01*
X8195002Y-3400000D01*
X8195002Y-3700000D01*
X8165000Y-3700000D01*
G37*
G36*
X8284999Y-3400000D02*
G01*
X8315002Y-3400000D01*
X8315002Y-3700000D01*
X8284999Y-3700000D01*
G37*
G36*
X8404999Y-3400000D02*
G01*
X8435002Y-3400000D01*
X8435002Y-3700000D01*
X8404999Y-3700000D01*
G37*
G36*
X7925000Y-3400000D02*
G01*
X7955003Y-3400000D01*
X7955003Y-3700000D01*
X7925000Y-3700000D01*
G37*
G36*
X7805000Y-3400000D02*
G01*
X7835003Y-3400000D01*
X7835003Y-3700000D01*
X7805000Y-3700000D01*
G37*
G36*
X7685001Y-3400000D02*
G01*
X7715003Y-3400000D01*
X7715003Y-3700000D01*
X7685001Y-3700000D01*
G37*
G36*
X7565001Y-3400000D02*
G01*
X7595003Y-3400000D01*
X7595003Y-3700000D01*
X7565001Y-3700000D01*
G37*
G36*
X9005001Y-3400000D02*
G01*
X9035003Y-3400000D01*
X9035003Y-3700000D01*
X9005001Y-3700000D01*
G37*
G36*
X9125000Y-3400000D02*
G01*
X9155003Y-3400000D01*
X9155003Y-3700000D01*
X9125000Y-3700000D01*
G37*
G36*
X9245000Y-3400000D02*
G01*
X9275003Y-3400000D01*
X9275003Y-3700000D01*
X9245000Y-3700000D01*
G37*
G36*
X9365000Y-3400000D02*
G01*
X9395002Y-3400000D01*
X9395002Y-3700000D01*
X9365000Y-3700000D01*
G37*
G36*
X8885001Y-3400000D02*
G01*
X8915003Y-3400000D01*
X8915003Y-3700000D01*
X8885001Y-3700000D01*
G37*
G36*
X8765001Y-3400000D02*
G01*
X8795004Y-3400000D01*
X8795004Y-3700000D01*
X8765001Y-3700000D01*
G37*
G36*
X8645001Y-3400000D02*
G01*
X8675004Y-3400000D01*
X8675004Y-3700000D01*
X8645001Y-3700000D01*
G37*
G36*
X8525002Y-3400000D02*
G01*
X8555004Y-3400000D01*
X8555004Y-3700000D01*
X8525002Y-3700000D01*
G37*
G36*
X9965001Y-3400000D02*
G01*
X9995004Y-3400000D01*
X9995004Y-3700000D01*
X9965001Y-3700000D01*
G37*
G36*
X10085001Y-3400000D02*
G01*
X10115003Y-3400000D01*
X10115003Y-3700000D01*
X10085001Y-3700000D01*
G37*
G36*
X10205001Y-3400000D02*
G01*
X10235003Y-3400000D01*
X10235003Y-3700000D01*
X10205001Y-3700000D01*
G37*
G36*
X10325000Y-3400000D02*
G01*
X10355003Y-3400000D01*
X10355003Y-3700000D01*
X10325000Y-3700000D01*
G37*
G36*
X9845001Y-3400000D02*
G01*
X9875004Y-3400000D01*
X9875004Y-3700000D01*
X9845001Y-3700000D01*
G37*
G36*
X9725002Y-3400000D02*
G01*
X9755004Y-3400000D01*
X9755004Y-3700000D01*
X9725002Y-3700000D01*
G37*
G36*
X9605002Y-3400000D02*
G01*
X9635004Y-3400000D01*
X9635004Y-3700000D01*
X9605002Y-3700000D01*
G37*
G36*
X9485002Y-3400000D02*
G01*
X9515005Y-3400000D01*
X9515005Y-3700000D01*
X9485002Y-3700000D01*
G37*
D12*
G01*
X11149990Y-3999992D03*
G01*
X11149990Y-4250004D03*
G01*
X11149990Y-4499990D03*
G01*
X11149990Y-4750003D03*
G01*
X11149990Y-4999989D03*
G01*
X11149990Y-5250002D03*
G01*
X11149990Y-5499988D03*
G01*
X11149990Y-5750001D03*
G36*
X10800001Y-6000000D02*
G01*
X11000000Y-6000000D01*
X11000000Y-6300000D01*
X10800001Y-6300000D01*
G37*
G36*
X10550001Y-6000000D02*
G01*
X10750001Y-6000000D01*
X10750001Y-6300000D01*
X10550001Y-6300000D01*
G37*
G36*
X10300002Y-6000000D02*
G01*
X10500001Y-6000000D01*
X10500001Y-6300000D01*
X10300002Y-6300000D01*
G37*
G36*
X10050002Y-6000000D02*
G01*
X10250002Y-6000000D01*
X10250002Y-6300000D01*
X10050002Y-6300000D01*
G37*
G36*
X9800000Y-6000000D02*
G01*
X10000000Y-6000000D01*
X10000000Y-6300000D01*
X9800000Y-6300000D01*
G37*
G36*
X9550001Y-6000000D02*
G01*
X9750000Y-6000000D01*
X9750000Y-6300000D01*
X9550001Y-6300000D01*
G37*
G36*
X9300001Y-6000000D02*
G01*
X9500001Y-6000000D01*
X9500001Y-6300000D01*
X9300001Y-6300000D01*
G37*
G36*
X9050002Y-6000000D02*
G01*
X9250001Y-6000000D01*
X9250001Y-6300000D01*
X9050002Y-6300000D01*
G37*
G01*
X8849995Y-6500012D03*
G01*
X8849995Y-6749999D03*
G01*
X8849995Y-7000011D03*
G01*
X8849995Y-7249998D03*
G01*
X8849995Y-7500010D03*
G01*
X8849995Y-7749997D03*
G01*
X8849995Y-8000009D03*
G01*
X8849995Y-8249996D03*
G01*
X5650001Y-8249996D03*
G01*
X5650001Y-8000009D03*
G01*
X5650001Y-7749997D03*
G01*
X5650001Y-7500010D03*
G01*
X5650001Y-7249998D03*
G01*
X5650001Y-7000011D03*
G01*
X5650001Y-6749999D03*
G01*
X5650001Y-6500012D03*
G36*
X5299999Y-5950000D02*
G01*
X5499999Y-5950000D01*
X5499999Y-6250000D01*
X5299999Y-6250000D01*
G37*
G36*
X5050000Y-5950000D02*
G01*
X5249999Y-5950000D01*
X5249999Y-6250000D01*
X5050000Y-6250000D01*
G37*
G36*
X4800000Y-5950000D02*
G01*
X5000000Y-5950000D01*
X5000000Y-6250000D01*
X4800000Y-6250000D01*
G37*
G36*
X4550001Y-5950000D02*
G01*
X4750000Y-5950000D01*
X4750000Y-6250000D01*
X4550001Y-6250000D01*
G37*
G36*
X4299999Y-5950000D02*
G01*
X4499998Y-5950000D01*
X4499998Y-6250000D01*
X4299999Y-6250000D01*
G37*
G36*
X4049999Y-5950000D02*
G01*
X4249999Y-5950000D01*
X4249999Y-6250000D01*
X4049999Y-6250000D01*
G37*
G36*
X3800000Y-5950000D02*
G01*
X3999999Y-5950000D01*
X3999999Y-6250000D01*
X3800000Y-6250000D01*
G37*
G36*
X3550000Y-5950000D02*
G01*
X3750000Y-5950000D01*
X3750000Y-6250000D01*
X3550000Y-6250000D01*
G37*
G01*
X3399993Y-5750001D03*
G01*
X3399993Y-5499988D03*
G01*
X3399993Y-5250002D03*
G01*
X3399993Y-4999989D03*
G01*
X3399993Y-4750003D03*
G01*
X3399993Y-4499990D03*
G01*
X3399993Y-4250004D03*
G01*
X3399993Y-3999992D03*
G36*
X8850000Y-10650001D02*
G01*
X9049999Y-10650001D01*
X9049999Y-10950000D01*
X8850000Y-10950000D01*
G37*
G36*
X5600001Y-10750001D02*
G01*
X5800001Y-10750001D01*
X5800001Y-11050000D01*
X5600001Y-11050000D01*
G37*
G36*
X11900001Y-9250001D02*
G01*
X12100001Y-9250001D01*
X12100001Y-9550001D01*
X11900001Y-9550001D01*
G37*
G36*
X2050000Y-9450001D02*
G01*
X2250000Y-9450001D01*
X2250000Y-9750000D01*
X2050000Y-9750000D01*
G37*
M02*
