G04 Layer: TopSilkLayer*
G04 EasyEDA v6.4.25, 2022-01-12T17:36:27--7:00*
G04 12c81a346b754f11b05be9c808d69f64,c152627e17c142f38e8cee34c074023c,10*
G04 Gerber Generator version 0.2*
G04 Scale: 100 percent, Rotated: No, Reflected: No *
G04 Dimensions in millimeters *
G04 leading zeros omitted , absolute positions ,4 integer and 5 decimal *
%FSLAX45Y45*%
%MOMM*%

%ADD10C,0.2540*%

%LPD*%
G36*
X7443571Y-3766565D02*
G01*
X7369657Y-3790187D01*
X7369657Y-3794760D01*
X7443571Y-3771137D01*
G37*
G36*
X7438999Y-3790950D02*
G01*
X7383119Y-3808984D01*
X7383119Y-3816096D01*
X7438999Y-3834129D01*
X7438999Y-3827526D01*
X7389723Y-3812794D01*
X7389723Y-3812540D01*
X7438999Y-3797808D01*
G37*
G36*
X7403693Y-3836924D02*
G01*
X7394651Y-3838397D01*
X7387945Y-3842410D01*
X7383780Y-3848455D01*
X7382357Y-3855974D01*
X7382662Y-3859682D01*
X7383627Y-3863136D01*
X7385253Y-3866438D01*
X7387437Y-3869436D01*
X7391501Y-3866642D01*
X7389875Y-3864559D01*
X7388606Y-3862120D01*
X7387742Y-3859428D01*
X7387437Y-3856482D01*
X7388606Y-3851097D01*
X7391908Y-3846880D01*
X7397038Y-3844188D01*
X7403693Y-3843274D01*
X7410450Y-3844290D01*
X7415631Y-3847134D01*
X7418984Y-3851401D01*
X7420203Y-3856736D01*
X7419898Y-3859225D01*
X7419136Y-3861409D01*
X7417917Y-3863441D01*
X7416393Y-3865372D01*
X7420457Y-3868674D01*
X7422388Y-3866235D01*
X7424013Y-3863390D01*
X7425131Y-3860190D01*
X7425537Y-3856482D01*
X7424013Y-3849014D01*
X7419746Y-3842765D01*
X7412888Y-3838498D01*
G37*
G36*
X7403693Y-3873754D02*
G01*
X7394651Y-3875227D01*
X7387945Y-3879240D01*
X7383780Y-3885285D01*
X7382357Y-3892804D01*
X7382662Y-3896512D01*
X7383627Y-3899966D01*
X7385253Y-3903167D01*
X7387437Y-3906012D01*
X7391501Y-3903472D01*
X7389875Y-3901236D01*
X7388606Y-3898849D01*
X7387742Y-3896207D01*
X7387437Y-3893312D01*
X7388606Y-3887927D01*
X7391908Y-3883710D01*
X7397038Y-3881018D01*
X7403693Y-3880104D01*
X7410450Y-3881120D01*
X7415631Y-3883964D01*
X7418984Y-3888232D01*
X7420203Y-3893565D01*
X7419898Y-3895953D01*
X7419136Y-3898137D01*
X7417917Y-3900220D01*
X7416393Y-3902201D01*
X7420457Y-3905250D01*
X7422388Y-3902913D01*
X7424013Y-3900220D01*
X7425131Y-3897020D01*
X7425537Y-3893312D01*
X7424013Y-3885844D01*
X7419746Y-3879596D01*
X7412888Y-3875328D01*
G37*
G36*
X7569809Y-3778300D02*
G01*
X7495895Y-3801668D01*
X7495895Y-3806240D01*
X7569809Y-3782872D01*
G37*
G36*
X7565237Y-3802684D02*
G01*
X7509357Y-3820464D01*
X7509357Y-3827830D01*
X7565237Y-3845610D01*
X7565237Y-3839260D01*
X7515961Y-3824528D01*
X7515961Y-3824020D01*
X7529626Y-3820109D01*
X7565237Y-3809288D01*
G37*
G36*
X7529931Y-3848404D02*
G01*
X7520787Y-3849878D01*
X7513980Y-3853992D01*
X7509814Y-3860088D01*
X7508341Y-3867708D01*
X7508697Y-3871417D01*
X7509764Y-3874871D01*
X7511440Y-3878072D01*
X7513675Y-3880916D01*
X7517739Y-3878122D01*
X7516164Y-3876040D01*
X7514844Y-3873652D01*
X7513980Y-3871010D01*
X7513675Y-3868216D01*
X7514844Y-3862832D01*
X7518095Y-3858666D01*
X7523225Y-3855974D01*
X7529931Y-3855008D01*
X7536688Y-3856024D01*
X7541920Y-3858768D01*
X7545273Y-3862933D01*
X7546441Y-3868216D01*
X7546187Y-3870706D01*
X7545374Y-3872941D01*
X7544206Y-3874922D01*
X7542631Y-3876852D01*
X7546695Y-3880154D01*
X7548524Y-3877868D01*
X7550048Y-3875176D01*
X7551115Y-3871976D01*
X7551521Y-3868216D01*
X7550099Y-3860647D01*
X7545882Y-3854297D01*
X7539075Y-3850030D01*
G37*
G36*
X7529931Y-3885234D02*
G01*
X7520787Y-3886708D01*
X7513980Y-3890822D01*
X7509814Y-3896918D01*
X7508341Y-3904538D01*
X7508697Y-3908094D01*
X7509764Y-3911549D01*
X7511440Y-3914749D01*
X7513675Y-3917746D01*
X7517739Y-3914952D01*
X7516164Y-3912870D01*
X7514844Y-3910482D01*
X7513980Y-3907840D01*
X7513675Y-3905046D01*
X7514844Y-3899662D01*
X7518095Y-3895496D01*
X7523225Y-3892804D01*
X7529931Y-3891838D01*
X7536688Y-3892854D01*
X7541920Y-3895598D01*
X7545273Y-3899763D01*
X7546441Y-3905046D01*
X7546187Y-3907536D01*
X7545374Y-3909771D01*
X7544206Y-3911752D01*
X7542631Y-3913682D01*
X7546695Y-3916984D01*
X7548524Y-3914597D01*
X7550048Y-3911854D01*
X7551115Y-3908653D01*
X7551521Y-3904792D01*
X7550099Y-3897376D01*
X7545882Y-3891127D01*
X7539075Y-3886860D01*
G37*
G36*
X4629658Y-3762654D02*
G01*
X4555744Y-3786022D01*
X4555744Y-3790594D01*
X4629658Y-3767226D01*
G37*
G36*
X4597400Y-3795928D02*
G01*
X4590948Y-3796385D01*
X4585258Y-3797757D01*
X4580280Y-3799941D01*
X4576165Y-3802938D01*
X4572812Y-3806545D01*
X4570425Y-3810812D01*
X4568952Y-3815587D01*
X4568444Y-3820820D01*
X4568901Y-3826052D01*
X4570171Y-3830726D01*
X4572203Y-3834688D01*
X4574794Y-3837838D01*
X4597908Y-3837838D01*
X4597908Y-3819804D01*
X4592828Y-3819804D01*
X4592828Y-3831996D01*
X4577588Y-3831996D01*
X4576064Y-3829964D01*
X4574946Y-3827424D01*
X4574235Y-3824478D01*
X4574032Y-3821328D01*
X4575657Y-3813352D01*
X4580382Y-3807409D01*
X4587748Y-3803751D01*
X4597400Y-3802532D01*
X4607102Y-3803853D01*
X4614367Y-3807612D01*
X4618939Y-3813556D01*
X4620514Y-3821328D01*
X4620107Y-3825341D01*
X4618990Y-3828694D01*
X4617262Y-3831437D01*
X4615180Y-3833774D01*
X4619498Y-3837330D01*
X4621885Y-3834485D01*
X4624019Y-3830929D01*
X4625543Y-3826560D01*
X4626102Y-3821328D01*
X4625594Y-3815994D01*
X4624120Y-3811117D01*
X4621682Y-3806799D01*
X4618380Y-3803091D01*
X4614265Y-3800043D01*
X4609388Y-3797808D01*
X4603699Y-3796385D01*
G37*
G36*
X4569460Y-3868318D02*
G01*
X4569460Y-3874414D01*
X4604258Y-3874312D01*
X4616958Y-3873652D01*
X4616958Y-3873906D01*
X4605528Y-3880002D01*
X4569460Y-3901084D01*
X4569460Y-3907434D01*
X4625086Y-3907434D01*
X4625086Y-3901592D01*
X4590694Y-3901643D01*
X4577588Y-3902354D01*
X4577588Y-3902100D01*
X4589018Y-3896004D01*
X4625086Y-3874922D01*
X4625086Y-3868318D01*
G37*
G36*
X4569460Y-3940200D02*
G01*
X4569460Y-3946296D01*
X4620006Y-3946296D01*
X4620006Y-3953154D01*
X4619599Y-3957929D01*
X4618482Y-3962095D01*
X4616653Y-3965600D01*
X4614164Y-3968445D01*
X4610963Y-3970629D01*
X4607153Y-3972204D01*
X4602683Y-3973118D01*
X4597654Y-3973474D01*
X4592472Y-3973118D01*
X4587900Y-3972204D01*
X4583938Y-3970629D01*
X4580636Y-3968445D01*
X4578045Y-3965600D01*
X4576114Y-3962095D01*
X4574946Y-3957929D01*
X4574540Y-3953154D01*
X4574540Y-3946296D01*
X4569460Y-3946296D01*
X4569460Y-3953916D01*
X4569917Y-3959910D01*
X4571390Y-3965143D01*
X4573727Y-3969562D01*
X4576978Y-3973220D01*
X4580991Y-3976115D01*
X4585817Y-3978148D01*
X4591405Y-3979367D01*
X4597654Y-3979824D01*
X4603851Y-3979367D01*
X4609338Y-3978148D01*
X4614011Y-3976115D01*
X4617923Y-3973220D01*
X4621022Y-3969562D01*
X4623257Y-3965143D01*
X4624628Y-3959910D01*
X4625086Y-3953916D01*
X4625086Y-3940200D01*
G37*
G36*
X10459872Y-3756863D02*
G01*
X10385958Y-3780231D01*
X10385958Y-3784803D01*
X10459872Y-3761435D01*
G37*
G36*
X10427360Y-3790137D02*
G01*
X10420959Y-3790594D01*
X10415219Y-3791965D01*
X10410291Y-3794201D01*
X10406126Y-3797147D01*
X10402824Y-3800805D01*
X10400385Y-3805021D01*
X10398912Y-3809796D01*
X10398404Y-3815029D01*
X10398912Y-3820312D01*
X10400233Y-3824935D01*
X10402265Y-3828897D01*
X10404754Y-3832047D01*
X10427868Y-3832047D01*
X10427868Y-3814013D01*
X10422788Y-3814013D01*
X10422788Y-3826205D01*
X10407548Y-3826205D01*
X10406024Y-3824173D01*
X10404906Y-3821633D01*
X10404246Y-3818686D01*
X10403992Y-3815537D01*
X10405668Y-3807561D01*
X10410342Y-3801668D01*
X10417708Y-3798011D01*
X10427360Y-3796741D01*
X10437114Y-3798062D01*
X10444480Y-3801821D01*
X10449102Y-3807764D01*
X10450728Y-3815537D01*
X10450271Y-3819550D01*
X10449102Y-3822903D01*
X10447426Y-3825697D01*
X10445394Y-3827983D01*
X10449458Y-3831285D01*
X10451896Y-3828592D01*
X10453979Y-3825138D01*
X10455503Y-3820769D01*
X10456062Y-3815537D01*
X10455554Y-3810203D01*
X10454081Y-3805326D01*
X10451693Y-3801008D01*
X10448391Y-3797300D01*
X10444276Y-3794302D01*
X10439349Y-3792016D01*
X10433710Y-3790594D01*
G37*
G36*
X10399420Y-3862527D02*
G01*
X10399420Y-3868623D01*
X10434218Y-3868521D01*
X10446918Y-3867861D01*
X10446918Y-3868115D01*
X10435488Y-3874211D01*
X10399420Y-3895293D01*
X10399420Y-3901643D01*
X10455300Y-3901643D01*
X10455300Y-3895801D01*
X10420654Y-3895851D01*
X10407548Y-3896563D01*
X10407548Y-3896055D01*
X10418978Y-3890213D01*
X10455300Y-3869131D01*
X10455300Y-3862527D01*
G37*
G36*
X10399420Y-3934155D02*
G01*
X10399420Y-3940505D01*
X10449966Y-3940505D01*
X10449966Y-3947363D01*
X10449610Y-3952189D01*
X10448493Y-3956304D01*
X10446664Y-3959809D01*
X10444124Y-3962654D01*
X10440924Y-3964838D01*
X10437114Y-3966413D01*
X10432643Y-3967378D01*
X10427614Y-3967683D01*
X10422534Y-3967378D01*
X10418013Y-3966413D01*
X10414050Y-3964838D01*
X10410748Y-3962654D01*
X10408056Y-3959809D01*
X10406126Y-3956304D01*
X10404906Y-3952189D01*
X10404500Y-3947363D01*
X10404500Y-3940505D01*
X10399420Y-3940505D01*
X10399420Y-3948125D01*
X10399928Y-3954119D01*
X10401350Y-3959351D01*
X10403738Y-3963771D01*
X10406938Y-3967429D01*
X10411002Y-3970324D01*
X10415828Y-3972356D01*
X10421366Y-3973626D01*
X10427614Y-3974033D01*
X10433812Y-3973626D01*
X10439349Y-3972356D01*
X10444073Y-3970324D01*
X10448036Y-3967429D01*
X10451185Y-3963720D01*
X10453420Y-3959250D01*
X10454843Y-3953967D01*
X10455300Y-3947871D01*
X10455300Y-3934155D01*
G37*
G36*
X3429660Y-3632606D02*
G01*
X3355746Y-3655974D01*
X3355746Y-3660546D01*
X3429660Y-3637178D01*
G37*
G36*
X3397402Y-3665880D02*
G01*
X3390950Y-3666388D01*
X3385261Y-3667760D01*
X3380282Y-3669944D01*
X3376168Y-3672941D01*
X3372815Y-3676548D01*
X3370427Y-3680815D01*
X3368954Y-3685590D01*
X3368446Y-3690772D01*
X3368903Y-3696055D01*
X3370173Y-3700729D01*
X3372154Y-3704691D01*
X3374796Y-3707790D01*
X3397910Y-3707790D01*
X3397910Y-3689756D01*
X3392830Y-3689756D01*
X3392830Y-3701948D01*
X3377590Y-3701948D01*
X3376066Y-3699967D01*
X3374948Y-3697376D01*
X3374237Y-3694480D01*
X3374034Y-3691280D01*
X3375660Y-3683304D01*
X3380384Y-3677412D01*
X3387750Y-3673754D01*
X3397402Y-3672484D01*
X3407105Y-3673856D01*
X3414369Y-3677615D01*
X3418941Y-3683558D01*
X3420516Y-3691280D01*
X3420110Y-3695344D01*
X3418992Y-3698646D01*
X3417265Y-3701440D01*
X3415182Y-3703726D01*
X3419500Y-3707282D01*
X3421887Y-3704488D01*
X3424021Y-3700932D01*
X3425494Y-3696563D01*
X3426104Y-3691280D01*
X3425596Y-3685997D01*
X3424123Y-3681120D01*
X3421684Y-3676802D01*
X3418382Y-3673094D01*
X3414268Y-3670046D01*
X3409391Y-3667810D01*
X3403701Y-3666388D01*
G37*
G36*
X3369462Y-3738270D02*
G01*
X3369462Y-3744366D01*
X3404260Y-3744315D01*
X3416960Y-3743604D01*
X3416960Y-3743858D01*
X3405530Y-3749954D01*
X3369462Y-3771036D01*
X3369462Y-3777386D01*
X3425088Y-3777386D01*
X3425088Y-3771544D01*
X3390696Y-3771646D01*
X3377590Y-3772306D01*
X3377590Y-3772052D01*
X3389020Y-3765956D01*
X3425088Y-3744874D01*
X3425088Y-3738270D01*
G37*
G36*
X3369462Y-3810152D02*
G01*
X3369462Y-3816248D01*
X3420008Y-3816248D01*
X3420008Y-3823106D01*
X3419601Y-3827932D01*
X3418484Y-3832098D01*
X3416655Y-3835603D01*
X3414166Y-3838448D01*
X3410965Y-3840632D01*
X3407156Y-3842207D01*
X3402685Y-3843121D01*
X3397656Y-3843426D01*
X3392474Y-3843121D01*
X3387902Y-3842207D01*
X3383940Y-3840632D01*
X3380638Y-3838448D01*
X3377996Y-3835603D01*
X3376117Y-3832098D01*
X3374948Y-3827932D01*
X3374542Y-3823106D01*
X3374542Y-3816248D01*
X3369462Y-3816248D01*
X3369462Y-3823868D01*
X3369919Y-3829913D01*
X3371392Y-3835095D01*
X3373729Y-3839565D01*
X3376980Y-3843223D01*
X3380994Y-3846068D01*
X3385820Y-3848150D01*
X3391408Y-3849370D01*
X3397656Y-3849776D01*
X3403854Y-3849370D01*
X3409340Y-3848150D01*
X3414014Y-3846068D01*
X3417925Y-3843223D01*
X3421024Y-3839565D01*
X3423259Y-3835095D01*
X3424631Y-3829913D01*
X3425088Y-3823868D01*
X3425088Y-3810152D01*
G37*
G36*
X11169650Y-3612642D02*
G01*
X11095736Y-3636010D01*
X11095736Y-3640582D01*
X11169650Y-3617214D01*
G37*
G36*
X11137392Y-3645915D02*
G01*
X11130940Y-3646373D01*
X11125250Y-3647744D01*
X11120323Y-3649979D01*
X11116157Y-3652926D01*
X11112855Y-3656584D01*
X11110417Y-3660800D01*
X11108944Y-3665575D01*
X11108436Y-3670808D01*
X11108893Y-3676040D01*
X11110163Y-3680714D01*
X11112195Y-3684676D01*
X11114786Y-3687826D01*
X11137900Y-3687826D01*
X11137900Y-3669792D01*
X11132820Y-3669792D01*
X11132820Y-3681984D01*
X11117580Y-3681984D01*
X11116056Y-3679951D01*
X11114938Y-3677412D01*
X11114278Y-3674465D01*
X11114024Y-3671315D01*
X11115649Y-3663340D01*
X11120374Y-3657447D01*
X11127740Y-3653790D01*
X11137392Y-3652520D01*
X11147094Y-3653840D01*
X11154359Y-3657600D01*
X11158931Y-3663543D01*
X11160506Y-3671315D01*
X11160099Y-3675329D01*
X11158982Y-3678682D01*
X11157305Y-3681425D01*
X11155172Y-3683762D01*
X11159490Y-3687318D01*
X11161928Y-3684473D01*
X11164011Y-3680917D01*
X11165535Y-3676548D01*
X11166094Y-3671315D01*
X11165586Y-3665982D01*
X11164112Y-3661105D01*
X11161674Y-3656787D01*
X11158423Y-3653078D01*
X11154257Y-3650081D01*
X11149380Y-3647795D01*
X11143742Y-3646373D01*
G37*
G36*
X11109452Y-3718306D02*
G01*
X11109452Y-3724401D01*
X11144250Y-3724300D01*
X11156950Y-3723640D01*
X11156950Y-3723894D01*
X11145520Y-3729990D01*
X11109452Y-3751072D01*
X11109452Y-3757422D01*
X11165078Y-3757422D01*
X11165078Y-3751579D01*
X11130686Y-3751630D01*
X11117580Y-3752342D01*
X11117580Y-3752087D01*
X11129010Y-3745992D01*
X11165078Y-3724910D01*
X11165078Y-3718306D01*
G37*
G36*
X11109452Y-3790187D02*
G01*
X11109452Y-3796284D01*
X11159998Y-3796284D01*
X11159998Y-3803142D01*
X11159591Y-3807968D01*
X11158524Y-3812082D01*
X11156696Y-3815587D01*
X11154156Y-3818432D01*
X11150955Y-3820617D01*
X11147145Y-3822192D01*
X11142675Y-3823157D01*
X11137646Y-3823462D01*
X11132515Y-3823157D01*
X11127943Y-3822192D01*
X11123980Y-3820617D01*
X11120678Y-3818432D01*
X11118037Y-3815587D01*
X11116106Y-3812082D01*
X11114938Y-3807968D01*
X11114532Y-3803142D01*
X11114532Y-3796284D01*
X11109452Y-3796284D01*
X11109452Y-3803904D01*
X11109960Y-3809898D01*
X11111382Y-3815130D01*
X11113770Y-3819550D01*
X11116970Y-3823208D01*
X11121034Y-3826103D01*
X11125860Y-3828135D01*
X11131397Y-3829405D01*
X11137646Y-3829812D01*
X11143843Y-3829405D01*
X11149330Y-3828135D01*
X11154003Y-3826103D01*
X11157915Y-3823208D01*
X11161014Y-3819550D01*
X11163249Y-3815130D01*
X11164620Y-3809898D01*
X11165078Y-3803904D01*
X11165078Y-3790187D01*
G37*
G36*
X8869832Y-8428329D02*
G01*
X8795918Y-8451697D01*
X8795918Y-8456269D01*
X8869832Y-8432901D01*
G37*
G36*
X8865260Y-8452713D02*
G01*
X8809380Y-8470493D01*
X8809380Y-8477859D01*
X8865260Y-8495639D01*
X8865260Y-8489289D01*
X8815984Y-8474557D01*
X8815984Y-8474049D01*
X8834526Y-8468715D01*
X8865260Y-8459317D01*
G37*
G36*
X8829954Y-8498433D02*
G01*
X8820759Y-8499906D01*
X8814003Y-8503970D01*
X8809786Y-8510117D01*
X8808364Y-8517737D01*
X8808720Y-8521446D01*
X8809786Y-8524900D01*
X8811463Y-8528100D01*
X8813698Y-8530945D01*
X8817762Y-8528151D01*
X8816136Y-8526068D01*
X8814866Y-8523681D01*
X8814003Y-8521039D01*
X8813698Y-8518245D01*
X8814816Y-8512860D01*
X8818118Y-8508695D01*
X8823198Y-8506002D01*
X8829954Y-8505037D01*
X8836710Y-8506002D01*
X8841892Y-8508746D01*
X8845245Y-8512962D01*
X8846464Y-8518245D01*
X8846159Y-8520734D01*
X8845397Y-8522919D01*
X8844178Y-8524951D01*
X8842654Y-8526881D01*
X8846718Y-8530183D01*
X8848547Y-8527897D01*
X8850071Y-8525154D01*
X8851138Y-8521954D01*
X8851544Y-8518245D01*
X8850071Y-8510625D01*
X8845854Y-8504326D01*
X8839098Y-8500008D01*
G37*
G36*
X8829954Y-8535263D02*
G01*
X8820759Y-8536736D01*
X8814003Y-8540800D01*
X8809786Y-8546947D01*
X8808364Y-8554567D01*
X8808720Y-8558123D01*
X8809786Y-8561527D01*
X8811463Y-8564778D01*
X8813698Y-8567775D01*
X8817762Y-8564981D01*
X8816136Y-8562898D01*
X8814866Y-8560511D01*
X8814003Y-8557869D01*
X8813698Y-8555075D01*
X8814816Y-8549690D01*
X8818118Y-8545525D01*
X8823198Y-8542832D01*
X8829954Y-8541867D01*
X8836710Y-8542832D01*
X8841892Y-8545576D01*
X8845245Y-8549792D01*
X8846464Y-8555075D01*
X8846159Y-8557564D01*
X8845397Y-8559749D01*
X8844178Y-8561781D01*
X8842654Y-8563711D01*
X8846718Y-8567013D01*
X8848547Y-8564575D01*
X8850071Y-8561832D01*
X8851138Y-8558631D01*
X8851544Y-8554821D01*
X8850071Y-8547354D01*
X8845854Y-8541105D01*
X8839098Y-8536838D01*
G37*
G36*
X5669838Y-8428329D02*
G01*
X5595924Y-8451697D01*
X5595924Y-8456269D01*
X5669838Y-8432901D01*
G37*
G36*
X5665266Y-8452713D02*
G01*
X5609386Y-8470493D01*
X5609386Y-8477859D01*
X5665266Y-8495639D01*
X5665266Y-8489289D01*
X5615990Y-8474557D01*
X5615990Y-8474049D01*
X5634532Y-8468715D01*
X5665266Y-8459317D01*
G37*
G36*
X5629960Y-8498433D02*
G01*
X5620766Y-8499906D01*
X5614009Y-8503970D01*
X5609793Y-8510117D01*
X5608370Y-8517737D01*
X5608726Y-8521446D01*
X5609793Y-8524900D01*
X5611469Y-8528100D01*
X5613704Y-8530945D01*
X5617768Y-8528151D01*
X5616143Y-8526068D01*
X5614873Y-8523681D01*
X5614009Y-8521039D01*
X5613704Y-8518245D01*
X5614822Y-8512860D01*
X5618073Y-8508695D01*
X5623204Y-8506002D01*
X5629960Y-8505037D01*
X5636717Y-8506002D01*
X5641898Y-8508746D01*
X5645251Y-8512962D01*
X5646470Y-8518245D01*
X5646166Y-8520734D01*
X5645404Y-8522919D01*
X5644184Y-8524951D01*
X5642660Y-8526881D01*
X5646724Y-8530183D01*
X5648502Y-8527897D01*
X5650077Y-8525154D01*
X5651144Y-8521954D01*
X5651550Y-8518245D01*
X5650077Y-8510625D01*
X5645861Y-8504326D01*
X5639104Y-8500008D01*
G37*
G36*
X5629960Y-8535263D02*
G01*
X5620766Y-8536736D01*
X5614009Y-8540800D01*
X5609793Y-8546947D01*
X5608370Y-8554567D01*
X5608726Y-8558123D01*
X5609793Y-8561527D01*
X5611469Y-8564778D01*
X5613704Y-8567775D01*
X5617768Y-8564981D01*
X5616143Y-8562898D01*
X5614873Y-8560511D01*
X5614009Y-8557869D01*
X5613704Y-8555075D01*
X5614822Y-8549690D01*
X5618073Y-8545525D01*
X5623204Y-8542832D01*
X5629960Y-8541867D01*
X5636717Y-8542832D01*
X5641898Y-8545576D01*
X5645251Y-8549792D01*
X5646470Y-8555075D01*
X5646166Y-8557564D01*
X5645404Y-8559749D01*
X5644184Y-8561781D01*
X5642660Y-8563711D01*
X5646724Y-8567013D01*
X5648502Y-8564575D01*
X5650077Y-8561832D01*
X5651144Y-8558631D01*
X5651550Y-8554821D01*
X5650077Y-8547354D01*
X5645861Y-8541105D01*
X5639104Y-8536838D01*
G37*
G36*
X11363706Y-3886200D02*
G01*
X11363706Y-3892550D01*
X11414506Y-3892550D01*
X11414506Y-3900678D01*
X11413947Y-3907383D01*
X11412067Y-3912209D01*
X11408613Y-3915156D01*
X11403330Y-3916172D01*
X11398097Y-3915257D01*
X11394440Y-3912463D01*
X11392306Y-3907688D01*
X11391646Y-3900932D01*
X11391646Y-3892550D01*
X11386312Y-3892550D01*
X11386312Y-3901948D01*
X11387378Y-3910380D01*
X11390528Y-3916781D01*
X11395862Y-3920845D01*
X11403330Y-3922268D01*
X11410899Y-3920794D01*
X11415928Y-3916629D01*
X11418722Y-3910177D01*
X11419586Y-3901694D01*
X11419586Y-3886200D01*
G37*
G36*
X11418062Y-3932174D02*
G01*
X11416334Y-3932478D01*
X11414963Y-3933393D01*
X11414048Y-3934764D01*
X11413744Y-3936492D01*
X11414048Y-3938117D01*
X11414963Y-3939489D01*
X11416334Y-3940454D01*
X11418062Y-3940810D01*
X11419789Y-3940454D01*
X11421160Y-3939489D01*
X11422075Y-3938117D01*
X11422380Y-3936492D01*
X11422075Y-3934764D01*
X11421160Y-3933393D01*
X11419789Y-3932478D01*
G37*
G36*
X11363706Y-3933444D02*
G01*
X11363706Y-3939540D01*
X11404854Y-3939540D01*
X11404854Y-3933444D01*
G37*
G36*
X11363706Y-3953764D02*
G01*
X11363706Y-3960114D01*
X11393932Y-3960114D01*
X11396776Y-3963060D01*
X11398859Y-3965854D01*
X11400129Y-3968699D01*
X11400536Y-3971798D01*
X11399875Y-3975404D01*
X11397792Y-3977944D01*
X11394236Y-3979418D01*
X11389106Y-3979926D01*
X11363706Y-3979926D01*
X11363706Y-3986022D01*
X11389868Y-3986022D01*
X11396929Y-3985310D01*
X11402009Y-3983024D01*
X11405108Y-3979164D01*
X11406124Y-3973576D01*
X11405565Y-3969613D01*
X11403990Y-3966006D01*
X11401755Y-3962704D01*
X11399012Y-3959606D01*
X11399012Y-3959351D01*
X11404854Y-3958844D01*
X11404854Y-3953764D01*
G37*
G36*
X11379454Y-4011168D02*
G01*
X11379454Y-4017772D01*
X11384280Y-4017772D01*
X11404346Y-4031234D01*
X11412220Y-4035551D01*
X11412220Y-4036060D01*
X11402314Y-4035551D01*
X11384280Y-4035551D01*
X11384280Y-4017772D01*
X11379454Y-4017772D01*
X11379454Y-4035551D01*
X11363706Y-4035551D01*
X11363706Y-4041394D01*
X11379454Y-4041394D01*
X11379454Y-4049014D01*
X11384280Y-4049014D01*
X11384280Y-4041394D01*
X11419586Y-4041394D01*
X11419586Y-4034790D01*
X11383264Y-4011168D01*
G37*
G36*
X11377676Y-4054856D02*
G01*
X11371681Y-4056227D01*
X11366957Y-4059936D01*
X11363807Y-4065574D01*
X11362690Y-4072636D01*
X11367516Y-4072636D01*
X11368328Y-4067860D01*
X11370564Y-4064101D01*
X11373967Y-4061612D01*
X11378184Y-4060698D01*
X11382197Y-4061307D01*
X11385702Y-4062933D01*
X11388699Y-4065422D01*
X11391138Y-4068572D01*
X11388648Y-4074363D01*
X11387455Y-4076446D01*
X11393932Y-4076446D01*
X11395964Y-4071620D01*
X11398453Y-4067505D01*
X11401806Y-4064609D01*
X11406378Y-4063492D01*
X11410188Y-4064152D01*
X11413185Y-4066082D01*
X11415115Y-4068978D01*
X11415776Y-4072636D01*
X11414912Y-4076852D01*
X11412677Y-4079951D01*
X11409324Y-4081881D01*
X11405362Y-4082542D01*
X11402212Y-4082186D01*
X11399266Y-4081018D01*
X11396522Y-4079138D01*
X11393932Y-4076446D01*
X11387455Y-4076446D01*
X11385854Y-4079240D01*
X11382197Y-4082592D01*
X11377168Y-4083812D01*
X11373307Y-4083050D01*
X11370259Y-4080814D01*
X11368227Y-4077258D01*
X11367516Y-4072636D01*
X11362690Y-4072636D01*
X11363807Y-4079595D01*
X11366906Y-4085082D01*
X11371478Y-4088637D01*
X11377168Y-4089908D01*
X11382248Y-4089095D01*
X11386210Y-4087012D01*
X11389258Y-4084015D01*
X11391646Y-4080510D01*
X11392154Y-4080510D01*
X11394490Y-4082948D01*
X11397640Y-4085336D01*
X11401399Y-4087164D01*
X11405616Y-4087876D01*
X11411559Y-4086860D01*
X11416233Y-4083913D01*
X11419281Y-4079189D01*
X11420348Y-4072890D01*
X11419332Y-4066844D01*
X11416487Y-4062018D01*
X11412118Y-4058818D01*
X11406378Y-4057650D01*
X11402263Y-4058259D01*
X11398758Y-4059936D01*
X11395811Y-4062374D01*
X11393424Y-4065270D01*
X11393170Y-4065270D01*
X11390630Y-4061510D01*
X11387226Y-4058158D01*
X11382908Y-4055770D01*
G37*
G36*
X3114548Y-3856482D02*
G01*
X3114548Y-3862832D01*
X3165348Y-3862832D01*
X3165348Y-3871214D01*
X3164789Y-3877868D01*
X3162909Y-3882644D01*
X3159455Y-3885488D01*
X3154172Y-3886454D01*
X3148787Y-3885539D01*
X3145078Y-3882745D01*
X3142945Y-3878072D01*
X3142234Y-3871468D01*
X3142234Y-3862832D01*
X3137154Y-3862832D01*
X3137154Y-3872229D01*
X3138220Y-3880713D01*
X3141370Y-3887165D01*
X3146704Y-3891330D01*
X3154172Y-3892804D01*
X3161741Y-3891330D01*
X3166770Y-3887165D01*
X3169564Y-3880612D01*
X3170428Y-3871976D01*
X3170428Y-3856482D01*
G37*
G36*
X3168904Y-3902456D02*
G01*
X3167176Y-3902760D01*
X3165805Y-3903675D01*
X3164890Y-3905046D01*
X3164586Y-3906774D01*
X3164890Y-3908501D01*
X3165805Y-3909872D01*
X3167176Y-3910787D01*
X3168904Y-3911092D01*
X3170631Y-3910787D01*
X3172002Y-3909872D01*
X3172917Y-3908501D01*
X3173222Y-3906774D01*
X3172917Y-3905046D01*
X3172002Y-3903675D01*
X3170631Y-3902760D01*
G37*
G36*
X3114548Y-3903726D02*
G01*
X3114548Y-3909822D01*
X3155696Y-3909822D01*
X3155696Y-3903726D01*
G37*
G36*
X3114548Y-3924300D02*
G01*
X3114548Y-3930396D01*
X3144774Y-3930396D01*
X3147618Y-3933444D01*
X3149701Y-3936237D01*
X3150971Y-3939032D01*
X3151378Y-3942079D01*
X3150717Y-3945839D01*
X3148634Y-3948328D01*
X3145078Y-3949750D01*
X3139948Y-3950208D01*
X3114548Y-3950208D01*
X3114548Y-3956558D01*
X3140710Y-3956558D01*
X3147720Y-3955796D01*
X3152698Y-3953459D01*
X3155696Y-3949496D01*
X3156712Y-3943858D01*
X3156153Y-3939895D01*
X3154680Y-3936339D01*
X3152444Y-3933088D01*
X3149600Y-3930142D01*
X3149600Y-3929887D01*
X3155696Y-3929379D01*
X3155696Y-3924300D01*
G37*
G36*
X3114548Y-3986784D02*
G01*
X3114548Y-4017010D01*
X3119882Y-4017010D01*
X3119882Y-4005579D01*
X3170428Y-4005579D01*
X3170428Y-4000754D01*
X3169208Y-3998518D01*
X3168142Y-3995928D01*
X3167278Y-3992981D01*
X3166618Y-3989578D01*
X3162554Y-3989578D01*
X3162554Y-3999484D01*
X3119882Y-3999484D01*
X3119882Y-3986784D01*
G37*
G36*
X11907062Y-9806482D02*
G01*
X11907062Y-9865918D01*
X11908332Y-9892080D01*
X11903252Y-9888118D01*
X11898274Y-9884613D01*
X11893245Y-9881565D01*
X11888165Y-9879025D01*
X11882831Y-9876993D01*
X11877294Y-9875520D01*
X11871299Y-9874605D01*
X11864898Y-9874300D01*
X11859768Y-9874554D01*
X11854688Y-9875215D01*
X11849709Y-9876332D01*
X11844832Y-9877907D01*
X11840108Y-9879888D01*
X11835536Y-9882276D01*
X11831116Y-9885070D01*
X11826900Y-9888220D01*
X11822938Y-9891826D01*
X11819178Y-9895738D01*
X11815724Y-9900056D01*
X11812473Y-9904730D01*
X11809577Y-9909708D01*
X11806986Y-9915042D01*
X11804751Y-9920732D01*
X11802872Y-9926675D01*
X11801398Y-9932974D01*
X11800281Y-9939578D01*
X11799620Y-9946436D01*
X11799366Y-9953548D01*
X11822988Y-9953548D01*
X11823242Y-9947046D01*
X11823903Y-9940848D01*
X11825020Y-9934905D01*
X11826494Y-9929266D01*
X11828373Y-9923932D01*
X11830608Y-9919004D01*
X11833199Y-9914432D01*
X11836095Y-9910216D01*
X11839346Y-9906457D01*
X11842800Y-9903104D01*
X11846560Y-9900208D01*
X11850522Y-9897821D01*
X11854738Y-9895890D01*
X11859158Y-9894519D01*
X11863730Y-9893655D01*
X11868454Y-9893350D01*
X11873331Y-9893604D01*
X11878157Y-9894316D01*
X11882882Y-9895535D01*
X11887606Y-9897262D01*
X11892330Y-9899599D01*
X11897106Y-9902494D01*
X11902033Y-9906000D01*
X11907062Y-9910114D01*
X11907062Y-9991902D01*
X11902033Y-9996932D01*
X11897106Y-10001250D01*
X11892127Y-10004907D01*
X11887149Y-10007904D01*
X11882120Y-10010241D01*
X11876989Y-10011918D01*
X11871807Y-10012934D01*
X11866422Y-10013238D01*
X11861393Y-10012984D01*
X11856618Y-10012222D01*
X11852148Y-10010902D01*
X11847982Y-10009124D01*
X11844070Y-10006888D01*
X11840514Y-10004145D01*
X11837263Y-10000945D01*
X11834317Y-9997287D01*
X11831726Y-9993223D01*
X11829440Y-9988753D01*
X11827510Y-9983825D01*
X11825884Y-9978542D01*
X11824614Y-9972852D01*
X11823750Y-9966756D01*
X11823192Y-9960356D01*
X11822988Y-9953548D01*
X11799366Y-9953548D01*
X11799570Y-9960965D01*
X11800078Y-9968077D01*
X11800992Y-9974783D01*
X11802211Y-9981184D01*
X11803735Y-9987229D01*
X11805615Y-9992918D01*
X11807799Y-9998252D01*
X11810288Y-10003180D01*
X11813133Y-10007803D01*
X11816181Y-10012019D01*
X11819585Y-10015829D01*
X11823242Y-10019284D01*
X11827154Y-10022382D01*
X11831370Y-10025024D01*
X11835790Y-10027310D01*
X11840514Y-10029190D01*
X11845442Y-10030663D01*
X11850624Y-10031730D01*
X11856008Y-10032339D01*
X11861596Y-10032542D01*
X11868353Y-10032136D01*
X11874906Y-10030866D01*
X11881205Y-10028834D01*
X11887250Y-10026192D01*
X11893042Y-10022992D01*
X11898477Y-10019284D01*
X11903608Y-10015169D01*
X11908332Y-10010698D01*
X11909094Y-10010698D01*
X11911126Y-10028986D01*
X11929668Y-10028986D01*
X11929668Y-9806482D01*
G37*
G36*
X12104928Y-9820706D02*
G01*
X12098223Y-9820960D01*
X12091771Y-9821722D01*
X12085624Y-9822992D01*
X12079732Y-9824720D01*
X12074194Y-9826853D01*
X12068962Y-9829444D01*
X12064136Y-9832441D01*
X12059716Y-9835794D01*
X12055703Y-9839553D01*
X12052147Y-9843617D01*
X12049048Y-9848037D01*
X12046458Y-9852761D01*
X12044426Y-9857790D01*
X12042902Y-9863023D01*
X12041987Y-9868560D01*
X12041682Y-9874300D01*
X12042140Y-9881412D01*
X12043460Y-9887915D01*
X12045543Y-9893808D01*
X12048286Y-9899142D01*
X12051588Y-9903968D01*
X12055398Y-9908336D01*
X12059564Y-9912197D01*
X12064085Y-9915702D01*
X12068810Y-9918801D01*
X12073636Y-9921544D01*
X12078512Y-9923983D01*
X12120168Y-9942525D01*
X12126772Y-9945776D01*
X12132665Y-9949281D01*
X12137796Y-9953193D01*
X12142012Y-9957714D01*
X12145162Y-9963048D01*
X12147194Y-9969398D01*
X12147854Y-9976916D01*
X12147499Y-9982047D01*
X12146483Y-9986873D01*
X12144756Y-9991344D01*
X12142419Y-9995458D01*
X12139422Y-9999167D01*
X12135866Y-10002469D01*
X12131700Y-10005364D01*
X12126976Y-10007752D01*
X12121743Y-10009682D01*
X12115952Y-10011105D01*
X12109653Y-10011968D01*
X12102896Y-10012222D01*
X12097461Y-10012019D01*
X12092127Y-10011410D01*
X12086844Y-10010394D01*
X12081662Y-10009022D01*
X12076582Y-10007295D01*
X12071654Y-10005161D01*
X12066879Y-10002774D01*
X12062256Y-10000030D01*
X12057837Y-9997033D01*
X12053570Y-9993731D01*
X12049556Y-9990124D01*
X12045746Y-9986314D01*
X12031776Y-10002062D01*
X12036298Y-10006634D01*
X12041124Y-10010851D01*
X12046204Y-10014762D01*
X12051538Y-10018318D01*
X12057126Y-10021519D01*
X12062917Y-10024364D01*
X12069013Y-10026802D01*
X12075312Y-10028834D01*
X12081814Y-10030460D01*
X12088571Y-10031628D01*
X12095530Y-10032339D01*
X12102642Y-10032542D01*
X12110364Y-10032288D01*
X12117730Y-10031425D01*
X12124690Y-10030002D01*
X12131192Y-10028123D01*
X12137288Y-10025735D01*
X12142978Y-10022890D01*
X12148159Y-10019639D01*
X12152884Y-10015982D01*
X12157100Y-10011918D01*
X12160808Y-10007549D01*
X12164009Y-10002824D01*
X12166650Y-9997846D01*
X12168733Y-9992563D01*
X12170257Y-9987026D01*
X12171172Y-9981336D01*
X12171476Y-9975392D01*
X12171121Y-9968128D01*
X12169952Y-9961473D01*
X12168124Y-9955428D01*
X12165685Y-9949942D01*
X12162637Y-9944963D01*
X12159030Y-9940442D01*
X12154966Y-9936327D01*
X12150445Y-9932619D01*
X12145568Y-9929215D01*
X12140336Y-9926116D01*
X12134799Y-9923221D01*
X12129058Y-9920528D01*
X12093346Y-9905441D01*
X12087402Y-9902596D01*
X12081662Y-9899345D01*
X12076430Y-9895535D01*
X12071959Y-9891115D01*
X12068403Y-9885934D01*
X12066117Y-9879787D01*
X12065304Y-9872522D01*
X12066016Y-9865664D01*
X12068149Y-9859518D01*
X12071553Y-9854184D01*
X12076176Y-9849662D01*
X12081916Y-9846106D01*
X12088672Y-9843465D01*
X12096394Y-9841839D01*
X12104928Y-9841280D01*
X12112040Y-9841636D01*
X12118797Y-9842652D01*
X12125147Y-9844328D01*
X12131141Y-9846614D01*
X12136831Y-9849408D01*
X12142216Y-9852761D01*
X12147296Y-9856571D01*
X12152172Y-9860838D01*
X12164364Y-9846106D01*
X12160758Y-9842449D01*
X12156846Y-9839045D01*
X12152680Y-9835845D01*
X12148210Y-9832898D01*
X12143587Y-9830206D01*
X12138660Y-9827818D01*
X12133529Y-9825736D01*
X12128195Y-9823958D01*
X12122658Y-9822586D01*
X12116917Y-9821570D01*
X12111024Y-9820910D01*
G37*
G36*
X11094008Y-9820706D02*
G01*
X11088319Y-9820859D01*
X11082731Y-9821316D01*
X11077244Y-9822078D01*
X11071910Y-9823145D01*
X11066729Y-9824516D01*
X11061700Y-9826142D01*
X11056823Y-9828072D01*
X11052098Y-9830257D01*
X11047526Y-9832746D01*
X11043158Y-9835489D01*
X11038941Y-9838486D01*
X11034928Y-9841788D01*
X11031118Y-9845294D01*
X11027460Y-9849104D01*
X11024057Y-9853168D01*
X11020856Y-9857435D01*
X11017859Y-9861956D01*
X11015116Y-9866731D01*
X11012576Y-9871760D01*
X11010290Y-9876993D01*
X11008207Y-9882428D01*
X11006429Y-9888118D01*
X11004905Y-9894011D01*
X11003635Y-9900158D01*
X11002619Y-9906457D01*
X11001908Y-9913010D01*
X11001451Y-9919716D01*
X11001298Y-9926624D01*
X11001451Y-9933635D01*
X11001857Y-9940442D01*
X11002568Y-9946995D01*
X11003534Y-9953396D01*
X11004804Y-9959543D01*
X11006277Y-9965436D01*
X11008004Y-9971176D01*
X11009985Y-9976612D01*
X11012220Y-9981844D01*
X11014710Y-9986873D01*
X11017402Y-9991648D01*
X11020298Y-9996170D01*
X11023447Y-10000437D01*
X11026800Y-10004450D01*
X11030305Y-10008209D01*
X11034064Y-10011765D01*
X11037976Y-10015016D01*
X11042091Y-10017963D01*
X11046409Y-10020706D01*
X11050879Y-10023144D01*
X11055553Y-10025329D01*
X11060328Y-10027208D01*
X11065306Y-10028834D01*
X11070386Y-10030155D01*
X11075670Y-10031222D01*
X11081054Y-10031933D01*
X11086592Y-10032390D01*
X11092230Y-10032542D01*
X11098987Y-10032339D01*
X11105489Y-10031780D01*
X11111738Y-10030815D01*
X11117783Y-10029545D01*
X11123472Y-10027920D01*
X11128959Y-10025989D01*
X11134090Y-10023805D01*
X11138966Y-10021366D01*
X11143488Y-10018623D01*
X11147653Y-10015677D01*
X11151514Y-10012527D01*
X11154968Y-10009174D01*
X11154968Y-9924338D01*
X11088928Y-9924338D01*
X11088928Y-9943388D01*
X11133378Y-9943388D01*
X11133378Y-9999268D01*
X11129975Y-10002164D01*
X11125962Y-10004755D01*
X11121491Y-10006939D01*
X11116614Y-10008819D01*
X11111433Y-10010292D01*
X11105946Y-10011359D01*
X11100308Y-10012019D01*
X11094516Y-10012222D01*
X11088014Y-10011968D01*
X11081766Y-10011257D01*
X11075873Y-10010038D01*
X11070234Y-10008362D01*
X11064900Y-10006228D01*
X11059871Y-10003637D01*
X11055197Y-10000589D01*
X11050828Y-9997135D01*
X11046764Y-9993274D01*
X11043056Y-9989007D01*
X11039652Y-9984333D01*
X11036604Y-9979253D01*
X11033912Y-9973818D01*
X11031575Y-9968026D01*
X11029543Y-9961880D01*
X11027918Y-9955377D01*
X11026597Y-9948519D01*
X11025682Y-9941356D01*
X11025124Y-9933889D01*
X11024920Y-9926116D01*
X11025124Y-9918395D01*
X11025733Y-9910978D01*
X11026749Y-9903866D01*
X11028121Y-9897110D01*
X11029848Y-9890709D01*
X11031931Y-9884613D01*
X11034420Y-9878923D01*
X11037214Y-9873538D01*
X11040364Y-9868560D01*
X11043818Y-9863988D01*
X11047628Y-9859822D01*
X11051692Y-9856012D01*
X11056112Y-9852660D01*
X11060785Y-9849662D01*
X11065764Y-9847173D01*
X11070996Y-9845090D01*
X11076533Y-9843414D01*
X11082274Y-9842246D01*
X11088268Y-9841534D01*
X11094516Y-9841280D01*
X11102187Y-9841687D01*
X11109147Y-9842804D01*
X11115446Y-9844582D01*
X11121186Y-9846970D01*
X11126419Y-9849866D01*
X11131194Y-9853168D01*
X11135512Y-9856876D01*
X11139474Y-9860838D01*
X11152428Y-9845598D01*
X11146028Y-9839604D01*
X11138357Y-9833864D01*
X11134039Y-9831171D01*
X11129416Y-9828682D01*
X11124438Y-9826447D01*
X11119104Y-9824516D01*
X11113414Y-9822942D01*
X11107318Y-9821722D01*
X11100866Y-9820960D01*
G37*
G36*
X12840004Y-9874300D02*
G01*
X12834874Y-9874554D01*
X12829743Y-9875215D01*
X12824714Y-9876332D01*
X12819735Y-9877856D01*
X12814909Y-9879838D01*
X12810236Y-9882225D01*
X12805714Y-9884968D01*
X12801396Y-9888169D01*
X12797282Y-9891725D01*
X12793421Y-9895636D01*
X12789814Y-9899954D01*
X12786461Y-9904577D01*
X12783413Y-9909606D01*
X12780721Y-9914940D01*
X12778384Y-9920579D01*
X12776403Y-9926574D01*
X12774828Y-9932873D01*
X12773660Y-9939477D01*
X12773414Y-9941864D01*
X12795046Y-9941864D01*
X12796164Y-9934397D01*
X12797891Y-9927488D01*
X12800279Y-9921087D01*
X12803174Y-9915347D01*
X12806578Y-9910165D01*
X12810439Y-9905644D01*
X12814706Y-9901732D01*
X12819278Y-9898481D01*
X12824206Y-9895941D01*
X12829387Y-9894112D01*
X12834721Y-9892995D01*
X12840258Y-9892588D01*
X12846202Y-9892944D01*
X12851739Y-9894011D01*
X12856768Y-9895789D01*
X12861340Y-9898227D01*
X12865455Y-9901326D01*
X12869062Y-9905136D01*
X12872161Y-9909606D01*
X12874701Y-9914788D01*
X12876733Y-9920579D01*
X12878206Y-9927031D01*
X12879070Y-9934143D01*
X12879374Y-9941864D01*
X12773414Y-9941864D01*
X12772948Y-9946386D01*
X12772694Y-9953548D01*
X12772948Y-9960864D01*
X12773660Y-9967874D01*
X12774777Y-9974529D01*
X12776352Y-9980879D01*
X12778282Y-9986924D01*
X12780619Y-9992563D01*
X12783362Y-9997897D01*
X12786410Y-10002875D01*
X12789865Y-10007498D01*
X12793573Y-10011714D01*
X12797586Y-10015575D01*
X12801904Y-10019080D01*
X12806476Y-10022179D01*
X12811302Y-10024922D01*
X12816332Y-10027208D01*
X12821564Y-10029139D01*
X12827000Y-10030612D01*
X12832638Y-10031679D01*
X12838430Y-10032339D01*
X12844322Y-10032542D01*
X12851892Y-10032238D01*
X12859004Y-10031374D01*
X12865658Y-10029952D01*
X12871907Y-10028072D01*
X12877800Y-10025837D01*
X12883388Y-10023246D01*
X12888620Y-10020401D01*
X12893598Y-10017302D01*
X12885216Y-10002062D01*
X12881000Y-10004806D01*
X12876631Y-10007244D01*
X12872161Y-10009378D01*
X12867487Y-10011156D01*
X12862712Y-10012578D01*
X12857734Y-10013645D01*
X12852552Y-10014305D01*
X12847116Y-10014508D01*
X12841579Y-10014254D01*
X12836296Y-10013492D01*
X12831267Y-10012222D01*
X12826492Y-10010495D01*
X12822021Y-10008311D01*
X12817856Y-10005669D01*
X12813995Y-10002621D01*
X12810439Y-9999167D01*
X12807238Y-9995306D01*
X12804394Y-9991039D01*
X12801904Y-9986467D01*
X12799822Y-9981539D01*
X12798094Y-9976256D01*
X12796723Y-9970668D01*
X12795808Y-9964775D01*
X12795300Y-9958628D01*
X12898424Y-9958628D01*
X12898932Y-9955733D01*
X12899390Y-9948722D01*
X12899288Y-9938512D01*
X12898831Y-9932314D01*
X12898018Y-9926421D01*
X12896900Y-9920782D01*
X12895478Y-9915448D01*
X12893751Y-9910419D01*
X12891770Y-9905644D01*
X12889433Y-9901174D01*
X12886842Y-9897059D01*
X12883946Y-9893249D01*
X12880746Y-9889744D01*
X12877292Y-9886594D01*
X12873532Y-9883749D01*
X12869570Y-9881311D01*
X12865252Y-9879228D01*
X12860731Y-9877450D01*
X12855956Y-9876078D01*
X12850876Y-9875113D01*
X12845592Y-9874504D01*
G37*
G36*
X12709448Y-9874300D02*
G01*
X12703759Y-9874554D01*
X12698222Y-9875164D01*
X12692735Y-9876231D01*
X12687401Y-9877704D01*
X12682220Y-9879634D01*
X12677190Y-9881920D01*
X12672364Y-9884613D01*
X12667792Y-9887712D01*
X12663424Y-9891217D01*
X12659360Y-9895078D01*
X12655550Y-9899345D01*
X12652095Y-9903917D01*
X12648895Y-9908946D01*
X12646101Y-9914280D01*
X12643662Y-9919970D01*
X12641630Y-9926015D01*
X12640005Y-9932416D01*
X12638786Y-9939121D01*
X12638074Y-9946182D01*
X12637820Y-9953548D01*
X12638074Y-9960914D01*
X12638735Y-9967925D01*
X12639802Y-9974630D01*
X12641326Y-9980980D01*
X12643205Y-9987026D01*
X12645491Y-9992715D01*
X12648133Y-9997998D01*
X12651079Y-10002977D01*
X12654381Y-10007600D01*
X12658039Y-10011816D01*
X12661950Y-10015677D01*
X12666167Y-10019182D01*
X12670586Y-10022230D01*
X12675311Y-10024973D01*
X12680289Y-10027259D01*
X12685420Y-10029139D01*
X12690805Y-10030612D01*
X12696342Y-10031679D01*
X12702082Y-10032339D01*
X12707924Y-10032542D01*
X12714732Y-10032238D01*
X12721336Y-10031272D01*
X12727787Y-10029647D01*
X12733985Y-10027462D01*
X12740030Y-10024719D01*
X12745770Y-10021417D01*
X12751257Y-10017556D01*
X12756438Y-10013238D01*
X12746532Y-9998252D01*
X12742773Y-10001351D01*
X12738760Y-10004196D01*
X12734493Y-10006787D01*
X12729921Y-10009022D01*
X12725196Y-10010902D01*
X12720218Y-10012324D01*
X12715036Y-10013188D01*
X12709702Y-10013492D01*
X12704419Y-10013238D01*
X12699339Y-10012426D01*
X12694462Y-10011054D01*
X12689941Y-10009225D01*
X12685623Y-10006888D01*
X12681661Y-10004044D01*
X12677952Y-10000792D01*
X12674600Y-9997084D01*
X12671602Y-9992918D01*
X12668910Y-9988397D01*
X12666624Y-9983470D01*
X12664694Y-9978136D01*
X12663220Y-9972497D01*
X12662103Y-9966502D01*
X12661442Y-9960203D01*
X12661188Y-9953548D01*
X12661442Y-9946995D01*
X12662154Y-9940696D01*
X12663322Y-9934702D01*
X12664948Y-9929063D01*
X12666929Y-9923729D01*
X12669367Y-9918750D01*
X12672161Y-9914178D01*
X12675260Y-9910013D01*
X12678714Y-9906304D01*
X12682474Y-9902952D01*
X12686538Y-9900107D01*
X12690906Y-9897719D01*
X12695478Y-9895840D01*
X12700254Y-9894468D01*
X12705283Y-9893655D01*
X12710464Y-9893350D01*
X12719354Y-9894417D01*
X12727432Y-9897262D01*
X12734848Y-9901631D01*
X12741706Y-9907066D01*
X12753644Y-9892334D01*
X12749530Y-9888778D01*
X12745059Y-9885476D01*
X12740233Y-9882378D01*
X12735001Y-9879685D01*
X12729362Y-9877450D01*
X12723215Y-9875774D01*
X12716611Y-9874707D01*
G37*
G36*
X12610896Y-9874300D02*
G01*
X12604597Y-9874910D01*
X12598501Y-9876536D01*
X12592608Y-9879279D01*
X12587020Y-9882936D01*
X12581737Y-9887458D01*
X12576810Y-9892842D01*
X12572288Y-9898989D01*
X12568224Y-9905796D01*
X12567208Y-9905796D01*
X12565176Y-9878110D01*
X12546634Y-9878110D01*
X12546634Y-10028986D01*
X12569240Y-10028986D01*
X12569240Y-9930688D01*
X12573406Y-9921595D01*
X12577876Y-9913975D01*
X12582702Y-9907778D01*
X12587732Y-9902901D01*
X12592862Y-9899243D01*
X12598044Y-9896754D01*
X12603175Y-9895332D01*
X12608102Y-9894874D01*
X12612065Y-9895027D01*
X12615519Y-9895484D01*
X12622326Y-9897414D01*
X12626898Y-9877602D01*
X12623139Y-9876028D01*
X12619380Y-9875012D01*
X12615367Y-9874453D01*
G37*
G36*
X12267742Y-9874300D02*
G01*
X12262256Y-9874554D01*
X12256871Y-9875164D01*
X12251588Y-9876231D01*
X12246406Y-9877704D01*
X12241377Y-9879634D01*
X12236551Y-9881920D01*
X12231878Y-9884613D01*
X12227458Y-9887712D01*
X12223242Y-9891217D01*
X12219279Y-9895078D01*
X12215571Y-9899345D01*
X12212218Y-9903917D01*
X12209170Y-9908946D01*
X12206427Y-9914280D01*
X12204090Y-9919970D01*
X12202109Y-9926015D01*
X12200534Y-9932416D01*
X12199366Y-9939121D01*
X12198654Y-9946182D01*
X12198400Y-9953548D01*
X12222022Y-9953548D01*
X12222276Y-9946995D01*
X12222886Y-9940696D01*
X12223953Y-9934702D01*
X12225375Y-9929063D01*
X12227204Y-9923729D01*
X12229388Y-9918750D01*
X12231928Y-9914178D01*
X12234773Y-9910013D01*
X12237974Y-9906304D01*
X12241479Y-9902952D01*
X12245238Y-9900107D01*
X12249251Y-9897719D01*
X12253518Y-9895840D01*
X12258040Y-9894468D01*
X12262815Y-9893655D01*
X12267742Y-9893350D01*
X12272772Y-9893655D01*
X12277547Y-9894468D01*
X12282119Y-9895840D01*
X12286437Y-9897719D01*
X12290501Y-9900107D01*
X12294311Y-9902952D01*
X12297867Y-9906304D01*
X12301067Y-9910013D01*
X12303963Y-9914178D01*
X12306503Y-9918750D01*
X12308738Y-9923729D01*
X12310567Y-9929063D01*
X12312040Y-9934702D01*
X12313107Y-9940696D01*
X12313767Y-9946995D01*
X12313970Y-9953548D01*
X12313767Y-9960203D01*
X12313107Y-9966502D01*
X12312040Y-9972497D01*
X12310567Y-9978136D01*
X12308738Y-9983470D01*
X12306503Y-9988397D01*
X12303963Y-9992918D01*
X12301067Y-9997084D01*
X12297867Y-10000792D01*
X12294311Y-10004044D01*
X12290501Y-10006888D01*
X12286437Y-10009225D01*
X12282119Y-10011054D01*
X12277547Y-10012426D01*
X12272772Y-10013238D01*
X12267742Y-10013492D01*
X12262815Y-10013238D01*
X12258040Y-10012426D01*
X12253518Y-10011054D01*
X12249251Y-10009225D01*
X12245238Y-10006888D01*
X12241479Y-10004044D01*
X12237974Y-10000792D01*
X12234824Y-9997084D01*
X12231928Y-9992918D01*
X12229388Y-9988397D01*
X12227204Y-9983470D01*
X12225375Y-9978136D01*
X12223953Y-9972497D01*
X12222886Y-9966502D01*
X12222276Y-9960203D01*
X12222022Y-9953548D01*
X12198400Y-9953548D01*
X12198654Y-9960914D01*
X12199366Y-9967925D01*
X12200534Y-9974630D01*
X12202109Y-9980980D01*
X12204090Y-9987026D01*
X12206427Y-9992715D01*
X12209170Y-9997998D01*
X12212218Y-10002977D01*
X12215571Y-10007600D01*
X12219279Y-10011816D01*
X12223242Y-10015677D01*
X12227458Y-10019182D01*
X12231878Y-10022230D01*
X12236551Y-10024973D01*
X12241377Y-10027259D01*
X12246406Y-10029139D01*
X12251588Y-10030612D01*
X12256871Y-10031679D01*
X12262256Y-10032339D01*
X12267742Y-10032542D01*
X12273229Y-10032339D01*
X12278664Y-10031679D01*
X12283948Y-10030612D01*
X12289129Y-10029139D01*
X12294158Y-10027259D01*
X12299035Y-10024973D01*
X12303709Y-10022230D01*
X12308179Y-10019182D01*
X12312396Y-10015677D01*
X12316358Y-10011816D01*
X12320066Y-10007600D01*
X12323470Y-10002977D01*
X12326518Y-9997998D01*
X12329261Y-9992715D01*
X12331649Y-9987026D01*
X12333630Y-9980980D01*
X12335256Y-9974630D01*
X12336373Y-9967925D01*
X12337084Y-9960914D01*
X12337338Y-9953548D01*
X12337084Y-9946182D01*
X12336373Y-9939121D01*
X12335256Y-9932416D01*
X12333630Y-9926015D01*
X12331649Y-9919970D01*
X12329261Y-9914280D01*
X12326518Y-9908946D01*
X12323470Y-9903917D01*
X12320066Y-9899345D01*
X12316358Y-9895078D01*
X12312396Y-9891217D01*
X12308179Y-9887712D01*
X12303709Y-9884613D01*
X12299035Y-9881920D01*
X12294158Y-9879634D01*
X12289129Y-9877704D01*
X12283948Y-9876231D01*
X12278664Y-9875164D01*
X12273229Y-9874554D01*
G37*
G36*
X11714022Y-9874300D02*
G01*
X11706555Y-9874859D01*
X11699443Y-9876383D01*
X11692737Y-9878771D01*
X11686336Y-9881920D01*
X11680240Y-9885781D01*
X11674398Y-9890150D01*
X11668709Y-9895027D01*
X11663222Y-9900208D01*
X11662460Y-9900208D01*
X11660174Y-9878110D01*
X11641632Y-9878110D01*
X11641632Y-10028986D01*
X11664238Y-10028986D01*
X11664238Y-9918750D01*
X11669979Y-9913061D01*
X11675414Y-9908032D01*
X11680596Y-9903815D01*
X11685727Y-9900361D01*
X11690908Y-9897618D01*
X11696141Y-9895687D01*
X11701627Y-9894519D01*
X11707418Y-9894112D01*
X11712397Y-9894417D01*
X11716867Y-9895179D01*
X11720880Y-9896551D01*
X11724386Y-9898481D01*
X11727484Y-9901021D01*
X11730126Y-9904120D01*
X11732310Y-9907828D01*
X11734088Y-9912197D01*
X11735409Y-9917176D01*
X11736374Y-9922764D01*
X11736984Y-9929063D01*
X11737136Y-9936022D01*
X11737136Y-10028986D01*
X11760250Y-10028986D01*
X11760250Y-9933228D01*
X11760098Y-9926218D01*
X11759590Y-9919614D01*
X11758676Y-9913467D01*
X11757456Y-9907727D01*
X11755882Y-9902444D01*
X11753951Y-9897618D01*
X11751614Y-9893249D01*
X11748973Y-9889286D01*
X11745925Y-9885832D01*
X11742521Y-9882784D01*
X11738711Y-9880193D01*
X11734546Y-9878110D01*
X11729974Y-9876434D01*
X11725046Y-9875266D01*
X11719763Y-9874554D01*
G37*
G36*
X11362740Y-9874300D02*
G01*
X11357254Y-9874554D01*
X11351869Y-9875164D01*
X11346586Y-9876231D01*
X11341404Y-9877704D01*
X11336375Y-9879634D01*
X11331549Y-9881920D01*
X11326876Y-9884613D01*
X11322456Y-9887712D01*
X11318240Y-9891217D01*
X11314277Y-9895078D01*
X11310569Y-9899345D01*
X11307216Y-9903917D01*
X11304168Y-9908946D01*
X11301425Y-9914280D01*
X11299088Y-9919970D01*
X11297107Y-9926015D01*
X11295532Y-9932416D01*
X11294364Y-9939121D01*
X11293652Y-9946182D01*
X11293398Y-9953548D01*
X11317020Y-9953548D01*
X11317274Y-9946995D01*
X11317884Y-9940696D01*
X11318951Y-9934702D01*
X11320373Y-9929063D01*
X11322202Y-9923729D01*
X11324386Y-9918750D01*
X11326926Y-9914178D01*
X11329771Y-9910013D01*
X11332972Y-9906304D01*
X11336477Y-9902952D01*
X11340236Y-9900107D01*
X11344249Y-9897719D01*
X11348516Y-9895840D01*
X11353038Y-9894468D01*
X11357813Y-9893655D01*
X11362740Y-9893350D01*
X11367770Y-9893655D01*
X11372545Y-9894468D01*
X11377117Y-9895840D01*
X11381435Y-9897719D01*
X11385499Y-9900107D01*
X11389309Y-9902952D01*
X11392865Y-9906304D01*
X11396065Y-9910013D01*
X11398961Y-9914178D01*
X11401501Y-9918750D01*
X11403736Y-9923729D01*
X11405565Y-9929063D01*
X11407038Y-9934702D01*
X11408105Y-9940696D01*
X11408765Y-9946995D01*
X11408968Y-9953548D01*
X11408765Y-9960203D01*
X11408105Y-9966502D01*
X11407038Y-9972497D01*
X11405565Y-9978136D01*
X11403736Y-9983470D01*
X11401501Y-9988397D01*
X11398961Y-9992918D01*
X11396065Y-9997084D01*
X11392865Y-10000792D01*
X11389309Y-10004044D01*
X11385499Y-10006888D01*
X11381435Y-10009225D01*
X11377117Y-10011054D01*
X11372545Y-10012426D01*
X11367770Y-10013238D01*
X11362740Y-10013492D01*
X11357813Y-10013238D01*
X11353038Y-10012426D01*
X11348516Y-10011054D01*
X11344249Y-10009225D01*
X11340236Y-10006888D01*
X11336477Y-10004044D01*
X11332972Y-10000792D01*
X11329771Y-9997084D01*
X11326926Y-9992918D01*
X11324386Y-9988397D01*
X11322202Y-9983470D01*
X11320373Y-9978136D01*
X11318951Y-9972497D01*
X11317884Y-9966502D01*
X11317274Y-9960203D01*
X11317020Y-9953548D01*
X11293398Y-9953548D01*
X11293652Y-9960914D01*
X11294364Y-9967925D01*
X11295532Y-9974630D01*
X11297107Y-9980980D01*
X11299088Y-9987026D01*
X11301425Y-9992715D01*
X11304168Y-9997998D01*
X11307216Y-10002977D01*
X11310569Y-10007600D01*
X11314277Y-10011816D01*
X11318240Y-10015677D01*
X11322456Y-10019182D01*
X11326876Y-10022230D01*
X11331549Y-10024973D01*
X11336375Y-10027259D01*
X11341404Y-10029139D01*
X11346586Y-10030612D01*
X11351869Y-10031679D01*
X11357254Y-10032339D01*
X11362740Y-10032542D01*
X11368278Y-10032339D01*
X11373713Y-10031679D01*
X11379047Y-10030612D01*
X11384229Y-10029139D01*
X11389258Y-10027259D01*
X11394135Y-10024973D01*
X11398808Y-10022230D01*
X11403279Y-10019182D01*
X11407495Y-10015677D01*
X11411458Y-10011816D01*
X11415166Y-10007600D01*
X11418519Y-10002977D01*
X11421618Y-9997998D01*
X11424310Y-9992715D01*
X11426698Y-9987026D01*
X11428679Y-9980980D01*
X11430254Y-9974630D01*
X11431422Y-9967925D01*
X11432133Y-9960914D01*
X11432336Y-9953548D01*
X11432133Y-9946182D01*
X11431422Y-9939121D01*
X11430254Y-9932416D01*
X11428679Y-9926015D01*
X11426698Y-9919970D01*
X11424310Y-9914280D01*
X11421618Y-9908946D01*
X11418519Y-9903917D01*
X11415166Y-9899345D01*
X11411458Y-9895078D01*
X11407495Y-9891217D01*
X11403279Y-9887712D01*
X11398808Y-9884613D01*
X11394135Y-9881920D01*
X11389258Y-9879634D01*
X11384229Y-9877704D01*
X11379047Y-9876231D01*
X11373713Y-9875164D01*
X11368278Y-9874554D01*
G37*
G36*
X11266728Y-9874300D02*
G01*
X11260429Y-9874910D01*
X11254333Y-9876536D01*
X11248440Y-9879279D01*
X11242852Y-9882936D01*
X11237569Y-9887458D01*
X11232642Y-9892842D01*
X11228120Y-9898989D01*
X11224056Y-9905796D01*
X11223040Y-9905796D01*
X11221008Y-9878110D01*
X11202466Y-9878110D01*
X11202466Y-10028986D01*
X11225072Y-10028986D01*
X11225072Y-9930688D01*
X11229238Y-9921595D01*
X11233708Y-9913975D01*
X11238534Y-9907778D01*
X11243564Y-9902901D01*
X11248694Y-9899243D01*
X11253876Y-9896754D01*
X11259007Y-9895332D01*
X11263934Y-9894874D01*
X11267897Y-9895027D01*
X11271351Y-9895484D01*
X11278158Y-9897414D01*
X11282730Y-9877602D01*
X11278971Y-9876028D01*
X11275212Y-9875012D01*
X11271199Y-9874453D01*
G37*
G36*
X12376200Y-9878110D02*
G01*
X12376200Y-9973868D01*
X12376404Y-9980879D01*
X12376861Y-9987483D01*
X12377724Y-9993630D01*
X12378944Y-9999319D01*
X12380468Y-10004602D01*
X12382398Y-10009428D01*
X12384633Y-10013797D01*
X12387275Y-10017709D01*
X12390272Y-10021163D01*
X12393625Y-10024160D01*
X12397384Y-10026700D01*
X12401499Y-10028834D01*
X12406020Y-10030460D01*
X12410948Y-10031628D01*
X12416231Y-10032339D01*
X12421920Y-10032542D01*
X12429540Y-10032034D01*
X12436703Y-10030561D01*
X12443358Y-10028174D01*
X12449657Y-10024922D01*
X12455601Y-10020909D01*
X12461341Y-10016185D01*
X12466828Y-10010800D01*
X12472212Y-10004856D01*
X12473228Y-10004856D01*
X12475006Y-10028986D01*
X12493802Y-10028986D01*
X12493802Y-9878110D01*
X12471196Y-9878110D01*
X12471196Y-9986314D01*
X12465761Y-9992715D01*
X12460528Y-9998151D01*
X12455398Y-10002723D01*
X12450368Y-10006380D01*
X12445288Y-10009225D01*
X12440056Y-10011206D01*
X12434570Y-10012375D01*
X12428778Y-10012730D01*
X12423698Y-10012476D01*
X12419177Y-10011664D01*
X12415113Y-10010292D01*
X12411557Y-10008362D01*
X12408458Y-10005872D01*
X12405817Y-10002774D01*
X12403632Y-9999065D01*
X12401854Y-9994747D01*
X12400483Y-9989820D01*
X12399568Y-9984232D01*
X12399010Y-9977983D01*
X12398806Y-9971074D01*
X12398806Y-9878110D01*
G37*
G36*
X11471198Y-9878110D02*
G01*
X11471198Y-9973868D01*
X11471402Y-9980879D01*
X11471910Y-9987483D01*
X11472722Y-9993630D01*
X11473942Y-9999319D01*
X11475466Y-10004602D01*
X11477396Y-10009428D01*
X11479631Y-10013797D01*
X11482273Y-10017709D01*
X11485321Y-10021163D01*
X11488674Y-10024160D01*
X11492433Y-10026700D01*
X11496598Y-10028834D01*
X11501170Y-10030460D01*
X11506098Y-10031628D01*
X11511432Y-10032339D01*
X11517172Y-10032542D01*
X11524742Y-10032034D01*
X11531803Y-10030561D01*
X11538458Y-10028174D01*
X11544706Y-10024922D01*
X11550700Y-10020909D01*
X11556441Y-10016185D01*
X11562029Y-10010800D01*
X11567464Y-10004856D01*
X11568226Y-10004856D01*
X11570258Y-10028986D01*
X11588800Y-10028986D01*
X11588800Y-9878110D01*
X11566194Y-9878110D01*
X11566194Y-9986314D01*
X11560759Y-9992715D01*
X11555526Y-9998151D01*
X11550396Y-10002723D01*
X11545366Y-10006380D01*
X11540286Y-10009225D01*
X11535054Y-10011206D01*
X11529568Y-10012375D01*
X11523776Y-10012730D01*
X11518696Y-10012476D01*
X11514175Y-10011664D01*
X11510111Y-10010292D01*
X11506555Y-10008362D01*
X11503456Y-10005872D01*
X11500815Y-10002774D01*
X11498630Y-9999065D01*
X11496852Y-9994747D01*
X11495481Y-9989820D01*
X11494566Y-9984232D01*
X11494008Y-9977983D01*
X11493804Y-9971074D01*
X11493804Y-9878110D01*
G37*
G36*
X2051100Y-9859721D02*
G01*
X2051100Y-9919106D01*
X2052370Y-9945268D01*
X2047290Y-9941306D01*
X2042261Y-9937800D01*
X2037283Y-9934752D01*
X2032152Y-9932212D01*
X2026869Y-9930180D01*
X2021281Y-9928707D01*
X2015337Y-9927844D01*
X2008936Y-9927539D01*
X2003755Y-9927742D01*
X1998675Y-9928402D01*
X1993696Y-9929520D01*
X1988820Y-9931095D01*
X1984095Y-9933076D01*
X1979523Y-9935464D01*
X1975104Y-9938258D01*
X1970938Y-9941458D01*
X1966925Y-9945014D01*
X1963216Y-9948926D01*
X1959711Y-9953244D01*
X1956511Y-9957917D01*
X1953615Y-9962896D01*
X1951024Y-9968230D01*
X1948738Y-9973919D01*
X1946859Y-9979914D01*
X1945386Y-9986162D01*
X1944268Y-9992766D01*
X1943607Y-9999624D01*
X1943404Y-10006787D01*
X1966975Y-10006787D01*
X1967230Y-10000284D01*
X1967890Y-9994036D01*
X1969007Y-9988092D01*
X1970481Y-9982454D01*
X1972360Y-9977170D01*
X1974646Y-9972192D01*
X1977186Y-9967620D01*
X1980133Y-9963404D01*
X1983333Y-9959644D01*
X1986788Y-9956292D01*
X1990547Y-9953396D01*
X1994560Y-9951008D01*
X1998725Y-9949078D01*
X2003145Y-9947706D01*
X2007717Y-9946843D01*
X2012442Y-9946589D01*
X2017369Y-9946792D01*
X2022144Y-9947503D01*
X2026869Y-9948722D01*
X2031593Y-9950450D01*
X2036318Y-9952786D01*
X2041093Y-9955682D01*
X2046020Y-9959187D01*
X2051100Y-9963353D01*
X2051100Y-10045090D01*
X2046071Y-10050119D01*
X2041093Y-10054437D01*
X2036114Y-10058095D01*
X2031136Y-10061092D01*
X2026107Y-10063429D01*
X2020976Y-10065105D01*
X2015794Y-10066121D01*
X2010410Y-10066426D01*
X2005380Y-10066172D01*
X2000605Y-10065410D01*
X1996135Y-10064140D01*
X1991969Y-10062362D01*
X1988108Y-10060076D01*
X1984502Y-10057333D01*
X1981250Y-10054132D01*
X1978355Y-10050526D01*
X1975713Y-10046462D01*
X1973427Y-10041940D01*
X1971497Y-10037013D01*
X1969871Y-10031730D01*
X1968652Y-10026040D01*
X1967738Y-10019995D01*
X1967179Y-10013543D01*
X1966975Y-10006787D01*
X1943404Y-10006787D01*
X1943557Y-10014153D01*
X1944116Y-10021265D01*
X1944979Y-10027970D01*
X1946198Y-10034371D01*
X1947722Y-10040416D01*
X1949602Y-10046106D01*
X1951786Y-10051440D01*
X1954326Y-10056418D01*
X1957120Y-10060990D01*
X1960219Y-10065207D01*
X1963572Y-10069068D01*
X1967230Y-10072522D01*
X1971192Y-10075570D01*
X1975357Y-10078262D01*
X1979828Y-10080498D01*
X1984502Y-10082377D01*
X1989429Y-10083850D01*
X1994611Y-10084917D01*
X1999996Y-10085527D01*
X2005634Y-10085781D01*
X2012391Y-10085324D01*
X2018893Y-10084054D01*
X2025243Y-10082072D01*
X2031238Y-10079431D01*
X2037029Y-10076180D01*
X2042464Y-10072471D01*
X2047595Y-10068356D01*
X2052370Y-10063937D01*
X2053132Y-10063937D01*
X2055164Y-10082174D01*
X2073656Y-10082174D01*
X2073656Y-9859721D01*
G37*
G36*
X2248966Y-9873945D02*
G01*
X2242261Y-9874199D01*
X2235809Y-9874961D01*
X2229612Y-9876180D01*
X2223719Y-9877907D01*
X2218182Y-9880041D01*
X2212949Y-9882632D01*
X2208123Y-9885629D01*
X2203704Y-9888982D01*
X2199690Y-9892741D01*
X2196134Y-9896805D01*
X2193036Y-9901224D01*
X2190445Y-9905949D01*
X2188413Y-9910978D01*
X2186940Y-9916261D01*
X2186025Y-9921748D01*
X2185720Y-9927539D01*
X2186127Y-9934600D01*
X2187448Y-9941102D01*
X2189530Y-9946995D01*
X2192274Y-9952329D01*
X2195576Y-9957155D01*
X2199386Y-9961524D01*
X2203602Y-9965385D01*
X2208072Y-9968890D01*
X2212797Y-9971989D01*
X2217674Y-9974732D01*
X2227326Y-9979355D01*
X2264156Y-9995712D01*
X2270760Y-9998964D01*
X2276652Y-10002469D01*
X2281783Y-10006380D01*
X2286000Y-10010902D01*
X2289200Y-10016236D01*
X2291181Y-10022586D01*
X2291842Y-10030155D01*
X2291537Y-10035235D01*
X2290470Y-10040061D01*
X2288794Y-10044531D01*
X2286406Y-10048646D01*
X2283460Y-10052354D01*
X2279853Y-10055707D01*
X2275687Y-10058552D01*
X2270963Y-10060990D01*
X2265730Y-10062870D01*
X2259939Y-10064292D01*
X2253640Y-10065156D01*
X2246934Y-10065461D01*
X2241499Y-10065207D01*
X2236114Y-10064597D01*
X2230831Y-10063581D01*
X2225649Y-10062210D01*
X2220620Y-10060482D01*
X2215642Y-10058400D01*
X2210866Y-10055961D01*
X2206294Y-10053269D01*
X2201824Y-10050221D01*
X2197608Y-10046919D01*
X2193544Y-10043363D01*
X2189784Y-10039553D01*
X2175814Y-10055250D01*
X2180336Y-10059822D01*
X2185111Y-10064038D01*
X2190191Y-10067950D01*
X2195525Y-10071557D01*
X2201113Y-10074757D01*
X2206955Y-10077551D01*
X2213000Y-10079990D01*
X2219299Y-10082022D01*
X2225852Y-10083647D01*
X2232558Y-10084816D01*
X2239518Y-10085527D01*
X2246680Y-10085781D01*
X2254351Y-10085476D01*
X2261717Y-10084612D01*
X2268677Y-10083241D01*
X2275179Y-10081310D01*
X2281326Y-10078923D01*
X2286965Y-10076129D01*
X2292146Y-10072827D01*
X2296871Y-10069169D01*
X2301087Y-10065156D01*
X2304846Y-10060736D01*
X2307996Y-10056063D01*
X2310688Y-10051034D01*
X2312771Y-10045750D01*
X2314244Y-10040264D01*
X2315159Y-10034524D01*
X2315514Y-10028631D01*
X2315108Y-10021316D01*
X2313990Y-10014661D01*
X2312162Y-10008616D01*
X2309672Y-10003129D01*
X2306624Y-9998151D01*
X2303068Y-9993630D01*
X2298954Y-9989566D01*
X2294432Y-9985806D01*
X2289556Y-9982403D01*
X2284323Y-9979304D01*
X2278837Y-9976408D01*
X2273046Y-9973716D01*
X2243328Y-9961321D01*
X2231390Y-9955784D01*
X2225649Y-9952532D01*
X2220417Y-9948773D01*
X2215946Y-9944354D01*
X2212441Y-9939121D01*
X2210155Y-9932974D01*
X2209292Y-9925761D01*
X2210054Y-9918852D01*
X2212136Y-9912705D01*
X2215540Y-9907371D01*
X2220163Y-9902850D01*
X2225903Y-9899294D01*
X2232660Y-9896652D01*
X2240381Y-9895027D01*
X2248966Y-9894468D01*
X2256078Y-9894824D01*
X2262784Y-9895890D01*
X2269134Y-9897516D01*
X2275128Y-9899802D01*
X2280818Y-9902596D01*
X2286203Y-9905949D01*
X2291334Y-9909759D01*
X2296160Y-9914026D01*
X2308402Y-9899345D01*
X2304745Y-9895687D01*
X2300833Y-9892233D01*
X2296668Y-9889032D01*
X2292248Y-9886086D01*
X2287574Y-9883394D01*
X2282647Y-9881006D01*
X2277516Y-9878923D01*
X2272182Y-9877196D01*
X2266645Y-9875774D01*
X2260904Y-9874758D01*
X2255012Y-9874148D01*
G37*
G36*
X1237996Y-9873945D02*
G01*
X1232306Y-9874097D01*
X1226718Y-9874554D01*
X1221282Y-9875316D01*
X1215948Y-9876332D01*
X1210767Y-9877704D01*
X1205687Y-9879330D01*
X1200810Y-9881260D01*
X1196086Y-9883444D01*
X1191514Y-9885934D01*
X1187145Y-9888677D01*
X1182928Y-9891674D01*
X1178915Y-9894976D01*
X1175105Y-9898532D01*
X1171498Y-9902291D01*
X1168044Y-9906355D01*
X1164844Y-9910622D01*
X1161846Y-9915194D01*
X1159103Y-9919919D01*
X1156563Y-9924948D01*
X1154277Y-9930180D01*
X1150416Y-9941306D01*
X1148892Y-9947198D01*
X1147622Y-9953345D01*
X1146606Y-9959644D01*
X1145895Y-9966198D01*
X1145438Y-9972903D01*
X1145286Y-9979863D01*
X1145438Y-9986822D01*
X1146556Y-10000234D01*
X1148791Y-10012730D01*
X1150264Y-10018674D01*
X1152042Y-10024364D01*
X1154023Y-10029850D01*
X1156258Y-10035082D01*
X1158697Y-10040061D01*
X1161389Y-10044836D01*
X1164285Y-10049357D01*
X1167434Y-10053624D01*
X1170787Y-10057638D01*
X1174343Y-10061448D01*
X1178052Y-10064953D01*
X1182014Y-10068204D01*
X1186129Y-10071201D01*
X1190396Y-10073894D01*
X1194866Y-10076332D01*
X1199540Y-10078516D01*
X1204315Y-10080447D01*
X1209294Y-10082022D01*
X1214424Y-10083342D01*
X1219657Y-10084409D01*
X1225042Y-10085171D01*
X1230579Y-10085628D01*
X1236218Y-10085781D01*
X1242974Y-10085578D01*
X1249476Y-10084968D01*
X1255776Y-10084054D01*
X1261770Y-10082733D01*
X1267510Y-10081107D01*
X1272946Y-10079228D01*
X1278077Y-10076992D01*
X1282954Y-10074554D01*
X1287475Y-10071811D01*
X1291640Y-10068864D01*
X1295501Y-10065715D01*
X1299006Y-10062413D01*
X1299006Y-9977526D01*
X1232966Y-9977526D01*
X1232966Y-9996576D01*
X1277416Y-9996576D01*
X1277416Y-10052456D01*
X1273962Y-10055352D01*
X1269949Y-10057942D01*
X1265478Y-10060127D01*
X1260602Y-10062006D01*
X1255420Y-10063480D01*
X1249984Y-10064546D01*
X1244295Y-10065207D01*
X1238504Y-10065461D01*
X1232001Y-10065207D01*
X1225804Y-10064445D01*
X1219860Y-10063226D01*
X1214221Y-10061549D01*
X1208887Y-10059416D01*
X1203909Y-10056825D01*
X1199184Y-10053777D01*
X1194816Y-10050322D01*
X1190802Y-10046462D01*
X1187043Y-10042194D01*
X1183690Y-10037521D01*
X1180642Y-10032441D01*
X1177899Y-10027005D01*
X1175562Y-10021214D01*
X1173581Y-10015067D01*
X1171905Y-10008565D01*
X1170635Y-10001758D01*
X1169670Y-9994595D01*
X1169111Y-9987127D01*
X1168958Y-9979355D01*
X1169111Y-9971582D01*
X1169720Y-9964166D01*
X1170736Y-9957104D01*
X1172108Y-9950297D01*
X1173835Y-9943896D01*
X1175969Y-9937800D01*
X1178407Y-9932111D01*
X1181201Y-9926777D01*
X1184351Y-9921798D01*
X1187805Y-9917176D01*
X1191615Y-9913010D01*
X1195730Y-9909200D01*
X1200099Y-9905847D01*
X1204772Y-9902901D01*
X1209751Y-9900361D01*
X1214983Y-9898278D01*
X1220520Y-9896652D01*
X1226261Y-9895433D01*
X1232306Y-9894722D01*
X1238504Y-9894468D01*
X1246174Y-9894874D01*
X1253134Y-9895992D01*
X1259433Y-9897821D01*
X1265224Y-9900158D01*
X1270406Y-9903053D01*
X1275181Y-9906406D01*
X1279499Y-9910064D01*
X1283462Y-9914026D01*
X1296466Y-9898837D01*
X1290015Y-9892842D01*
X1286357Y-9889896D01*
X1282344Y-9887051D01*
X1278077Y-9884359D01*
X1273403Y-9881870D01*
X1268425Y-9879634D01*
X1263091Y-9877704D01*
X1257401Y-9876129D01*
X1251305Y-9874910D01*
X1244854Y-9874199D01*
G37*
G36*
X2983992Y-9927539D02*
G01*
X2978861Y-9927742D01*
X2973730Y-9928402D01*
X2968701Y-9929520D01*
X2963773Y-9931095D01*
X2958947Y-9933025D01*
X2954223Y-9935413D01*
X2949752Y-9938207D01*
X2945384Y-9941356D01*
X2941269Y-9944912D01*
X2937408Y-9948875D01*
X2933801Y-9953142D01*
X2930448Y-9957816D01*
X2927400Y-9962794D01*
X2924708Y-9968128D01*
X2922371Y-9973818D01*
X2920390Y-9979812D01*
X2918815Y-9986111D01*
X2917399Y-9995103D01*
X2939084Y-9995103D01*
X2940151Y-9987584D01*
X2941929Y-9980676D01*
X2944266Y-9974326D01*
X2947162Y-9968534D01*
X2950565Y-9963353D01*
X2954426Y-9958832D01*
X2958693Y-9954920D01*
X2963316Y-9951669D01*
X2968193Y-9949129D01*
X2973374Y-9947300D01*
X2978759Y-9946182D01*
X2984246Y-9945776D01*
X2990240Y-9946132D01*
X2995726Y-9947198D01*
X3000756Y-9948976D01*
X3005378Y-9951415D01*
X3009442Y-9954514D01*
X3013049Y-9958324D01*
X3016148Y-9962845D01*
X3018739Y-9967976D01*
X3020720Y-9973767D01*
X3022193Y-9980218D01*
X3023108Y-9987330D01*
X3023362Y-9995103D01*
X2917399Y-9995103D01*
X2916936Y-9999573D01*
X2916732Y-10006787D01*
X2916936Y-10014051D01*
X2917647Y-10021062D01*
X2918764Y-10027767D01*
X2920339Y-10034117D01*
X2922270Y-10040112D01*
X2924657Y-10045801D01*
X2927350Y-10051084D01*
X2930448Y-10056063D01*
X2933852Y-10060686D01*
X2937560Y-10064953D01*
X2941574Y-10068814D01*
X2945892Y-10072268D01*
X2950464Y-10075367D01*
X2955290Y-10078110D01*
X2960319Y-10080396D01*
X2965551Y-10082326D01*
X2971038Y-10083800D01*
X2976626Y-10084866D01*
X2982417Y-10085527D01*
X2988310Y-10085781D01*
X2995879Y-10085425D01*
X3002991Y-10084562D01*
X3009646Y-10083139D01*
X3015945Y-10081260D01*
X3021838Y-10079024D01*
X3027375Y-10076434D01*
X3032607Y-10073589D01*
X3037636Y-10070490D01*
X3029254Y-10055250D01*
X3024987Y-10057993D01*
X3020618Y-10060432D01*
X3016148Y-10062565D01*
X3011525Y-10064343D01*
X3006699Y-10065816D01*
X3001721Y-10066832D01*
X2996539Y-10067493D01*
X2991154Y-10067747D01*
X2985566Y-10067442D01*
X2980283Y-10066680D01*
X2975254Y-10065461D01*
X2970479Y-10063683D01*
X2966008Y-10061498D01*
X2961843Y-10058857D01*
X2957982Y-10055809D01*
X2954477Y-10052354D01*
X2951276Y-10048494D01*
X2948432Y-10044277D01*
X2945942Y-10039654D01*
X2943809Y-10034727D01*
X2942082Y-10029444D01*
X2940761Y-10023856D01*
X2939796Y-10018014D01*
X2939288Y-10011816D01*
X3042412Y-10011816D01*
X3042920Y-10008920D01*
X3043377Y-10001910D01*
X3043275Y-9991699D01*
X3042818Y-9985552D01*
X3042005Y-9979609D01*
X3040888Y-9974021D01*
X3039465Y-9968687D01*
X3037789Y-9963607D01*
X3035757Y-9958832D01*
X3033420Y-9954412D01*
X3030829Y-9950246D01*
X3027934Y-9946436D01*
X3024733Y-9942931D01*
X3021279Y-9939782D01*
X3017570Y-9936988D01*
X3013557Y-9934498D01*
X3009290Y-9932416D01*
X3004718Y-9930688D01*
X2999943Y-9929317D01*
X2994863Y-9928301D01*
X2989580Y-9927691D01*
G37*
G36*
X2853486Y-9927539D02*
G01*
X2847797Y-9927742D01*
X2842209Y-9928352D01*
X2836722Y-9929418D01*
X2831388Y-9930942D01*
X2826207Y-9932822D01*
X2821178Y-9935108D01*
X2816402Y-9937851D01*
X2811780Y-9940899D01*
X2807462Y-9944404D01*
X2803347Y-9948265D01*
X2799588Y-9952532D01*
X2796082Y-9957155D01*
X2792933Y-9962134D01*
X2790088Y-9967468D01*
X2787650Y-9973157D01*
X2785618Y-9979202D01*
X2783992Y-9985603D01*
X2782824Y-9992309D01*
X2782062Y-9999370D01*
X2781808Y-10006787D01*
X2782062Y-10014102D01*
X2782722Y-10021112D01*
X2783840Y-10027818D01*
X2785313Y-10034168D01*
X2787192Y-10040213D01*
X2789478Y-10045903D01*
X2792120Y-10051237D01*
X2795117Y-10056164D01*
X2798419Y-10060787D01*
X2802026Y-10065004D01*
X2805938Y-10068864D01*
X2810154Y-10072370D01*
X2814624Y-10075468D01*
X2819298Y-10078161D01*
X2824276Y-10080447D01*
X2829407Y-10082326D01*
X2834792Y-10083850D01*
X2840329Y-10084917D01*
X2846070Y-10085527D01*
X2851912Y-10085781D01*
X2858719Y-10085425D01*
X2865323Y-10084460D01*
X2871774Y-10082885D01*
X2878023Y-10080650D01*
X2884017Y-10077907D01*
X2889758Y-10074605D01*
X2895244Y-10070795D01*
X2900426Y-10066426D01*
X2890570Y-10051440D01*
X2886760Y-10054539D01*
X2882747Y-10057384D01*
X2878480Y-10059974D01*
X2873959Y-10062210D01*
X2869184Y-10064089D01*
X2864205Y-10065512D01*
X2859074Y-10066375D01*
X2853690Y-10066731D01*
X2848406Y-10066426D01*
X2843326Y-10065613D01*
X2838500Y-10064242D01*
X2833928Y-10062413D01*
X2829610Y-10060076D01*
X2825648Y-10057231D01*
X2821940Y-10053980D01*
X2818587Y-10050272D01*
X2815590Y-10046106D01*
X2812897Y-10041585D01*
X2810611Y-10036657D01*
X2808732Y-10031323D01*
X2807208Y-10025684D01*
X2806090Y-10019690D01*
X2805430Y-10013391D01*
X2805176Y-10006787D01*
X2805430Y-10000183D01*
X2806141Y-9993884D01*
X2807309Y-9987889D01*
X2808935Y-9982250D01*
X2810967Y-9976916D01*
X2813354Y-9971989D01*
X2816148Y-9967417D01*
X2819247Y-9963251D01*
X2822702Y-9959492D01*
X2826512Y-9956190D01*
X2830576Y-9953294D01*
X2834894Y-9950958D01*
X2839466Y-9949027D01*
X2844241Y-9947706D01*
X2849270Y-9946843D01*
X2854502Y-9946589D01*
X2863342Y-9947605D01*
X2871419Y-9950450D01*
X2878836Y-9954818D01*
X2885694Y-9960305D01*
X2897682Y-9945522D01*
X2893517Y-9942017D01*
X2889046Y-9938664D01*
X2884220Y-9935616D01*
X2878988Y-9932924D01*
X2873349Y-9930688D01*
X2867202Y-9928961D01*
X2860598Y-9927894D01*
G37*
G36*
X2754934Y-9927539D02*
G01*
X2748584Y-9928098D01*
X2742488Y-9929774D01*
X2736596Y-9932466D01*
X2731008Y-9936124D01*
X2725724Y-9940696D01*
X2720797Y-9946030D01*
X2716276Y-9952177D01*
X2712212Y-9958984D01*
X2711196Y-9958984D01*
X2709214Y-9931298D01*
X2690622Y-9931298D01*
X2690622Y-10082174D01*
X2713228Y-10082174D01*
X2713228Y-9983876D01*
X2717393Y-9974783D01*
X2721914Y-9967163D01*
X2726690Y-9960965D01*
X2731719Y-9956088D01*
X2736850Y-9952431D01*
X2742031Y-9949992D01*
X2747162Y-9948519D01*
X2752090Y-9948113D01*
X2756103Y-9948214D01*
X2759506Y-9948672D01*
X2762808Y-9949484D01*
X2766364Y-9950653D01*
X2770936Y-9930790D01*
X2767177Y-9929215D01*
X2763367Y-9928199D01*
X2759354Y-9927691D01*
G37*
G36*
X2411780Y-9927539D02*
G01*
X2406243Y-9927742D01*
X2400858Y-9928352D01*
X2395575Y-9929418D01*
X2390394Y-9930942D01*
X2385364Y-9932822D01*
X2380538Y-9935108D01*
X2375865Y-9937851D01*
X2371445Y-9940899D01*
X2367229Y-9944404D01*
X2363266Y-9948265D01*
X2359609Y-9952532D01*
X2356205Y-9957155D01*
X2353157Y-9962134D01*
X2350414Y-9967468D01*
X2348077Y-9973157D01*
X2346096Y-9979202D01*
X2344521Y-9985603D01*
X2343353Y-9992309D01*
X2342642Y-9999370D01*
X2342388Y-10006787D01*
X2366010Y-10006787D01*
X2366264Y-10000183D01*
X2366873Y-9993884D01*
X2367940Y-9987889D01*
X2369413Y-9982250D01*
X2371191Y-9976916D01*
X2373426Y-9971989D01*
X2375916Y-9967417D01*
X2378811Y-9963251D01*
X2381961Y-9959492D01*
X2385466Y-9956190D01*
X2389225Y-9953294D01*
X2393238Y-9950958D01*
X2397556Y-9949027D01*
X2402078Y-9947706D01*
X2406802Y-9946843D01*
X2411780Y-9946589D01*
X2416759Y-9946843D01*
X2421534Y-9947706D01*
X2426106Y-9949027D01*
X2430424Y-9950958D01*
X2434539Y-9953294D01*
X2438349Y-9956190D01*
X2441854Y-9959492D01*
X2445054Y-9963251D01*
X2447950Y-9967417D01*
X2450541Y-9971989D01*
X2452725Y-9976916D01*
X2454605Y-9982250D01*
X2456027Y-9987889D01*
X2457094Y-9993884D01*
X2457754Y-10000183D01*
X2457958Y-10006787D01*
X2457754Y-10013391D01*
X2457094Y-10019690D01*
X2456027Y-10025684D01*
X2454605Y-10031323D01*
X2452725Y-10036657D01*
X2450541Y-10041585D01*
X2447950Y-10046106D01*
X2445054Y-10050272D01*
X2441854Y-10053980D01*
X2438349Y-10057231D01*
X2434539Y-10060076D01*
X2430424Y-10062413D01*
X2426106Y-10064242D01*
X2421534Y-10065613D01*
X2416759Y-10066426D01*
X2411780Y-10066731D01*
X2406802Y-10066426D01*
X2402078Y-10065613D01*
X2397556Y-10064242D01*
X2393238Y-10062413D01*
X2389225Y-10060076D01*
X2385466Y-10057231D01*
X2381961Y-10053980D01*
X2378811Y-10050272D01*
X2375916Y-10046106D01*
X2373426Y-10041585D01*
X2371191Y-10036657D01*
X2369413Y-10031323D01*
X2367940Y-10025684D01*
X2366873Y-10019690D01*
X2366264Y-10013391D01*
X2366010Y-10006787D01*
X2342388Y-10006787D01*
X2342642Y-10014102D01*
X2343353Y-10021112D01*
X2344521Y-10027818D01*
X2346096Y-10034168D01*
X2348077Y-10040213D01*
X2350414Y-10045903D01*
X2353157Y-10051237D01*
X2356205Y-10056164D01*
X2359609Y-10060787D01*
X2363266Y-10065004D01*
X2367229Y-10068864D01*
X2371445Y-10072370D01*
X2375865Y-10075468D01*
X2380538Y-10078161D01*
X2385364Y-10080447D01*
X2390394Y-10082326D01*
X2395575Y-10083850D01*
X2400858Y-10084917D01*
X2406243Y-10085527D01*
X2411780Y-10085781D01*
X2417267Y-10085527D01*
X2422652Y-10084917D01*
X2427935Y-10083850D01*
X2433116Y-10082326D01*
X2438146Y-10080447D01*
X2443022Y-10078161D01*
X2447696Y-10075468D01*
X2452166Y-10072370D01*
X2456383Y-10068864D01*
X2460345Y-10065004D01*
X2464054Y-10060787D01*
X2467457Y-10056164D01*
X2470556Y-10051237D01*
X2473299Y-10045903D01*
X2475636Y-10040213D01*
X2477668Y-10034168D01*
X2479243Y-10027818D01*
X2480411Y-10021112D01*
X2481122Y-10014102D01*
X2481326Y-10006787D01*
X2481122Y-9999370D01*
X2480411Y-9992309D01*
X2479243Y-9985603D01*
X2477668Y-9979202D01*
X2475636Y-9973157D01*
X2473299Y-9967468D01*
X2470556Y-9962134D01*
X2467457Y-9957155D01*
X2464054Y-9952532D01*
X2460345Y-9948265D01*
X2456383Y-9944404D01*
X2452166Y-9940899D01*
X2447696Y-9937851D01*
X2443022Y-9935108D01*
X2438146Y-9932822D01*
X2433116Y-9930942D01*
X2427935Y-9929418D01*
X2422652Y-9928352D01*
X2417267Y-9927742D01*
G37*
G36*
X1858010Y-9927539D02*
G01*
X1850542Y-9928047D01*
X1843430Y-9929571D01*
X1836724Y-9931958D01*
X1830324Y-9935108D01*
X1824228Y-9938969D01*
X1818386Y-9943388D01*
X1812747Y-9948214D01*
X1807210Y-9953447D01*
X1806498Y-9953447D01*
X1804162Y-9931298D01*
X1785620Y-9931298D01*
X1785620Y-10082174D01*
X1808225Y-10082174D01*
X1808225Y-9971989D01*
X1813966Y-9966248D01*
X1819402Y-9961270D01*
X1824634Y-9957003D01*
X1829765Y-9953548D01*
X1834896Y-9950856D01*
X1840128Y-9948875D01*
X1845614Y-9947706D01*
X1851456Y-9947300D01*
X1856384Y-9947605D01*
X1860854Y-9948418D01*
X1864868Y-9949789D01*
X1868373Y-9951720D01*
X1871472Y-9954209D01*
X1874113Y-9957308D01*
X1876298Y-9961067D01*
X1878075Y-9965385D01*
X1879447Y-9970363D01*
X1880412Y-9976002D01*
X1880971Y-9982250D01*
X1881174Y-9989261D01*
X1881174Y-10082174D01*
X1904288Y-10082174D01*
X1904288Y-9986416D01*
X1904085Y-9979406D01*
X1903577Y-9972802D01*
X1902714Y-9966655D01*
X1901494Y-9960965D01*
X1899869Y-9955682D01*
X1897938Y-9950805D01*
X1895652Y-9946436D01*
X1892960Y-9942474D01*
X1889912Y-9939020D01*
X1886508Y-9935972D01*
X1882698Y-9933381D01*
X1878533Y-9931298D01*
X1874012Y-9929622D01*
X1869084Y-9928453D01*
X1863750Y-9927742D01*
G37*
G36*
X1506728Y-9927539D02*
G01*
X1501241Y-9927742D01*
X1495856Y-9928352D01*
X1490573Y-9929418D01*
X1485392Y-9930942D01*
X1480362Y-9932822D01*
X1475536Y-9935108D01*
X1470863Y-9937851D01*
X1466443Y-9940899D01*
X1462227Y-9944404D01*
X1458264Y-9948265D01*
X1454607Y-9952532D01*
X1451203Y-9957155D01*
X1448155Y-9962134D01*
X1445412Y-9967468D01*
X1443075Y-9973157D01*
X1441094Y-9979202D01*
X1439519Y-9985603D01*
X1438351Y-9992309D01*
X1437640Y-9999370D01*
X1437386Y-10006787D01*
X1461058Y-10006787D01*
X1461262Y-10000183D01*
X1461871Y-9993884D01*
X1462938Y-9987889D01*
X1464411Y-9982250D01*
X1466189Y-9976916D01*
X1468424Y-9971989D01*
X1470914Y-9967417D01*
X1473809Y-9963251D01*
X1476959Y-9959492D01*
X1480464Y-9956190D01*
X1484223Y-9953294D01*
X1488236Y-9950958D01*
X1492554Y-9949027D01*
X1497076Y-9947706D01*
X1501800Y-9946843D01*
X1506728Y-9946589D01*
X1511757Y-9946843D01*
X1516532Y-9947706D01*
X1521104Y-9949027D01*
X1525422Y-9950958D01*
X1529537Y-9953294D01*
X1533347Y-9956190D01*
X1536852Y-9959492D01*
X1540052Y-9963251D01*
X1542948Y-9967417D01*
X1545539Y-9971989D01*
X1547723Y-9976916D01*
X1549603Y-9982250D01*
X1551025Y-9987889D01*
X1552092Y-9993884D01*
X1552752Y-10000183D01*
X1553006Y-10006787D01*
X1552752Y-10013391D01*
X1552092Y-10019690D01*
X1551025Y-10025684D01*
X1549603Y-10031323D01*
X1547723Y-10036657D01*
X1545539Y-10041585D01*
X1542948Y-10046106D01*
X1540052Y-10050272D01*
X1536852Y-10053980D01*
X1533347Y-10057231D01*
X1529537Y-10060076D01*
X1525422Y-10062413D01*
X1521104Y-10064242D01*
X1516532Y-10065613D01*
X1511757Y-10066426D01*
X1506728Y-10066731D01*
X1501800Y-10066426D01*
X1497076Y-10065613D01*
X1492554Y-10064242D01*
X1488236Y-10062413D01*
X1484223Y-10060076D01*
X1480464Y-10057231D01*
X1476959Y-10053980D01*
X1473809Y-10050272D01*
X1470914Y-10046106D01*
X1468424Y-10041585D01*
X1466189Y-10036657D01*
X1464411Y-10031323D01*
X1462938Y-10025684D01*
X1461871Y-10019690D01*
X1461262Y-10013391D01*
X1461058Y-10006787D01*
X1437386Y-10006787D01*
X1437640Y-10014102D01*
X1438351Y-10021112D01*
X1439519Y-10027818D01*
X1441094Y-10034168D01*
X1443075Y-10040213D01*
X1445412Y-10045903D01*
X1448155Y-10051237D01*
X1451203Y-10056164D01*
X1454607Y-10060787D01*
X1458264Y-10065004D01*
X1462227Y-10068864D01*
X1466443Y-10072370D01*
X1470863Y-10075468D01*
X1475536Y-10078161D01*
X1480362Y-10080447D01*
X1485392Y-10082326D01*
X1490573Y-10083850D01*
X1495856Y-10084917D01*
X1501241Y-10085527D01*
X1506728Y-10085781D01*
X1512265Y-10085527D01*
X1517700Y-10084917D01*
X1523034Y-10083850D01*
X1528216Y-10082326D01*
X1533296Y-10080447D01*
X1538122Y-10078161D01*
X1542796Y-10075468D01*
X1547266Y-10072370D01*
X1551482Y-10068864D01*
X1555445Y-10065004D01*
X1559153Y-10060787D01*
X1562506Y-10056164D01*
X1565605Y-10051237D01*
X1568348Y-10045903D01*
X1570685Y-10040213D01*
X1572666Y-10034168D01*
X1574241Y-10027818D01*
X1575409Y-10021112D01*
X1576120Y-10014102D01*
X1576374Y-10006787D01*
X1576120Y-9999370D01*
X1575409Y-9992309D01*
X1574241Y-9985603D01*
X1572666Y-9979202D01*
X1570685Y-9973157D01*
X1568348Y-9967468D01*
X1565605Y-9962134D01*
X1562506Y-9957155D01*
X1559153Y-9952532D01*
X1555445Y-9948265D01*
X1551482Y-9944404D01*
X1547266Y-9940899D01*
X1542796Y-9937851D01*
X1538122Y-9935108D01*
X1533296Y-9932822D01*
X1528216Y-9930942D01*
X1523034Y-9929418D01*
X1517700Y-9928352D01*
X1512265Y-9927742D01*
G37*
G36*
X1410766Y-9927539D02*
G01*
X1404416Y-9928098D01*
X1398320Y-9929774D01*
X1392428Y-9932466D01*
X1386840Y-9936124D01*
X1381556Y-9940696D01*
X1376629Y-9946030D01*
X1372108Y-9952177D01*
X1368044Y-9958984D01*
X1367028Y-9958984D01*
X1364996Y-9931298D01*
X1346454Y-9931298D01*
X1346454Y-10082174D01*
X1369060Y-10082174D01*
X1369060Y-9983876D01*
X1373225Y-9974783D01*
X1377746Y-9967163D01*
X1382522Y-9960965D01*
X1387551Y-9956088D01*
X1392682Y-9952431D01*
X1397863Y-9949992D01*
X1402994Y-9948519D01*
X1407972Y-9948113D01*
X1411935Y-9948214D01*
X1415338Y-9948672D01*
X1418640Y-9949484D01*
X1422146Y-9950653D01*
X1426718Y-9930790D01*
X1423009Y-9929215D01*
X1419199Y-9928199D01*
X1415186Y-9927691D01*
G37*
G36*
X2520188Y-9931298D02*
G01*
X2520188Y-10027056D01*
X2520391Y-10034117D01*
X2520899Y-10040670D01*
X2521712Y-10046817D01*
X2522931Y-10052558D01*
X2524455Y-10057790D01*
X2526385Y-10062616D01*
X2528620Y-10066985D01*
X2531262Y-10070896D01*
X2534259Y-10074351D01*
X2537612Y-10077348D01*
X2541371Y-10079939D01*
X2545486Y-10082022D01*
X2550007Y-10083647D01*
X2554935Y-10084816D01*
X2560218Y-10085527D01*
X2565908Y-10085781D01*
X2573578Y-10085222D01*
X2580690Y-10083749D01*
X2587345Y-10081361D01*
X2593644Y-10078110D01*
X2599639Y-10074097D01*
X2605328Y-10069372D01*
X2610866Y-10063988D01*
X2616250Y-10058095D01*
X2617266Y-10058095D01*
X2618994Y-10082174D01*
X2637790Y-10082174D01*
X2637790Y-9931298D01*
X2615234Y-9931298D01*
X2615234Y-10039553D01*
X2609748Y-10045903D01*
X2604516Y-10051389D01*
X2599436Y-10055910D01*
X2594356Y-10059568D01*
X2589276Y-10062413D01*
X2584043Y-10064394D01*
X2578608Y-10065562D01*
X2572816Y-10065918D01*
X2567736Y-10065664D01*
X2563164Y-10064851D01*
X2559100Y-10063530D01*
X2555544Y-10061600D01*
X2552446Y-10059060D01*
X2549804Y-10055961D01*
X2547620Y-10052253D01*
X2545842Y-10047935D01*
X2544521Y-10043007D01*
X2543556Y-10037419D01*
X2542997Y-10031171D01*
X2542794Y-10024313D01*
X2542794Y-9931298D01*
G37*
G36*
X1615186Y-9931298D02*
G01*
X1615186Y-10027056D01*
X1615389Y-10034117D01*
X1615897Y-10040670D01*
X1616710Y-10046817D01*
X1617929Y-10052558D01*
X1619504Y-10057790D01*
X1621383Y-10062616D01*
X1623669Y-10066985D01*
X1626311Y-10070896D01*
X1629308Y-10074351D01*
X1632661Y-10077348D01*
X1636471Y-10079939D01*
X1640586Y-10082022D01*
X1645157Y-10083647D01*
X1650085Y-10084816D01*
X1655419Y-10085527D01*
X1661160Y-10085781D01*
X1668729Y-10085222D01*
X1675790Y-10083749D01*
X1682445Y-10081361D01*
X1688693Y-10078110D01*
X1694688Y-10074097D01*
X1700428Y-10069372D01*
X1706016Y-10063988D01*
X1711452Y-10058095D01*
X1712264Y-10058095D01*
X1714246Y-10082174D01*
X1732838Y-10082174D01*
X1732838Y-9931298D01*
X1710232Y-9931298D01*
X1710232Y-10039553D01*
X1704746Y-10045903D01*
X1699514Y-10051389D01*
X1694434Y-10055910D01*
X1689354Y-10059568D01*
X1684274Y-10062413D01*
X1679041Y-10064394D01*
X1673606Y-10065562D01*
X1667814Y-10065918D01*
X1662734Y-10065664D01*
X1658162Y-10064851D01*
X1654098Y-10063530D01*
X1650542Y-10061600D01*
X1647443Y-10059060D01*
X1644802Y-10055961D01*
X1642618Y-10052253D01*
X1640839Y-10047935D01*
X1639519Y-10043007D01*
X1638554Y-10037419D01*
X1637995Y-10031171D01*
X1637842Y-10024313D01*
X1637842Y-9931298D01*
G37*
G36*
X5851448Y-11169345D02*
G01*
X5844692Y-11169599D01*
X5838190Y-11170361D01*
X5831992Y-11171580D01*
X5826099Y-11173307D01*
X5820562Y-11175441D01*
X5815330Y-11178032D01*
X5810504Y-11181029D01*
X5806084Y-11184382D01*
X5802071Y-11188141D01*
X5798566Y-11192205D01*
X5795467Y-11196624D01*
X5792927Y-11201349D01*
X5790895Y-11206378D01*
X5789371Y-11211661D01*
X5788507Y-11217148D01*
X5788202Y-11222939D01*
X5788609Y-11230000D01*
X5789930Y-11236502D01*
X5792012Y-11242395D01*
X5794756Y-11247729D01*
X5798058Y-11252555D01*
X5801868Y-11256924D01*
X5806084Y-11260785D01*
X5810554Y-11264290D01*
X5815279Y-11267389D01*
X5820156Y-11270132D01*
X5829808Y-11274755D01*
X5866434Y-11291112D01*
X5873038Y-11294364D01*
X5878982Y-11297869D01*
X5884164Y-11301780D01*
X5888431Y-11306302D01*
X5891631Y-11311636D01*
X5893663Y-11317986D01*
X5894324Y-11325555D01*
X5894019Y-11330635D01*
X5892952Y-11335461D01*
X5891276Y-11339931D01*
X5888888Y-11344046D01*
X5885942Y-11347754D01*
X5882335Y-11351107D01*
X5878169Y-11353952D01*
X5873445Y-11356390D01*
X5868212Y-11358270D01*
X5862421Y-11359692D01*
X5856122Y-11360556D01*
X5849416Y-11360861D01*
X5843981Y-11360607D01*
X5838596Y-11359997D01*
X5833313Y-11358981D01*
X5828131Y-11357610D01*
X5823051Y-11355882D01*
X5818124Y-11353800D01*
X5813298Y-11351361D01*
X5808675Y-11348669D01*
X5804204Y-11345621D01*
X5799937Y-11342319D01*
X5795822Y-11338763D01*
X5791962Y-11334953D01*
X5777992Y-11350650D01*
X5782614Y-11355222D01*
X5787440Y-11359438D01*
X5792520Y-11363350D01*
X5797854Y-11366957D01*
X5803442Y-11370157D01*
X5809284Y-11372951D01*
X5815380Y-11375390D01*
X5821680Y-11377422D01*
X5828182Y-11379047D01*
X5834938Y-11380216D01*
X5841949Y-11380927D01*
X5849112Y-11381181D01*
X5856833Y-11380876D01*
X5864199Y-11380012D01*
X5871108Y-11378641D01*
X5877661Y-11376710D01*
X5883706Y-11374323D01*
X5889345Y-11371529D01*
X5894527Y-11368227D01*
X5899251Y-11364569D01*
X5903417Y-11360556D01*
X5907125Y-11356136D01*
X5910326Y-11351463D01*
X5912916Y-11346434D01*
X5914999Y-11341150D01*
X5916523Y-11335664D01*
X5917387Y-11329924D01*
X5917692Y-11324031D01*
X5917336Y-11316716D01*
X5916218Y-11310061D01*
X5914390Y-11304016D01*
X5911951Y-11298529D01*
X5908954Y-11293551D01*
X5905347Y-11289030D01*
X5901283Y-11284966D01*
X5896813Y-11281206D01*
X5891885Y-11277803D01*
X5886653Y-11274704D01*
X5881116Y-11271808D01*
X5875274Y-11269116D01*
X5845556Y-11256721D01*
X5833719Y-11251184D01*
X5827979Y-11247932D01*
X5822746Y-11244173D01*
X5818225Y-11239754D01*
X5814669Y-11234521D01*
X5812383Y-11228374D01*
X5811570Y-11221161D01*
X5812282Y-11214252D01*
X5814415Y-11208105D01*
X5817870Y-11202771D01*
X5822543Y-11198250D01*
X5828334Y-11194694D01*
X5835142Y-11192052D01*
X5842863Y-11190427D01*
X5851448Y-11189868D01*
X5858560Y-11190224D01*
X5865266Y-11191290D01*
X5871616Y-11192916D01*
X5877560Y-11195202D01*
X5883249Y-11197996D01*
X5888583Y-11201349D01*
X5893612Y-11205159D01*
X5898388Y-11209426D01*
X5910884Y-11194745D01*
X5907227Y-11191087D01*
X5903315Y-11187633D01*
X5899099Y-11184432D01*
X5894679Y-11181486D01*
X5889955Y-11178794D01*
X5885027Y-11176406D01*
X5879896Y-11174323D01*
X5874562Y-11172596D01*
X5869025Y-11171174D01*
X5863336Y-11170158D01*
X5857443Y-11169548D01*
G37*
G36*
X5478526Y-11169345D02*
G01*
X5472836Y-11169548D01*
X5467299Y-11170158D01*
X5461965Y-11171174D01*
X5456885Y-11172545D01*
X5451957Y-11174222D01*
X5447233Y-11176254D01*
X5442661Y-11178540D01*
X5438241Y-11181080D01*
X5434025Y-11183874D01*
X5425998Y-11190071D01*
X5422138Y-11193424D01*
X5434634Y-11208156D01*
X5439156Y-11203940D01*
X5443931Y-11200130D01*
X5449011Y-11196675D01*
X5454294Y-11193729D01*
X5459831Y-11191341D01*
X5465622Y-11189512D01*
X5471617Y-11188344D01*
X5477814Y-11187887D01*
X5485688Y-11188547D01*
X5492699Y-11190427D01*
X5498846Y-11193373D01*
X5503976Y-11197336D01*
X5508091Y-11202212D01*
X5511139Y-11207953D01*
X5512968Y-11214455D01*
X5513578Y-11221618D01*
X5513273Y-11227257D01*
X5512308Y-11232591D01*
X5510580Y-11237620D01*
X5508142Y-11242344D01*
X5504891Y-11246662D01*
X5500776Y-11250523D01*
X5495798Y-11253927D01*
X5489854Y-11256822D01*
X5482945Y-11259159D01*
X5475020Y-11260836D01*
X5466029Y-11261902D01*
X5455970Y-11262258D01*
X5455970Y-11280089D01*
X5464505Y-11280241D01*
X5472379Y-11280851D01*
X5479542Y-11281816D01*
X5486095Y-11283137D01*
X5492038Y-11284762D01*
X5497322Y-11286794D01*
X5501995Y-11289080D01*
X5506161Y-11291722D01*
X5509717Y-11294618D01*
X5512765Y-11297818D01*
X5515254Y-11301323D01*
X5517286Y-11305032D01*
X5518810Y-11308994D01*
X5519877Y-11313210D01*
X5520486Y-11317630D01*
X5520690Y-11322253D01*
X5520334Y-11328196D01*
X5519267Y-11333734D01*
X5517540Y-11338864D01*
X5515203Y-11343538D01*
X5512206Y-11347704D01*
X5508701Y-11351412D01*
X5504688Y-11354612D01*
X5500166Y-11357254D01*
X5495188Y-11359337D01*
X5489854Y-11360861D01*
X5484114Y-11361775D01*
X5478068Y-11362131D01*
X5469331Y-11361572D01*
X5461355Y-11360150D01*
X5454142Y-11357864D01*
X5447588Y-11354866D01*
X5441543Y-11351310D01*
X5436057Y-11347297D01*
X5430977Y-11342979D01*
X5426252Y-11338458D01*
X5414568Y-11353190D01*
X5417972Y-11356746D01*
X5425795Y-11363604D01*
X5430164Y-11366804D01*
X5434888Y-11369751D01*
X5439968Y-11372545D01*
X5445455Y-11374983D01*
X5451348Y-11377066D01*
X5457647Y-11378793D01*
X5464403Y-11380063D01*
X5471617Y-11380876D01*
X5479288Y-11381181D01*
X5485942Y-11380876D01*
X5492343Y-11380165D01*
X5498541Y-11378895D01*
X5504484Y-11377168D01*
X5510072Y-11374983D01*
X5515406Y-11372342D01*
X5520334Y-11369243D01*
X5524855Y-11365738D01*
X5529021Y-11361775D01*
X5532678Y-11357406D01*
X5535879Y-11352682D01*
X5538571Y-11347500D01*
X5540705Y-11341963D01*
X5542280Y-11336070D01*
X5543245Y-11329822D01*
X5543600Y-11323218D01*
X5543194Y-11316360D01*
X5542026Y-11309858D01*
X5540146Y-11303863D01*
X5537606Y-11298275D01*
X5534507Y-11293144D01*
X5530799Y-11288522D01*
X5526633Y-11284356D01*
X5522010Y-11280648D01*
X5516981Y-11277447D01*
X5511647Y-11274755D01*
X5506008Y-11272570D01*
X5500166Y-11270945D01*
X5500166Y-11269624D01*
X5505450Y-11267541D01*
X5510428Y-11265103D01*
X5515051Y-11262258D01*
X5519318Y-11259058D01*
X5523179Y-11255502D01*
X5526633Y-11251539D01*
X5529580Y-11247221D01*
X5532069Y-11242548D01*
X5534050Y-11237518D01*
X5535523Y-11232083D01*
X5536438Y-11226292D01*
X5536692Y-11220145D01*
X5536438Y-11214252D01*
X5535574Y-11208664D01*
X5534202Y-11203432D01*
X5532323Y-11198555D01*
X5529986Y-11194034D01*
X5527141Y-11189868D01*
X5523890Y-11186058D01*
X5520232Y-11182604D01*
X5516118Y-11179556D01*
X5511698Y-11176863D01*
X5506923Y-11174628D01*
X5501792Y-11172698D01*
X5496356Y-11171224D01*
X5490667Y-11170158D01*
X5484723Y-11169548D01*
G37*
G36*
X5249672Y-11169345D02*
G01*
X5243982Y-11169548D01*
X5238445Y-11170158D01*
X5233111Y-11171174D01*
X5228031Y-11172545D01*
X5223103Y-11174222D01*
X5218379Y-11176254D01*
X5213807Y-11178540D01*
X5209387Y-11181080D01*
X5205171Y-11183874D01*
X5197144Y-11190071D01*
X5193334Y-11193424D01*
X5206034Y-11208156D01*
X5210454Y-11203940D01*
X5215178Y-11200130D01*
X5220208Y-11196675D01*
X5225491Y-11193729D01*
X5230977Y-11191341D01*
X5236768Y-11189512D01*
X5242763Y-11188344D01*
X5248910Y-11187887D01*
X5256834Y-11188547D01*
X5263845Y-11190427D01*
X5269992Y-11193373D01*
X5275122Y-11197336D01*
X5279237Y-11202212D01*
X5282285Y-11207953D01*
X5284114Y-11214455D01*
X5284724Y-11221618D01*
X5284419Y-11227257D01*
X5283454Y-11232591D01*
X5281726Y-11237620D01*
X5279288Y-11242344D01*
X5276037Y-11246662D01*
X5271922Y-11250523D01*
X5266944Y-11253927D01*
X5261000Y-11256822D01*
X5254091Y-11259159D01*
X5246166Y-11260836D01*
X5237175Y-11261902D01*
X5227116Y-11262258D01*
X5227116Y-11280089D01*
X5235651Y-11280241D01*
X5243525Y-11280851D01*
X5250688Y-11281816D01*
X5257241Y-11283137D01*
X5263184Y-11284762D01*
X5268468Y-11286794D01*
X5273141Y-11289080D01*
X5277307Y-11291722D01*
X5280863Y-11294618D01*
X5283911Y-11297818D01*
X5286400Y-11301323D01*
X5288432Y-11305032D01*
X5289956Y-11308994D01*
X5291023Y-11313210D01*
X5291632Y-11317630D01*
X5291886Y-11322253D01*
X5291480Y-11328196D01*
X5290413Y-11333734D01*
X5288686Y-11338864D01*
X5286349Y-11343538D01*
X5283352Y-11347704D01*
X5279847Y-11351412D01*
X5275834Y-11354612D01*
X5271312Y-11357254D01*
X5266334Y-11359337D01*
X5261000Y-11360861D01*
X5255260Y-11361775D01*
X5249214Y-11362131D01*
X5240477Y-11361572D01*
X5232501Y-11360150D01*
X5225288Y-11357864D01*
X5218734Y-11354866D01*
X5212740Y-11351310D01*
X5207304Y-11347297D01*
X5202275Y-11342979D01*
X5197652Y-11338458D01*
X5185714Y-11353190D01*
X5189118Y-11356746D01*
X5196941Y-11363604D01*
X5201310Y-11366804D01*
X5206034Y-11369751D01*
X5211114Y-11372545D01*
X5216601Y-11374983D01*
X5222494Y-11377066D01*
X5228793Y-11378793D01*
X5235549Y-11380063D01*
X5242763Y-11380876D01*
X5250484Y-11381181D01*
X5257088Y-11380876D01*
X5263489Y-11380165D01*
X5269687Y-11378895D01*
X5275630Y-11377168D01*
X5281269Y-11374983D01*
X5286603Y-11372342D01*
X5291582Y-11369243D01*
X5296154Y-11365738D01*
X5300319Y-11361775D01*
X5304028Y-11357406D01*
X5307228Y-11352682D01*
X5309920Y-11347500D01*
X5312105Y-11341963D01*
X5313680Y-11336070D01*
X5314645Y-11329822D01*
X5315000Y-11323218D01*
X5314594Y-11316360D01*
X5313375Y-11309858D01*
X5311495Y-11303863D01*
X5308955Y-11298275D01*
X5305806Y-11293144D01*
X5302097Y-11288522D01*
X5297881Y-11284356D01*
X5293207Y-11280648D01*
X5288178Y-11277447D01*
X5282793Y-11274755D01*
X5277154Y-11272570D01*
X5271262Y-11270945D01*
X5271262Y-11269624D01*
X5276596Y-11267541D01*
X5281574Y-11265103D01*
X5286197Y-11262258D01*
X5290464Y-11259058D01*
X5294325Y-11255502D01*
X5297779Y-11251539D01*
X5300726Y-11247221D01*
X5303215Y-11242548D01*
X5305196Y-11237518D01*
X5306669Y-11232083D01*
X5307584Y-11226292D01*
X5307838Y-11220145D01*
X5307584Y-11214252D01*
X5306720Y-11208664D01*
X5305348Y-11203432D01*
X5303469Y-11198555D01*
X5301132Y-11194034D01*
X5298287Y-11189868D01*
X5295036Y-11186058D01*
X5291328Y-11182604D01*
X5287264Y-11179556D01*
X5282844Y-11176863D01*
X5278069Y-11174628D01*
X5272938Y-11172698D01*
X5267502Y-11171224D01*
X5261813Y-11170158D01*
X5255869Y-11169548D01*
G37*
G36*
X4685334Y-11173155D02*
G01*
X4751120Y-11377574D01*
X4777536Y-11377574D01*
X4843068Y-11173155D01*
X4819446Y-11173155D01*
X4780381Y-11303406D01*
X4770729Y-11336274D01*
X4765294Y-11353495D01*
X4764024Y-11353495D01*
X4757115Y-11330736D01*
X4749139Y-11303406D01*
X4709718Y-11173155D01*
G37*
G36*
X6586474Y-11222939D02*
G01*
X6581292Y-11223142D01*
X6576161Y-11223802D01*
X6571081Y-11224920D01*
X6566153Y-11226495D01*
X6561277Y-11228425D01*
X6556603Y-11230813D01*
X6552082Y-11233607D01*
X6547764Y-11236756D01*
X6543649Y-11240312D01*
X6539788Y-11244275D01*
X6536181Y-11248542D01*
X6532880Y-11253216D01*
X6529831Y-11258194D01*
X6527139Y-11263528D01*
X6524802Y-11269218D01*
X6522872Y-11275212D01*
X6521297Y-11281511D01*
X6519881Y-11290503D01*
X6541566Y-11290503D01*
X6542633Y-11282984D01*
X6544411Y-11276076D01*
X6546748Y-11269726D01*
X6549644Y-11263934D01*
X6553047Y-11258753D01*
X6556908Y-11254232D01*
X6561175Y-11250320D01*
X6565798Y-11247069D01*
X6570675Y-11244529D01*
X6575856Y-11242700D01*
X6581241Y-11241582D01*
X6586728Y-11241176D01*
X6592722Y-11241532D01*
X6598208Y-11242598D01*
X6603238Y-11244376D01*
X6607860Y-11246815D01*
X6611924Y-11249914D01*
X6615531Y-11253724D01*
X6618630Y-11258245D01*
X6621221Y-11263376D01*
X6623202Y-11269167D01*
X6624675Y-11275618D01*
X6625590Y-11282730D01*
X6625844Y-11290503D01*
X6519881Y-11290503D01*
X6519418Y-11294973D01*
X6519214Y-11302187D01*
X6519418Y-11309451D01*
X6520129Y-11316462D01*
X6521246Y-11323167D01*
X6522821Y-11329517D01*
X6524752Y-11335512D01*
X6527139Y-11341201D01*
X6529831Y-11346484D01*
X6532880Y-11351463D01*
X6536283Y-11356086D01*
X6539992Y-11360353D01*
X6544005Y-11364214D01*
X6548323Y-11367668D01*
X6552895Y-11370767D01*
X6557670Y-11373510D01*
X6562699Y-11375796D01*
X6567931Y-11377726D01*
X6573367Y-11379200D01*
X6578955Y-11380266D01*
X6584696Y-11380927D01*
X6590538Y-11381181D01*
X6598208Y-11380825D01*
X6605320Y-11379962D01*
X6612026Y-11378539D01*
X6618274Y-11376660D01*
X6624167Y-11374424D01*
X6629755Y-11371834D01*
X6635038Y-11368989D01*
X6640118Y-11365890D01*
X6631736Y-11350650D01*
X6627469Y-11353393D01*
X6623100Y-11355832D01*
X6618528Y-11357965D01*
X6613855Y-11359743D01*
X6609029Y-11361216D01*
X6604000Y-11362232D01*
X6598767Y-11362893D01*
X6593382Y-11363147D01*
X6587794Y-11362842D01*
X6582511Y-11362080D01*
X6577482Y-11360861D01*
X6572707Y-11359083D01*
X6568236Y-11356898D01*
X6564071Y-11354257D01*
X6560261Y-11351209D01*
X6556705Y-11347754D01*
X6553555Y-11343894D01*
X6550710Y-11339677D01*
X6548221Y-11335054D01*
X6546138Y-11330127D01*
X6544411Y-11324844D01*
X6543141Y-11319256D01*
X6542227Y-11313414D01*
X6541820Y-11307216D01*
X6644894Y-11307216D01*
X6645402Y-11304320D01*
X6645859Y-11297310D01*
X6645757Y-11287099D01*
X6645300Y-11280952D01*
X6644487Y-11275009D01*
X6643370Y-11269421D01*
X6641947Y-11264087D01*
X6640220Y-11259007D01*
X6638188Y-11254232D01*
X6635851Y-11249812D01*
X6633209Y-11245646D01*
X6630314Y-11241836D01*
X6627114Y-11238331D01*
X6623659Y-11235182D01*
X6619900Y-11232388D01*
X6615938Y-11229898D01*
X6611620Y-11227816D01*
X6607098Y-11226088D01*
X6602323Y-11224717D01*
X6597294Y-11223701D01*
X6592011Y-11223091D01*
G37*
G36*
X6455968Y-11222939D02*
G01*
X6450228Y-11223142D01*
X6444589Y-11223752D01*
X6439103Y-11224818D01*
X6433718Y-11226342D01*
X6428536Y-11228222D01*
X6423507Y-11230508D01*
X6418681Y-11233251D01*
X6414058Y-11236350D01*
X6409690Y-11239804D01*
X6405626Y-11243665D01*
X6401816Y-11247932D01*
X6398310Y-11252555D01*
X6395161Y-11257534D01*
X6392316Y-11262868D01*
X6389878Y-11268557D01*
X6387846Y-11274602D01*
X6386220Y-11281003D01*
X6385052Y-11287709D01*
X6384290Y-11294770D01*
X6384086Y-11302187D01*
X6384290Y-11309502D01*
X6384950Y-11316512D01*
X6386068Y-11323218D01*
X6387541Y-11329568D01*
X6389420Y-11335613D01*
X6391706Y-11341303D01*
X6394348Y-11346637D01*
X6397345Y-11351564D01*
X6400647Y-11356187D01*
X6404254Y-11360404D01*
X6408166Y-11364264D01*
X6412382Y-11367770D01*
X6416852Y-11370868D01*
X6421526Y-11373561D01*
X6426504Y-11375847D01*
X6431635Y-11377726D01*
X6437020Y-11379250D01*
X6442557Y-11380317D01*
X6448298Y-11380927D01*
X6454140Y-11381181D01*
X6461048Y-11380825D01*
X6467703Y-11379860D01*
X6474206Y-11378285D01*
X6480454Y-11376050D01*
X6486499Y-11373307D01*
X6492240Y-11370005D01*
X6497726Y-11366195D01*
X6502907Y-11361826D01*
X6492798Y-11346840D01*
X6489090Y-11349939D01*
X6485077Y-11352784D01*
X6480810Y-11355374D01*
X6476288Y-11357610D01*
X6471564Y-11359489D01*
X6466586Y-11360912D01*
X6461455Y-11361775D01*
X6456172Y-11362131D01*
X6450888Y-11361826D01*
X6445808Y-11361013D01*
X6440982Y-11359642D01*
X6436410Y-11357813D01*
X6432092Y-11355476D01*
X6428130Y-11352631D01*
X6424422Y-11349380D01*
X6421069Y-11345672D01*
X6418072Y-11341506D01*
X6415379Y-11336985D01*
X6413093Y-11332057D01*
X6411214Y-11326723D01*
X6409690Y-11321084D01*
X6408572Y-11315090D01*
X6407912Y-11308791D01*
X6407658Y-11302187D01*
X6407912Y-11295583D01*
X6408623Y-11289284D01*
X6409791Y-11283289D01*
X6411366Y-11277650D01*
X6413398Y-11272316D01*
X6415735Y-11267389D01*
X6418529Y-11262817D01*
X6421628Y-11258651D01*
X6425082Y-11254892D01*
X6428790Y-11251590D01*
X6432854Y-11248694D01*
X6437172Y-11246358D01*
X6441694Y-11244427D01*
X6446520Y-11243106D01*
X6451498Y-11242243D01*
X6456730Y-11241989D01*
X6465671Y-11243005D01*
X6473748Y-11245850D01*
X6481114Y-11250218D01*
X6487922Y-11255705D01*
X6500164Y-11240922D01*
X6495999Y-11237417D01*
X6491528Y-11234064D01*
X6486702Y-11231016D01*
X6481470Y-11228324D01*
X6475831Y-11226088D01*
X6469684Y-11224361D01*
X6463080Y-11223294D01*
G37*
G36*
X6357416Y-11222939D02*
G01*
X6351066Y-11223498D01*
X6344970Y-11225174D01*
X6339078Y-11227866D01*
X6333439Y-11231524D01*
X6328156Y-11236096D01*
X6323177Y-11241430D01*
X6318605Y-11247577D01*
X6314440Y-11254384D01*
X6313678Y-11254384D01*
X6311392Y-11226698D01*
X6293154Y-11226698D01*
X6293154Y-11377574D01*
X6315710Y-11377574D01*
X6315710Y-11279276D01*
X6319774Y-11270183D01*
X6324295Y-11262563D01*
X6329070Y-11256365D01*
X6334099Y-11251488D01*
X6339281Y-11247831D01*
X6344513Y-11245392D01*
X6349644Y-11243919D01*
X6354572Y-11243513D01*
X6358585Y-11243614D01*
X6361988Y-11244072D01*
X6365290Y-11244884D01*
X6368846Y-11246053D01*
X6373164Y-11226190D01*
X6369558Y-11224615D01*
X6365849Y-11223599D01*
X6361836Y-11223091D01*
G37*
G36*
X6014212Y-11222939D02*
G01*
X6008725Y-11223142D01*
X6003340Y-11223752D01*
X5998057Y-11224818D01*
X5992876Y-11226342D01*
X5987846Y-11228222D01*
X5983020Y-11230508D01*
X5978347Y-11233251D01*
X5973927Y-11236350D01*
X5969711Y-11239804D01*
X5965748Y-11243665D01*
X5962091Y-11247932D01*
X5958687Y-11252555D01*
X5955639Y-11257534D01*
X5952896Y-11262868D01*
X5950559Y-11268557D01*
X5948578Y-11274602D01*
X5947003Y-11281003D01*
X5945835Y-11287709D01*
X5945124Y-11294770D01*
X5944920Y-11302187D01*
X5968238Y-11302187D01*
X5968492Y-11295583D01*
X5969101Y-11289284D01*
X5970168Y-11283289D01*
X5971641Y-11277650D01*
X5973470Y-11272316D01*
X5975654Y-11267389D01*
X5978194Y-11262817D01*
X5981039Y-11258651D01*
X5984240Y-11254892D01*
X5987745Y-11251590D01*
X5991555Y-11248694D01*
X5995568Y-11246358D01*
X5999886Y-11244427D01*
X6004458Y-11243106D01*
X6009233Y-11242243D01*
X6014212Y-11241989D01*
X6019190Y-11242243D01*
X6023965Y-11243106D01*
X6028486Y-11244427D01*
X6032804Y-11246358D01*
X6036818Y-11248694D01*
X6040628Y-11251590D01*
X6044133Y-11254892D01*
X6047333Y-11258651D01*
X6050229Y-11262817D01*
X6052769Y-11267389D01*
X6054953Y-11272316D01*
X6056833Y-11277650D01*
X6058255Y-11283289D01*
X6059322Y-11289284D01*
X6059982Y-11295583D01*
X6060236Y-11302187D01*
X6059982Y-11308791D01*
X6059322Y-11315090D01*
X6058255Y-11321084D01*
X6056833Y-11326723D01*
X6054953Y-11332057D01*
X6052769Y-11336985D01*
X6050229Y-11341506D01*
X6047333Y-11345672D01*
X6044133Y-11349380D01*
X6040628Y-11352631D01*
X6036818Y-11355476D01*
X6032804Y-11357813D01*
X6028486Y-11359642D01*
X6023965Y-11361013D01*
X6019190Y-11361826D01*
X6014212Y-11362131D01*
X6009233Y-11361826D01*
X6004458Y-11361013D01*
X5999886Y-11359642D01*
X5995568Y-11357813D01*
X5991555Y-11355476D01*
X5987745Y-11352631D01*
X5984240Y-11349380D01*
X5981039Y-11345672D01*
X5978194Y-11341506D01*
X5975654Y-11336985D01*
X5973470Y-11332057D01*
X5971641Y-11326723D01*
X5970168Y-11321084D01*
X5969101Y-11315090D01*
X5968492Y-11308791D01*
X5968238Y-11302187D01*
X5944920Y-11302187D01*
X5945124Y-11309502D01*
X5945835Y-11316512D01*
X5947003Y-11323218D01*
X5948578Y-11329568D01*
X5950559Y-11335613D01*
X5952896Y-11341303D01*
X5955639Y-11346637D01*
X5958687Y-11351564D01*
X5962091Y-11356187D01*
X5965748Y-11360404D01*
X5969711Y-11364264D01*
X5973927Y-11367770D01*
X5978347Y-11370868D01*
X5983020Y-11373561D01*
X5987846Y-11375847D01*
X5992876Y-11377726D01*
X5998057Y-11379250D01*
X6003340Y-11380317D01*
X6008725Y-11380927D01*
X6014212Y-11381181D01*
X6019749Y-11380927D01*
X6025134Y-11380317D01*
X6030417Y-11379250D01*
X6035598Y-11377726D01*
X6040628Y-11375847D01*
X6045504Y-11373561D01*
X6050178Y-11370868D01*
X6054648Y-11367770D01*
X6058865Y-11364264D01*
X6062827Y-11360404D01*
X6066536Y-11356187D01*
X6069939Y-11351564D01*
X6073038Y-11346637D01*
X6075781Y-11341303D01*
X6078118Y-11335613D01*
X6080150Y-11329568D01*
X6081725Y-11323218D01*
X6082893Y-11316512D01*
X6083604Y-11309502D01*
X6083808Y-11302187D01*
X6083604Y-11294770D01*
X6082893Y-11287709D01*
X6081725Y-11281003D01*
X6080150Y-11274602D01*
X6078118Y-11268557D01*
X6075781Y-11262868D01*
X6073038Y-11257534D01*
X6069939Y-11252555D01*
X6066536Y-11247932D01*
X6062827Y-11243665D01*
X6058865Y-11239804D01*
X6054648Y-11236299D01*
X6050178Y-11233251D01*
X6045504Y-11230508D01*
X6040628Y-11228222D01*
X6035598Y-11226342D01*
X6030417Y-11224818D01*
X6025134Y-11223752D01*
X6019749Y-11223142D01*
G37*
G36*
X5060188Y-11222939D02*
G01*
X5054549Y-11223142D01*
X5048961Y-11223752D01*
X5043474Y-11224818D01*
X5038140Y-11226342D01*
X5032959Y-11228222D01*
X5027930Y-11230508D01*
X5023154Y-11233251D01*
X5018532Y-11236350D01*
X5014214Y-11239804D01*
X5010099Y-11243665D01*
X5006340Y-11247932D01*
X5002834Y-11252555D01*
X4999685Y-11257534D01*
X4996840Y-11262868D01*
X4994402Y-11268557D01*
X4992370Y-11274602D01*
X4990744Y-11281003D01*
X4989576Y-11287709D01*
X4988814Y-11294770D01*
X4988560Y-11302187D01*
X4988814Y-11309502D01*
X4989474Y-11316512D01*
X4990592Y-11323218D01*
X4992065Y-11329568D01*
X4993944Y-11335613D01*
X4996230Y-11341303D01*
X4998872Y-11346637D01*
X5001869Y-11351564D01*
X5005171Y-11356187D01*
X5008778Y-11360404D01*
X5012690Y-11364264D01*
X5016906Y-11367770D01*
X5021376Y-11370868D01*
X5026050Y-11373561D01*
X5031028Y-11375847D01*
X5036159Y-11377726D01*
X5041544Y-11379250D01*
X5047081Y-11380317D01*
X5052822Y-11380927D01*
X5058714Y-11381181D01*
X5065471Y-11380825D01*
X5072075Y-11379860D01*
X5078526Y-11378285D01*
X5084775Y-11376050D01*
X5090769Y-11373307D01*
X5096510Y-11370005D01*
X5101996Y-11366195D01*
X5107178Y-11361826D01*
X5097272Y-11346840D01*
X5093512Y-11349939D01*
X5089499Y-11352784D01*
X5085232Y-11355374D01*
X5080711Y-11357610D01*
X5075986Y-11359489D01*
X5071059Y-11360912D01*
X5065979Y-11361775D01*
X5060746Y-11362131D01*
X5055362Y-11361826D01*
X5050231Y-11361013D01*
X5045354Y-11359642D01*
X5040782Y-11357813D01*
X5036464Y-11355476D01*
X5032451Y-11352631D01*
X5028742Y-11349380D01*
X5025390Y-11345672D01*
X5022342Y-11341506D01*
X5019700Y-11336985D01*
X5017363Y-11332057D01*
X5015484Y-11326723D01*
X5013960Y-11321084D01*
X5012842Y-11315090D01*
X5012182Y-11308791D01*
X5011928Y-11302187D01*
X5012182Y-11295583D01*
X5012893Y-11289284D01*
X5014061Y-11283289D01*
X5015687Y-11277650D01*
X5017719Y-11272316D01*
X5020106Y-11267389D01*
X5022900Y-11262817D01*
X5025999Y-11258651D01*
X5029454Y-11254892D01*
X5033264Y-11251590D01*
X5037328Y-11248694D01*
X5041646Y-11246358D01*
X5046218Y-11244427D01*
X5050993Y-11243106D01*
X5056022Y-11242243D01*
X5061254Y-11241989D01*
X5070094Y-11243005D01*
X5078171Y-11245850D01*
X5085588Y-11250218D01*
X5092496Y-11255705D01*
X5104434Y-11240922D01*
X5100269Y-11237417D01*
X5095798Y-11234064D01*
X5090972Y-11231016D01*
X5085740Y-11228324D01*
X5080101Y-11226088D01*
X5073954Y-11224361D01*
X5067350Y-11223294D01*
G37*
G36*
X4925364Y-11222939D02*
G01*
X4919624Y-11223142D01*
X4913985Y-11223752D01*
X4908499Y-11224818D01*
X4903114Y-11226342D01*
X4897932Y-11228222D01*
X4892903Y-11230508D01*
X4888077Y-11233251D01*
X4883454Y-11236350D01*
X4879086Y-11239804D01*
X4875022Y-11243665D01*
X4871212Y-11247932D01*
X4867706Y-11252555D01*
X4864557Y-11257534D01*
X4861712Y-11262868D01*
X4859274Y-11268557D01*
X4857242Y-11274602D01*
X4855616Y-11281003D01*
X4854448Y-11287709D01*
X4853686Y-11294770D01*
X4853482Y-11302187D01*
X4853686Y-11309502D01*
X4854346Y-11316512D01*
X4855464Y-11323218D01*
X4856937Y-11329568D01*
X4858816Y-11335613D01*
X4861102Y-11341303D01*
X4863744Y-11346637D01*
X4866741Y-11351564D01*
X4870043Y-11356187D01*
X4873650Y-11360404D01*
X4877562Y-11364264D01*
X4881778Y-11367770D01*
X4886248Y-11370868D01*
X4890922Y-11373561D01*
X4895900Y-11375847D01*
X4901031Y-11377726D01*
X4906416Y-11379250D01*
X4911953Y-11380317D01*
X4917694Y-11380927D01*
X4923586Y-11381181D01*
X4930444Y-11380825D01*
X4937099Y-11379860D01*
X4943602Y-11378285D01*
X4949850Y-11376050D01*
X4955895Y-11373307D01*
X4961636Y-11370005D01*
X4967122Y-11366195D01*
X4972354Y-11361826D01*
X4962144Y-11346840D01*
X4958486Y-11349939D01*
X4954473Y-11352784D01*
X4950206Y-11355374D01*
X4945684Y-11357610D01*
X4940960Y-11359489D01*
X4935982Y-11360912D01*
X4930851Y-11361775D01*
X4925618Y-11362131D01*
X4920284Y-11361826D01*
X4915204Y-11361013D01*
X4910378Y-11359642D01*
X4905806Y-11357813D01*
X4901488Y-11355476D01*
X4897526Y-11352631D01*
X4893818Y-11349380D01*
X4890465Y-11345672D01*
X4887468Y-11341506D01*
X4884775Y-11336985D01*
X4882489Y-11332057D01*
X4880610Y-11326723D01*
X4879086Y-11321084D01*
X4877968Y-11315090D01*
X4877308Y-11308791D01*
X4877104Y-11302187D01*
X4877308Y-11295583D01*
X4878019Y-11289284D01*
X4879187Y-11283289D01*
X4880762Y-11277650D01*
X4882794Y-11272316D01*
X4885131Y-11267389D01*
X4887925Y-11262817D01*
X4891024Y-11258651D01*
X4894478Y-11254892D01*
X4898186Y-11251590D01*
X4902250Y-11248694D01*
X4906568Y-11246358D01*
X4911090Y-11244427D01*
X4915916Y-11243106D01*
X4920894Y-11242243D01*
X4926076Y-11241989D01*
X4935118Y-11243005D01*
X4943195Y-11245850D01*
X4950612Y-11250218D01*
X4957572Y-11255705D01*
X4969510Y-11240922D01*
X4965395Y-11237417D01*
X4960924Y-11234064D01*
X4956098Y-11231016D01*
X4950866Y-11228324D01*
X4945227Y-11226088D01*
X4939080Y-11224361D01*
X4932476Y-11223294D01*
G37*
G36*
X6122720Y-11226698D02*
G01*
X6122720Y-11322456D01*
X6122873Y-11329517D01*
X6123381Y-11336070D01*
X6124194Y-11342217D01*
X6125413Y-11347958D01*
X6126937Y-11353190D01*
X6128867Y-11358016D01*
X6131102Y-11362385D01*
X6133744Y-11366296D01*
X6136741Y-11369751D01*
X6140094Y-11372748D01*
X6143853Y-11375339D01*
X6147968Y-11377422D01*
X6152489Y-11379047D01*
X6157417Y-11380216D01*
X6162700Y-11380927D01*
X6168390Y-11381181D01*
X6176060Y-11380622D01*
X6183172Y-11379149D01*
X6189827Y-11376761D01*
X6196126Y-11373510D01*
X6202121Y-11369497D01*
X6207810Y-11364772D01*
X6213348Y-11359388D01*
X6218732Y-11353495D01*
X6219444Y-11353495D01*
X6221476Y-11377574D01*
X6240272Y-11377574D01*
X6240272Y-11226698D01*
X6217716Y-11226698D01*
X6217716Y-11334953D01*
X6212128Y-11341303D01*
X6206845Y-11346789D01*
X6201714Y-11351310D01*
X6196634Y-11354968D01*
X6191554Y-11357813D01*
X6186271Y-11359794D01*
X6180836Y-11360962D01*
X6174994Y-11361318D01*
X6170015Y-11361064D01*
X6165494Y-11360251D01*
X6161481Y-11358930D01*
X6157925Y-11357000D01*
X6154877Y-11354460D01*
X6152235Y-11351361D01*
X6150051Y-11347653D01*
X6148324Y-11343335D01*
X6147003Y-11338407D01*
X6146038Y-11332819D01*
X6145479Y-11326571D01*
X6145276Y-11319713D01*
X6145276Y-11226698D01*
G37*
G36*
X5563108Y-11226698D02*
G01*
X5618226Y-11377574D01*
X5644946Y-11377574D01*
X5698744Y-11226698D01*
X5676392Y-11226698D01*
X5646470Y-11314379D01*
X5641340Y-11331244D01*
X5632246Y-11358829D01*
X5631230Y-11358829D01*
X5622086Y-11331244D01*
X5616956Y-11314379D01*
X5587034Y-11226698D01*
G37*
G36*
X5368290Y-11344808D02*
G01*
X5361635Y-11346180D01*
X5356148Y-11349888D01*
X5352440Y-11355781D01*
X5351068Y-11363350D01*
X5352440Y-11370665D01*
X5356148Y-11376253D01*
X5361635Y-11379860D01*
X5368290Y-11381181D01*
X5374995Y-11379860D01*
X5380482Y-11376253D01*
X5384190Y-11370665D01*
X5385562Y-11363350D01*
X5384190Y-11355781D01*
X5380482Y-11349939D01*
X5374995Y-11346180D01*
G37*
G36*
X9203436Y-11187531D02*
G01*
X9196679Y-11187785D01*
X9190177Y-11188547D01*
X9183979Y-11189766D01*
X9178086Y-11191494D01*
X9172549Y-11193678D01*
X9167317Y-11196218D01*
X9162491Y-11199215D01*
X9158071Y-11202619D01*
X9154109Y-11206327D01*
X9150553Y-11210442D01*
X9147454Y-11214862D01*
X9144914Y-11219535D01*
X9142882Y-11224564D01*
X9141409Y-11229848D01*
X9140494Y-11235385D01*
X9140190Y-11241125D01*
X9140647Y-11248237D01*
X9141917Y-11254689D01*
X9144000Y-11260582D01*
X9146743Y-11265966D01*
X9150045Y-11270792D01*
X9153855Y-11275110D01*
X9158071Y-11279022D01*
X9162542Y-11282476D01*
X9167266Y-11285575D01*
X9172143Y-11288318D01*
X9181846Y-11292941D01*
X9218422Y-11309350D01*
X9225026Y-11312601D01*
X9230969Y-11316055D01*
X9236151Y-11319967D01*
X9240418Y-11324488D01*
X9243618Y-11329873D01*
X9245650Y-11336172D01*
X9246362Y-11343741D01*
X9246006Y-11348872D01*
X9244939Y-11353647D01*
X9243263Y-11358118D01*
X9240875Y-11362232D01*
X9237929Y-11365992D01*
X9234322Y-11369294D01*
X9230207Y-11372138D01*
X9225483Y-11374577D01*
X9220200Y-11376507D01*
X9214408Y-11377879D01*
X9208160Y-11378742D01*
X9201404Y-11379047D01*
X9195968Y-11378844D01*
X9190583Y-11378234D01*
X9185300Y-11377218D01*
X9180118Y-11375796D01*
X9175038Y-11374069D01*
X9170111Y-11371986D01*
X9165336Y-11369548D01*
X9160662Y-11366855D01*
X9156192Y-11363807D01*
X9151924Y-11360505D01*
X9147860Y-11356949D01*
X9144000Y-11353139D01*
X9130030Y-11368887D01*
X9134602Y-11373408D01*
X9139428Y-11377676D01*
X9144508Y-11381587D01*
X9149842Y-11385143D01*
X9155430Y-11388344D01*
X9161272Y-11391188D01*
X9167368Y-11393576D01*
X9173667Y-11395608D01*
X9180220Y-11397234D01*
X9186976Y-11398402D01*
X9193936Y-11399113D01*
X9201150Y-11399367D01*
X9208871Y-11399062D01*
X9216186Y-11398199D01*
X9223095Y-11396827D01*
X9229648Y-11394948D01*
X9235744Y-11392560D01*
X9241383Y-11389715D01*
X9246514Y-11386464D01*
X9251238Y-11382806D01*
X9255455Y-11378742D01*
X9259112Y-11374374D01*
X9262313Y-11369649D01*
X9264904Y-11364620D01*
X9266986Y-11359388D01*
X9268510Y-11353850D01*
X9269425Y-11348110D01*
X9269730Y-11342217D01*
X9269323Y-11334902D01*
X9268206Y-11328298D01*
X9266428Y-11322253D01*
X9263989Y-11316766D01*
X9260941Y-11311788D01*
X9257385Y-11307267D01*
X9253321Y-11303152D01*
X9248800Y-11299444D01*
X9243872Y-11296040D01*
X9238640Y-11292890D01*
X9227312Y-11287353D01*
X9191650Y-11272266D01*
X9185706Y-11269370D01*
X9180017Y-11266119D01*
X9174734Y-11262360D01*
X9170212Y-11257940D01*
X9166656Y-11252708D01*
X9164370Y-11246561D01*
X9163558Y-11239347D01*
X9164269Y-11232438D01*
X9166402Y-11226292D01*
X9169857Y-11220958D01*
X9174530Y-11216487D01*
X9180322Y-11212880D01*
X9187129Y-11210239D01*
X9194850Y-11208664D01*
X9203436Y-11208105D01*
X9210548Y-11208461D01*
X9217253Y-11209477D01*
X9223603Y-11211153D01*
X9229598Y-11213388D01*
X9235236Y-11216233D01*
X9240570Y-11219535D01*
X9245600Y-11223396D01*
X9250426Y-11227663D01*
X9262872Y-11212931D01*
X9259214Y-11209274D01*
X9255302Y-11205819D01*
X9251086Y-11202619D01*
X9246666Y-11199672D01*
X9241942Y-11196980D01*
X9237065Y-11194592D01*
X9231884Y-11192510D01*
X9226550Y-11190782D01*
X9221012Y-11189360D01*
X9215323Y-11188344D01*
X9209430Y-11187734D01*
G37*
G36*
X8830564Y-11187531D02*
G01*
X8824823Y-11187734D01*
X8819286Y-11188344D01*
X8814003Y-11189360D01*
X8808872Y-11190732D01*
X8803944Y-11192408D01*
X8799220Y-11194440D01*
X8794648Y-11196726D01*
X8790228Y-11199317D01*
X8781897Y-11205108D01*
X8774176Y-11211661D01*
X8786622Y-11226393D01*
X8791143Y-11222177D01*
X8795918Y-11218316D01*
X8800998Y-11214862D01*
X8806281Y-11211915D01*
X8811818Y-11209528D01*
X8817610Y-11207699D01*
X8823604Y-11206530D01*
X8829802Y-11206073D01*
X8837676Y-11206784D01*
X8844686Y-11208613D01*
X8850833Y-11211560D01*
X8855964Y-11215522D01*
X8860078Y-11220399D01*
X8863126Y-11226139D01*
X8864955Y-11232642D01*
X8865616Y-11239855D01*
X8865260Y-11245443D01*
X8864295Y-11250777D01*
X8862568Y-11255857D01*
X8860129Y-11260531D01*
X8856878Y-11264849D01*
X8852763Y-11268710D01*
X8847785Y-11272164D01*
X8841841Y-11275009D01*
X8834932Y-11277346D01*
X8827008Y-11279073D01*
X8818016Y-11280140D01*
X8807958Y-11280495D01*
X8807958Y-11298275D01*
X8816492Y-11298478D01*
X8824366Y-11299037D01*
X8831580Y-11300002D01*
X8838082Y-11301323D01*
X8844026Y-11303000D01*
X8849309Y-11304981D01*
X8854033Y-11307267D01*
X8858148Y-11309908D01*
X8861704Y-11312855D01*
X8864752Y-11316055D01*
X8867241Y-11319510D01*
X8869273Y-11323218D01*
X8870797Y-11327180D01*
X8871864Y-11331397D01*
X8872524Y-11335816D01*
X8872728Y-11340439D01*
X8872372Y-11346383D01*
X8871305Y-11351920D01*
X8869527Y-11357051D01*
X8867190Y-11361724D01*
X8864244Y-11365890D01*
X8860688Y-11369598D01*
X8856675Y-11372799D01*
X8852154Y-11375440D01*
X8847226Y-11377523D01*
X8841841Y-11379047D01*
X8836101Y-11380012D01*
X8830056Y-11380317D01*
X8821318Y-11379809D01*
X8813393Y-11378336D01*
X8806129Y-11376050D01*
X8799576Y-11373053D01*
X8793530Y-11369497D01*
X8788044Y-11365534D01*
X8782964Y-11361216D01*
X8778240Y-11356695D01*
X8766556Y-11371427D01*
X8773718Y-11378438D01*
X8777782Y-11381790D01*
X8782151Y-11384991D01*
X8786876Y-11387988D01*
X8791956Y-11390731D01*
X8797442Y-11393170D01*
X8803335Y-11395252D01*
X8809634Y-11396980D01*
X8816390Y-11398250D01*
X8823604Y-11399062D01*
X8831326Y-11399367D01*
X8837930Y-11399113D01*
X8844330Y-11398351D01*
X8850528Y-11397081D01*
X8856472Y-11395354D01*
X8862060Y-11393170D01*
X8867394Y-11390528D01*
X8872321Y-11387429D01*
X8876893Y-11383924D01*
X8881008Y-11379962D01*
X8884666Y-11375593D01*
X8887866Y-11370868D01*
X8890558Y-11365687D01*
X8892692Y-11360200D01*
X8894267Y-11354308D01*
X8895232Y-11348059D01*
X8895588Y-11341455D01*
X8895181Y-11334546D01*
X8894013Y-11328095D01*
X8892133Y-11322050D01*
X8889593Y-11316462D01*
X8886494Y-11311382D01*
X8882786Y-11306708D01*
X8878620Y-11302542D01*
X8873998Y-11298834D01*
X8869019Y-11295634D01*
X8863634Y-11292941D01*
X8857996Y-11290757D01*
X8852154Y-11289131D01*
X8852154Y-11287861D01*
X8857437Y-11285778D01*
X8862415Y-11283289D01*
X8867089Y-11280444D01*
X8871305Y-11277244D01*
X8875166Y-11273688D01*
X8878620Y-11269776D01*
X8881618Y-11265458D01*
X8884107Y-11260734D01*
X8886088Y-11255705D01*
X8887510Y-11250269D01*
X8888425Y-11244478D01*
X8888730Y-11238331D01*
X8888425Y-11232438D01*
X8887612Y-11226850D01*
X8886240Y-11221669D01*
X8884361Y-11216792D01*
X8881973Y-11212220D01*
X8879128Y-11208054D01*
X8875877Y-11204244D01*
X8872220Y-11200841D01*
X8868156Y-11197742D01*
X8863685Y-11195100D01*
X8858910Y-11192814D01*
X8853779Y-11190935D01*
X8848344Y-11189462D01*
X8842654Y-11188395D01*
X8836710Y-11187734D01*
G37*
G36*
X8601710Y-11187531D02*
G01*
X8595969Y-11187734D01*
X8590432Y-11188344D01*
X8585149Y-11189360D01*
X8580018Y-11190732D01*
X8575090Y-11192408D01*
X8570366Y-11194440D01*
X8565794Y-11196726D01*
X8561374Y-11199317D01*
X8553043Y-11205108D01*
X8545322Y-11211661D01*
X8558022Y-11226393D01*
X8562441Y-11222177D01*
X8567166Y-11218316D01*
X8572195Y-11214862D01*
X8577478Y-11211915D01*
X8583015Y-11209528D01*
X8588756Y-11207699D01*
X8594750Y-11206530D01*
X8600948Y-11206073D01*
X8608822Y-11206784D01*
X8615832Y-11208613D01*
X8621979Y-11211560D01*
X8627110Y-11215522D01*
X8631224Y-11220399D01*
X8634272Y-11226139D01*
X8636101Y-11232642D01*
X8636762Y-11239855D01*
X8636406Y-11245443D01*
X8635441Y-11250777D01*
X8633714Y-11255857D01*
X8631275Y-11260531D01*
X8628024Y-11264849D01*
X8623909Y-11268710D01*
X8618931Y-11272164D01*
X8612987Y-11275009D01*
X8606078Y-11277346D01*
X8598154Y-11279073D01*
X8589162Y-11280140D01*
X8579104Y-11280495D01*
X8579104Y-11298275D01*
X8587638Y-11298478D01*
X8595512Y-11299037D01*
X8602726Y-11300002D01*
X8609228Y-11301323D01*
X8615172Y-11303000D01*
X8620455Y-11304981D01*
X8625179Y-11307267D01*
X8629294Y-11309908D01*
X8632850Y-11312855D01*
X8635898Y-11316055D01*
X8638387Y-11319510D01*
X8640419Y-11323218D01*
X8641943Y-11327180D01*
X8643010Y-11331397D01*
X8643670Y-11335816D01*
X8643874Y-11340439D01*
X8643518Y-11346383D01*
X8642451Y-11351920D01*
X8640673Y-11357051D01*
X8638336Y-11361724D01*
X8635390Y-11365890D01*
X8631834Y-11369598D01*
X8627821Y-11372799D01*
X8623300Y-11375440D01*
X8618372Y-11377523D01*
X8612987Y-11379047D01*
X8607247Y-11380012D01*
X8601202Y-11380317D01*
X8592464Y-11379809D01*
X8584539Y-11378336D01*
X8577326Y-11376050D01*
X8570722Y-11373053D01*
X8564778Y-11369497D01*
X8559292Y-11365534D01*
X8554262Y-11361216D01*
X8549640Y-11356695D01*
X8537702Y-11371427D01*
X8544864Y-11378438D01*
X8548928Y-11381790D01*
X8553297Y-11384991D01*
X8558022Y-11387988D01*
X8563102Y-11390731D01*
X8568588Y-11393170D01*
X8574481Y-11395252D01*
X8580780Y-11396980D01*
X8587536Y-11398250D01*
X8594750Y-11399062D01*
X8602472Y-11399367D01*
X8609076Y-11399113D01*
X8615527Y-11398351D01*
X8621725Y-11397081D01*
X8627668Y-11395354D01*
X8633307Y-11393170D01*
X8638590Y-11390528D01*
X8643569Y-11387429D01*
X8648141Y-11383924D01*
X8652306Y-11379962D01*
X8656015Y-11375593D01*
X8659215Y-11370868D01*
X8661908Y-11365687D01*
X8664092Y-11360200D01*
X8665667Y-11354308D01*
X8666632Y-11348059D01*
X8666988Y-11341455D01*
X8666581Y-11334546D01*
X8665413Y-11328095D01*
X8663482Y-11322050D01*
X8660942Y-11316462D01*
X8657793Y-11311382D01*
X8654084Y-11306708D01*
X8649868Y-11302542D01*
X8645245Y-11298834D01*
X8640165Y-11295634D01*
X8634831Y-11292941D01*
X8629142Y-11290757D01*
X8623300Y-11289131D01*
X8623300Y-11287861D01*
X8628583Y-11285778D01*
X8633561Y-11283289D01*
X8638235Y-11280444D01*
X8642451Y-11277244D01*
X8646312Y-11273688D01*
X8649766Y-11269776D01*
X8652764Y-11265458D01*
X8655253Y-11260734D01*
X8657234Y-11255705D01*
X8658656Y-11250269D01*
X8659571Y-11244478D01*
X8659876Y-11238331D01*
X8659571Y-11232438D01*
X8658758Y-11226850D01*
X8657386Y-11221669D01*
X8655507Y-11216792D01*
X8653119Y-11212220D01*
X8650274Y-11208054D01*
X8647023Y-11204244D01*
X8643366Y-11200841D01*
X8639302Y-11197742D01*
X8634831Y-11195100D01*
X8630056Y-11192814D01*
X8624925Y-11190935D01*
X8619490Y-11189462D01*
X8613800Y-11188395D01*
X8607856Y-11187734D01*
G37*
G36*
X8037322Y-11191341D02*
G01*
X8103108Y-11395811D01*
X8129524Y-11395811D01*
X8195056Y-11191341D01*
X8171434Y-11191341D01*
X8132368Y-11321592D01*
X8124393Y-11348974D01*
X8117331Y-11371681D01*
X8116062Y-11371681D01*
X8107476Y-11343487D01*
X8099501Y-11315903D01*
X8061706Y-11191341D01*
G37*
G36*
X9938512Y-11241125D02*
G01*
X9933279Y-11241328D01*
X9928148Y-11242040D01*
X9923068Y-11243106D01*
X9918141Y-11244681D01*
X9913315Y-11246662D01*
X9908590Y-11248999D01*
X9904069Y-11251793D01*
X9899751Y-11254943D01*
X9895687Y-11258499D01*
X9891776Y-11262461D01*
X9888169Y-11266728D01*
X9884867Y-11271402D01*
X9881819Y-11276380D01*
X9879126Y-11281714D01*
X9876790Y-11287404D01*
X9874859Y-11293398D01*
X9873284Y-11299698D01*
X9871868Y-11308689D01*
X9893554Y-11308689D01*
X9894620Y-11301222D01*
X9896398Y-11294262D01*
X9898735Y-11287912D01*
X9901631Y-11282121D01*
X9905034Y-11276939D01*
X9908895Y-11272418D01*
X9913162Y-11268506D01*
X9917785Y-11265306D01*
X9922662Y-11262766D01*
X9927844Y-11260886D01*
X9933228Y-11259769D01*
X9938766Y-11259413D01*
X9944709Y-11259769D01*
X9950196Y-11260836D01*
X9955276Y-11262563D01*
X9959848Y-11265001D01*
X9963962Y-11268151D01*
X9967569Y-11271961D01*
X9970617Y-11276431D01*
X9973208Y-11281562D01*
X9975240Y-11287353D01*
X9976662Y-11293805D01*
X9977577Y-11300917D01*
X9977882Y-11308689D01*
X9871868Y-11308689D01*
X9871405Y-11313160D01*
X9871202Y-11320373D01*
X9871405Y-11327688D01*
X9872116Y-11334648D01*
X9873234Y-11341354D01*
X9874808Y-11347704D01*
X9876790Y-11353698D01*
X9879126Y-11359388D01*
X9881819Y-11364722D01*
X9884918Y-11369649D01*
X9888321Y-11374272D01*
X9892030Y-11378539D01*
X9896043Y-11382400D01*
X9900310Y-11385905D01*
X9904882Y-11389004D01*
X9909657Y-11391696D01*
X9914686Y-11394033D01*
X9919919Y-11395913D01*
X9925354Y-11397437D01*
X9930942Y-11398504D01*
X9936683Y-11399113D01*
X9942576Y-11399367D01*
X9950196Y-11399062D01*
X9957358Y-11398148D01*
X9964013Y-11396726D01*
X9970262Y-11394897D01*
X9976154Y-11392611D01*
X9981742Y-11390020D01*
X9987026Y-11387175D01*
X9992106Y-11384127D01*
X9983724Y-11368887D01*
X9979456Y-11371580D01*
X9975088Y-11374018D01*
X9970566Y-11376152D01*
X9965842Y-11377930D01*
X9961016Y-11379403D01*
X9955987Y-11380470D01*
X9950754Y-11381079D01*
X9945370Y-11381333D01*
X9939832Y-11381079D01*
X9934498Y-11380317D01*
X9929469Y-11379047D01*
X9924745Y-11377320D01*
X9920274Y-11375136D01*
X9916109Y-11372494D01*
X9912248Y-11369446D01*
X9908692Y-11365941D01*
X9905542Y-11362080D01*
X9902698Y-11357864D01*
X9900208Y-11353241D01*
X9898126Y-11348313D01*
X9896449Y-11343030D01*
X9895128Y-11337493D01*
X9894265Y-11331600D01*
X9893808Y-11325453D01*
X9996932Y-11325453D01*
X9997694Y-11319154D01*
X9997948Y-11311737D01*
X9997744Y-11305286D01*
X9997287Y-11299139D01*
X9996474Y-11293246D01*
X9995357Y-11287607D01*
X9993934Y-11282273D01*
X9992207Y-11277193D01*
X9990175Y-11272469D01*
X9987838Y-11267998D01*
X9985197Y-11263833D01*
X9982301Y-11260023D01*
X9979101Y-11256518D01*
X9975646Y-11253368D01*
X9971938Y-11250574D01*
X9967925Y-11248085D01*
X9963658Y-11246002D01*
X9959136Y-11244275D01*
X9954310Y-11242903D01*
X9949281Y-11241887D01*
X9943998Y-11241328D01*
G37*
G36*
X9807956Y-11241125D02*
G01*
X9802215Y-11241328D01*
X9796627Y-11241989D01*
X9791090Y-11243056D01*
X9785756Y-11244529D01*
X9780524Y-11246408D01*
X9775494Y-11248745D01*
X9770668Y-11251438D01*
X9766046Y-11254536D01*
X9761728Y-11257991D01*
X9757613Y-11261902D01*
X9753803Y-11266119D01*
X9750298Y-11270742D01*
X9747148Y-11275720D01*
X9744354Y-11281054D01*
X9741916Y-11286744D01*
X9739833Y-11292789D01*
X9738207Y-11299190D01*
X9737039Y-11305946D01*
X9736328Y-11312956D01*
X9736074Y-11320373D01*
X9736277Y-11327688D01*
X9736937Y-11334750D01*
X9738055Y-11341404D01*
X9739528Y-11347805D01*
X9741458Y-11353800D01*
X9743694Y-11359489D01*
X9746335Y-11364823D01*
X9749332Y-11369802D01*
X9752634Y-11374374D01*
X9756241Y-11378641D01*
X9760153Y-11382502D01*
X9764369Y-11385956D01*
X9768840Y-11389055D01*
X9773564Y-11391747D01*
X9778492Y-11394033D01*
X9783673Y-11395964D01*
X9789007Y-11397437D01*
X9794595Y-11398504D01*
X9800285Y-11399113D01*
X9806178Y-11399367D01*
X9813036Y-11399012D01*
X9819690Y-11398046D01*
X9826193Y-11396472D01*
X9832441Y-11394287D01*
X9838486Y-11391493D01*
X9844227Y-11388191D01*
X9849713Y-11384381D01*
X9854946Y-11380063D01*
X9844786Y-11365077D01*
X9841077Y-11368125D01*
X9837115Y-11370970D01*
X9832797Y-11373561D01*
X9828276Y-11375847D01*
X9823551Y-11377676D01*
X9818573Y-11379098D01*
X9813442Y-11380012D01*
X9808210Y-11380317D01*
X9802876Y-11380012D01*
X9797796Y-11379200D01*
X9792970Y-11377879D01*
X9788398Y-11375999D01*
X9784130Y-11373662D01*
X9780117Y-11370868D01*
X9776460Y-11367566D01*
X9773056Y-11363858D01*
X9770059Y-11359743D01*
X9767417Y-11355171D01*
X9765080Y-11350244D01*
X9763201Y-11344960D01*
X9761677Y-11339271D01*
X9760559Y-11333276D01*
X9759899Y-11326977D01*
X9759696Y-11320373D01*
X9759899Y-11313769D01*
X9760610Y-11307470D01*
X9761778Y-11301526D01*
X9763353Y-11295837D01*
X9765385Y-11290554D01*
X9767773Y-11285575D01*
X9770516Y-11281003D01*
X9773615Y-11276838D01*
X9777069Y-11273078D01*
X9780778Y-11269776D01*
X9784842Y-11266932D01*
X9789160Y-11264544D01*
X9793732Y-11262664D01*
X9798507Y-11261293D01*
X9803485Y-11260429D01*
X9808718Y-11260175D01*
X9817709Y-11261191D01*
X9825736Y-11264087D01*
X9833102Y-11268405D01*
X9839960Y-11273891D01*
X9852152Y-11259159D01*
X9847986Y-11255603D01*
X9843516Y-11252250D01*
X9838690Y-11249202D01*
X9833457Y-11246510D01*
X9827818Y-11244275D01*
X9821722Y-11242598D01*
X9815068Y-11241481D01*
G37*
G36*
X9709404Y-11241125D02*
G01*
X9703104Y-11241684D01*
X9696958Y-11243360D01*
X9691065Y-11246053D01*
X9685426Y-11249710D01*
X9680143Y-11254282D01*
X9675164Y-11259667D01*
X9670592Y-11265763D01*
X9666478Y-11272621D01*
X9665716Y-11272621D01*
X9663430Y-11244935D01*
X9645142Y-11244935D01*
X9645142Y-11395811D01*
X9667748Y-11395811D01*
X9667748Y-11297513D01*
X9671812Y-11288369D01*
X9676282Y-11280749D01*
X9681057Y-11274552D01*
X9686137Y-11269675D01*
X9691268Y-11266068D01*
X9696500Y-11263579D01*
X9701631Y-11262156D01*
X9706610Y-11261699D01*
X9710572Y-11261852D01*
X9713976Y-11262309D01*
X9717278Y-11263071D01*
X9720834Y-11264239D01*
X9725152Y-11244427D01*
X9721545Y-11242852D01*
X9717836Y-11241786D01*
X9713874Y-11241278D01*
G37*
G36*
X9366250Y-11241125D02*
G01*
X9360763Y-11241328D01*
X9355328Y-11241989D01*
X9350044Y-11243056D01*
X9344863Y-11244529D01*
X9339884Y-11246408D01*
X9335008Y-11248745D01*
X9330334Y-11251438D01*
X9325914Y-11254536D01*
X9321698Y-11257991D01*
X9317736Y-11261902D01*
X9314078Y-11266119D01*
X9310674Y-11270742D01*
X9307626Y-11275720D01*
X9304934Y-11281054D01*
X9302546Y-11286744D01*
X9300565Y-11292789D01*
X9298990Y-11299190D01*
X9297822Y-11305946D01*
X9297111Y-11312956D01*
X9296908Y-11320373D01*
X9320276Y-11320373D01*
X9320479Y-11313769D01*
X9321139Y-11307470D01*
X9322155Y-11301526D01*
X9323628Y-11295837D01*
X9325457Y-11290554D01*
X9327642Y-11285575D01*
X9330182Y-11281003D01*
X9333077Y-11276838D01*
X9336227Y-11273078D01*
X9339732Y-11269776D01*
X9343542Y-11266932D01*
X9347606Y-11264544D01*
X9351924Y-11262664D01*
X9356445Y-11261293D01*
X9361220Y-11260429D01*
X9366250Y-11260175D01*
X9371177Y-11260429D01*
X9375952Y-11261293D01*
X9380474Y-11262664D01*
X9384792Y-11264544D01*
X9388805Y-11266932D01*
X9392615Y-11269776D01*
X9396120Y-11273078D01*
X9399320Y-11276838D01*
X9402216Y-11281003D01*
X9404756Y-11285575D01*
X9406991Y-11290554D01*
X9408820Y-11295837D01*
X9410293Y-11301526D01*
X9411360Y-11307470D01*
X9411970Y-11313769D01*
X9412224Y-11320373D01*
X9411970Y-11326977D01*
X9411360Y-11333276D01*
X9410293Y-11339271D01*
X9408820Y-11344960D01*
X9406991Y-11350244D01*
X9404756Y-11355171D01*
X9402216Y-11359743D01*
X9399320Y-11363858D01*
X9396120Y-11367566D01*
X9392615Y-11370868D01*
X9388805Y-11373662D01*
X9384792Y-11375999D01*
X9380474Y-11377879D01*
X9375952Y-11379200D01*
X9371177Y-11380012D01*
X9366250Y-11380317D01*
X9361220Y-11380012D01*
X9356445Y-11379200D01*
X9351924Y-11377879D01*
X9347606Y-11375999D01*
X9343542Y-11373662D01*
X9339732Y-11370868D01*
X9336227Y-11367566D01*
X9333077Y-11363858D01*
X9330182Y-11359743D01*
X9327642Y-11355171D01*
X9325457Y-11350244D01*
X9323628Y-11344960D01*
X9322155Y-11339271D01*
X9321139Y-11333276D01*
X9320479Y-11326977D01*
X9320276Y-11320373D01*
X9296908Y-11320373D01*
X9297111Y-11327688D01*
X9297822Y-11334750D01*
X9298990Y-11341404D01*
X9300565Y-11347805D01*
X9302546Y-11353800D01*
X9304934Y-11359489D01*
X9307626Y-11364823D01*
X9310674Y-11369802D01*
X9314078Y-11374374D01*
X9317736Y-11378641D01*
X9321698Y-11382502D01*
X9325914Y-11385956D01*
X9330334Y-11389055D01*
X9335008Y-11391747D01*
X9339884Y-11394033D01*
X9344863Y-11395964D01*
X9350044Y-11397437D01*
X9355328Y-11398504D01*
X9360763Y-11399113D01*
X9366250Y-11399367D01*
X9371736Y-11399113D01*
X9377121Y-11398504D01*
X9382455Y-11397437D01*
X9387636Y-11395964D01*
X9392666Y-11394033D01*
X9397492Y-11391747D01*
X9402165Y-11389055D01*
X9406636Y-11385956D01*
X9410852Y-11382502D01*
X9414865Y-11378641D01*
X9418523Y-11374374D01*
X9421926Y-11369802D01*
X9425025Y-11364823D01*
X9427768Y-11359489D01*
X9430156Y-11353800D01*
X9432137Y-11347805D01*
X9433712Y-11341404D01*
X9434880Y-11334750D01*
X9435592Y-11327688D01*
X9435846Y-11320373D01*
X9435592Y-11312956D01*
X9434880Y-11305946D01*
X9433712Y-11299190D01*
X9432137Y-11292789D01*
X9430156Y-11286744D01*
X9427768Y-11281054D01*
X9425025Y-11275720D01*
X9421926Y-11270742D01*
X9418523Y-11266119D01*
X9414865Y-11261902D01*
X9410852Y-11257991D01*
X9406636Y-11254536D01*
X9402165Y-11251438D01*
X9397492Y-11248745D01*
X9392666Y-11246408D01*
X9387636Y-11244529D01*
X9382455Y-11243056D01*
X9377121Y-11241989D01*
X9371736Y-11241328D01*
G37*
G36*
X8412226Y-11241125D02*
G01*
X8406536Y-11241328D01*
X8400948Y-11241989D01*
X8395462Y-11243056D01*
X8390128Y-11244529D01*
X8384946Y-11246408D01*
X8379917Y-11248745D01*
X8375142Y-11251438D01*
X8370519Y-11254536D01*
X8366201Y-11257991D01*
X8362086Y-11261902D01*
X8358327Y-11266119D01*
X8354822Y-11270742D01*
X8351672Y-11275720D01*
X8348878Y-11281054D01*
X8346440Y-11286744D01*
X8344357Y-11292789D01*
X8342731Y-11299190D01*
X8341563Y-11305946D01*
X8340852Y-11312956D01*
X8340598Y-11320373D01*
X8340801Y-11327688D01*
X8341461Y-11334750D01*
X8342579Y-11341404D01*
X8344052Y-11347805D01*
X8345982Y-11353800D01*
X8348218Y-11359489D01*
X8350859Y-11364823D01*
X8353856Y-11369802D01*
X8357158Y-11374374D01*
X8360765Y-11378641D01*
X8364677Y-11382502D01*
X8368893Y-11385956D01*
X8373364Y-11389055D01*
X8378088Y-11391747D01*
X8383016Y-11394033D01*
X8388197Y-11395964D01*
X8393531Y-11397437D01*
X8399119Y-11398504D01*
X8404809Y-11399113D01*
X8410702Y-11399367D01*
X8417458Y-11399012D01*
X8424113Y-11398046D01*
X8430514Y-11396472D01*
X8436762Y-11394287D01*
X8442756Y-11391493D01*
X8448497Y-11388191D01*
X8453983Y-11384381D01*
X8459216Y-11380063D01*
X8449310Y-11365077D01*
X8445550Y-11368125D01*
X8441486Y-11370970D01*
X8437219Y-11373561D01*
X8432698Y-11375847D01*
X8427974Y-11377676D01*
X8423097Y-11379098D01*
X8417966Y-11380012D01*
X8412734Y-11380317D01*
X8407349Y-11380012D01*
X8402218Y-11379200D01*
X8397392Y-11377879D01*
X8392769Y-11375999D01*
X8388451Y-11373662D01*
X8384438Y-11370868D01*
X8380730Y-11367566D01*
X8377377Y-11363858D01*
X8374329Y-11359743D01*
X8371687Y-11355171D01*
X8369401Y-11350244D01*
X8367471Y-11344960D01*
X8365947Y-11339271D01*
X8364829Y-11333276D01*
X8364169Y-11326977D01*
X8363966Y-11320373D01*
X8364169Y-11313769D01*
X8364931Y-11307470D01*
X8366099Y-11301526D01*
X8367674Y-11295837D01*
X8369706Y-11290554D01*
X8372094Y-11285575D01*
X8374888Y-11281003D01*
X8378037Y-11276838D01*
X8381492Y-11273078D01*
X8385251Y-11269776D01*
X8389315Y-11266932D01*
X8393633Y-11264544D01*
X8398205Y-11262664D01*
X8403031Y-11261293D01*
X8408009Y-11260429D01*
X8413242Y-11260175D01*
X8422132Y-11261191D01*
X8430158Y-11264087D01*
X8437575Y-11268405D01*
X8444484Y-11273891D01*
X8456422Y-11259159D01*
X8452256Y-11255603D01*
X8447786Y-11252250D01*
X8442960Y-11249202D01*
X8437727Y-11246510D01*
X8432088Y-11244275D01*
X8425992Y-11242598D01*
X8419338Y-11241481D01*
G37*
G36*
X8277352Y-11241125D02*
G01*
X8271611Y-11241328D01*
X8266023Y-11241989D01*
X8260486Y-11243056D01*
X8255152Y-11244529D01*
X8249920Y-11246408D01*
X8244890Y-11248745D01*
X8240064Y-11251438D01*
X8235442Y-11254536D01*
X8231124Y-11257991D01*
X8227009Y-11261902D01*
X8223199Y-11266119D01*
X8219694Y-11270742D01*
X8216544Y-11275720D01*
X8213750Y-11281054D01*
X8211312Y-11286744D01*
X8209229Y-11292789D01*
X8207603Y-11299190D01*
X8206435Y-11305946D01*
X8205724Y-11312956D01*
X8205470Y-11320373D01*
X8205673Y-11327688D01*
X8206333Y-11334750D01*
X8207451Y-11341404D01*
X8208924Y-11347805D01*
X8210854Y-11353800D01*
X8213090Y-11359489D01*
X8215731Y-11364823D01*
X8218728Y-11369802D01*
X8222030Y-11374374D01*
X8225637Y-11378641D01*
X8229549Y-11382502D01*
X8233765Y-11385956D01*
X8238236Y-11389055D01*
X8242960Y-11391747D01*
X8247888Y-11394033D01*
X8253069Y-11395964D01*
X8258403Y-11397437D01*
X8263991Y-11398504D01*
X8269681Y-11399113D01*
X8275574Y-11399367D01*
X8282431Y-11399012D01*
X8289086Y-11398046D01*
X8295589Y-11396472D01*
X8301837Y-11394287D01*
X8307882Y-11391493D01*
X8313623Y-11388191D01*
X8319109Y-11384381D01*
X8324342Y-11380063D01*
X8314181Y-11365077D01*
X8310473Y-11368125D01*
X8306511Y-11370970D01*
X8302193Y-11373561D01*
X8297672Y-11375847D01*
X8292947Y-11377676D01*
X8287969Y-11379098D01*
X8282838Y-11380012D01*
X8277606Y-11380317D01*
X8272272Y-11380012D01*
X8267192Y-11379200D01*
X8262366Y-11377879D01*
X8257794Y-11375999D01*
X8253526Y-11373662D01*
X8249513Y-11370868D01*
X8245856Y-11367566D01*
X8242452Y-11363858D01*
X8239455Y-11359743D01*
X8236813Y-11355171D01*
X8234476Y-11350244D01*
X8232597Y-11344960D01*
X8231073Y-11339271D01*
X8229955Y-11333276D01*
X8229295Y-11326977D01*
X8229092Y-11320373D01*
X8229295Y-11313769D01*
X8230006Y-11307470D01*
X8231174Y-11301526D01*
X8232749Y-11295837D01*
X8234781Y-11290554D01*
X8237169Y-11285575D01*
X8239912Y-11281003D01*
X8243011Y-11276838D01*
X8246465Y-11273078D01*
X8250174Y-11269776D01*
X8254238Y-11266932D01*
X8258556Y-11264544D01*
X8263128Y-11262664D01*
X8267903Y-11261293D01*
X8272881Y-11260429D01*
X8278114Y-11260175D01*
X8287105Y-11261191D01*
X8295182Y-11264087D01*
X8302599Y-11268405D01*
X8309609Y-11273891D01*
X8321548Y-11259159D01*
X8317382Y-11255603D01*
X8312912Y-11252250D01*
X8308086Y-11249202D01*
X8302853Y-11246510D01*
X8297214Y-11244275D01*
X8291118Y-11242598D01*
X8284464Y-11241481D01*
G37*
G36*
X9474708Y-11244935D02*
G01*
X9474708Y-11340693D01*
X9474860Y-11347704D01*
X9475368Y-11354308D01*
X9476232Y-11360454D01*
X9477400Y-11366144D01*
X9478975Y-11371376D01*
X9480854Y-11376202D01*
X9483140Y-11380571D01*
X9485731Y-11384483D01*
X9488728Y-11387937D01*
X9492081Y-11390985D01*
X9495840Y-11393525D01*
X9500006Y-11395608D01*
X9504476Y-11397234D01*
X9509404Y-11398402D01*
X9514687Y-11399113D01*
X9520428Y-11399367D01*
X9528048Y-11398859D01*
X9535160Y-11397335D01*
X9541814Y-11394948D01*
X9548114Y-11391696D01*
X9554108Y-11387683D01*
X9559798Y-11382959D01*
X9565335Y-11377574D01*
X9570720Y-11371681D01*
X9571482Y-11371681D01*
X9573514Y-11395811D01*
X9592310Y-11395811D01*
X9592310Y-11244935D01*
X9569704Y-11244935D01*
X9569704Y-11353139D01*
X9564116Y-11359489D01*
X9558832Y-11364976D01*
X9553702Y-11369497D01*
X9548622Y-11373205D01*
X9543542Y-11375999D01*
X9538309Y-11377980D01*
X9532823Y-11379149D01*
X9527032Y-11379555D01*
X9522002Y-11379301D01*
X9517481Y-11378488D01*
X9513468Y-11377117D01*
X9509963Y-11375186D01*
X9506864Y-11372646D01*
X9504273Y-11369598D01*
X9502089Y-11365890D01*
X9500311Y-11361572D01*
X9498990Y-11356594D01*
X9498025Y-11351006D01*
X9497466Y-11344808D01*
X9497314Y-11337899D01*
X9497314Y-11244935D01*
G37*
G36*
X8915146Y-11244935D02*
G01*
X8970264Y-11395811D01*
X8996934Y-11395811D01*
X9050782Y-11244935D01*
X9028430Y-11244935D01*
X8998458Y-11332565D01*
X8991498Y-11355070D01*
X8984234Y-11377015D01*
X8983218Y-11377015D01*
X8974124Y-11349431D01*
X8968994Y-11332565D01*
X8939022Y-11244935D01*
G37*
G36*
X8720328Y-11363045D02*
G01*
X8713673Y-11364366D01*
X8708136Y-11368125D01*
X8704427Y-11373967D01*
X8703056Y-11381587D01*
X8704427Y-11388852D01*
X8708136Y-11394440D01*
X8713673Y-11398097D01*
X8720328Y-11399367D01*
X8726982Y-11398097D01*
X8732469Y-11394490D01*
X8736228Y-11388852D01*
X8737600Y-11381587D01*
X8736228Y-11373967D01*
X8732469Y-11368125D01*
X8726982Y-11364366D01*
G37*
G36*
X7063181Y-12359640D02*
G01*
X7057237Y-12360097D01*
X7051852Y-12361519D01*
X7047128Y-12363805D01*
X7043115Y-12366904D01*
X7039864Y-12370765D01*
X7037476Y-12375235D01*
X7036003Y-12380366D01*
X7035495Y-12386056D01*
X7036003Y-12392101D01*
X7037476Y-12397536D01*
X7039864Y-12402261D01*
X7043115Y-12406274D01*
X7047128Y-12409424D01*
X7051852Y-12411760D01*
X7057237Y-12413234D01*
X7063181Y-12413691D01*
X7068718Y-12413234D01*
X7073798Y-12411760D01*
X7078370Y-12409424D01*
X7082332Y-12406274D01*
X7085584Y-12402261D01*
X7088022Y-12397536D01*
X7089546Y-12392101D01*
X7090105Y-12386056D01*
X7089546Y-12380366D01*
X7088022Y-12375235D01*
X7085584Y-12370765D01*
X7082332Y-12366904D01*
X7078370Y-12363805D01*
X7073798Y-12361519D01*
X7068718Y-12360097D01*
G37*
G36*
X5839663Y-12370511D02*
G01*
X5828639Y-12370917D01*
X5823204Y-12371324D01*
X5812586Y-12372797D01*
X5802274Y-12374880D01*
X5792266Y-12377724D01*
X5782564Y-12381179D01*
X5773216Y-12385344D01*
X5764225Y-12390120D01*
X5755589Y-12395606D01*
X5747410Y-12401651D01*
X5739587Y-12408357D01*
X5732272Y-12415672D01*
X5725363Y-12423546D01*
X5718911Y-12432030D01*
X5713018Y-12441072D01*
X5707583Y-12450724D01*
X5702706Y-12460884D01*
X5698337Y-12471603D01*
X5694578Y-12482830D01*
X5691378Y-12494615D01*
X5688787Y-12506858D01*
X5686806Y-12519660D01*
X5685485Y-12532918D01*
X5684774Y-12546634D01*
X5684774Y-12560757D01*
X5685434Y-12574574D01*
X5686755Y-12587884D01*
X5688685Y-12600686D01*
X5691276Y-12612979D01*
X5694426Y-12624765D01*
X5698134Y-12636042D01*
X5702401Y-12646710D01*
X5707227Y-12656870D01*
X5712561Y-12666472D01*
X5718352Y-12675514D01*
X5724702Y-12683947D01*
X5731459Y-12691821D01*
X5738672Y-12699085D01*
X5746343Y-12705740D01*
X5754420Y-12711734D01*
X5762853Y-12717170D01*
X5771692Y-12721894D01*
X5780836Y-12726009D01*
X5790387Y-12729464D01*
X5800191Y-12732258D01*
X5810351Y-12734340D01*
X5820765Y-12735763D01*
X5831433Y-12736474D01*
X5843625Y-12736423D01*
X5850229Y-12736017D01*
X5862929Y-12734391D01*
X5869076Y-12733172D01*
X5880862Y-12730022D01*
X5886500Y-12728041D01*
X5892038Y-12725806D01*
X5902655Y-12720624D01*
X5907786Y-12717678D01*
X5917641Y-12711074D01*
X5922365Y-12707416D01*
X5931458Y-12699390D01*
X5935878Y-12695072D01*
X5944311Y-12685725D01*
X5922213Y-12660630D01*
X5913374Y-12669875D01*
X5908852Y-12674092D01*
X5904230Y-12678003D01*
X5899505Y-12681610D01*
X5894628Y-12684963D01*
X5889701Y-12688011D01*
X5884621Y-12690754D01*
X5879388Y-12693142D01*
X5874054Y-12695275D01*
X5868568Y-12697104D01*
X5862929Y-12698577D01*
X5857087Y-12699746D01*
X5851144Y-12700558D01*
X5844946Y-12701066D01*
X5832906Y-12701117D01*
X5827318Y-12700711D01*
X5821832Y-12700050D01*
X5816498Y-12699136D01*
X5811266Y-12697968D01*
X5801258Y-12694920D01*
X5791758Y-12690856D01*
X5787237Y-12688468D01*
X5778550Y-12682982D01*
X5770524Y-12676581D01*
X5766714Y-12673076D01*
X5759551Y-12665354D01*
X5753049Y-12656769D01*
X5747207Y-12647320D01*
X5744514Y-12642342D01*
X5739688Y-12631724D01*
X5735523Y-12620294D01*
X5732119Y-12608204D01*
X5729376Y-12595301D01*
X5727446Y-12581788D01*
X5726734Y-12574727D01*
X5725972Y-12560198D01*
X5725972Y-12545161D01*
X5726785Y-12530734D01*
X5728411Y-12516916D01*
X5730849Y-12503861D01*
X5733999Y-12491466D01*
X5737910Y-12479832D01*
X5742533Y-12468961D01*
X5747867Y-12458852D01*
X5753862Y-12449556D01*
X5760516Y-12441123D01*
X5767781Y-12433503D01*
X5775655Y-12426797D01*
X5779820Y-12423749D01*
X5788558Y-12418364D01*
X5793130Y-12416028D01*
X5802731Y-12412065D01*
X5812790Y-12409017D01*
X5823407Y-12406985D01*
X5834430Y-12405969D01*
X5840171Y-12405817D01*
X5847740Y-12406122D01*
X5855106Y-12406934D01*
X5862116Y-12408255D01*
X5868873Y-12410084D01*
X5875375Y-12412370D01*
X5881624Y-12415113D01*
X5887567Y-12418263D01*
X5893308Y-12421819D01*
X5898743Y-12425781D01*
X5903925Y-12430048D01*
X5908852Y-12434671D01*
X5913577Y-12439599D01*
X5935675Y-12413691D01*
X5931712Y-12409525D01*
X5922924Y-12401448D01*
X5918098Y-12397536D01*
X5913018Y-12393777D01*
X5907684Y-12390221D01*
X5902045Y-12386868D01*
X5896152Y-12383719D01*
X5889955Y-12380874D01*
X5883554Y-12378283D01*
X5876848Y-12376048D01*
X5869889Y-12374118D01*
X5862726Y-12372594D01*
X5855258Y-12371476D01*
X5847588Y-12370765D01*
G37*
G36*
X5412689Y-12370511D02*
G01*
X5406034Y-12370663D01*
X5399481Y-12371120D01*
X5393080Y-12371832D01*
X5386882Y-12372848D01*
X5380786Y-12374118D01*
X5374894Y-12375642D01*
X5369153Y-12377420D01*
X5363565Y-12379452D01*
X5353050Y-12384227D01*
X5348071Y-12386970D01*
X5338826Y-12393117D01*
X5334558Y-12396520D01*
X5330494Y-12400127D01*
X5326684Y-12403937D01*
X5323128Y-12407950D01*
X5319877Y-12412116D01*
X5316880Y-12416485D01*
X5314137Y-12421006D01*
X5311698Y-12425730D01*
X5309565Y-12430556D01*
X5307736Y-12435586D01*
X5306212Y-12440767D01*
X5304993Y-12446050D01*
X5304129Y-12451486D01*
X5303621Y-12457074D01*
X5303469Y-12462764D01*
X5303723Y-12470282D01*
X5304586Y-12477445D01*
X5305958Y-12484252D01*
X5307787Y-12490653D01*
X5310073Y-12496698D01*
X5312765Y-12502388D01*
X5315864Y-12507722D01*
X5319318Y-12512751D01*
X5323078Y-12517475D01*
X5327091Y-12521895D01*
X5331409Y-12526010D01*
X5335879Y-12529870D01*
X5345379Y-12536881D01*
X5355285Y-12542926D01*
X5365343Y-12548158D01*
X5432907Y-12578029D01*
X5444744Y-12583566D01*
X5455564Y-12589357D01*
X5460542Y-12592456D01*
X5465165Y-12595707D01*
X5469432Y-12599212D01*
X5473293Y-12603022D01*
X5476697Y-12607086D01*
X5479694Y-12611557D01*
X5482183Y-12616383D01*
X5484164Y-12621666D01*
X5485638Y-12627406D01*
X5486552Y-12633706D01*
X5486857Y-12640564D01*
X5486603Y-12645847D01*
X5485993Y-12650978D01*
X5484876Y-12655956D01*
X5483402Y-12660680D01*
X5481472Y-12665252D01*
X5479186Y-12669570D01*
X5476494Y-12673634D01*
X5473395Y-12677495D01*
X5469890Y-12681102D01*
X5466080Y-12684404D01*
X5461863Y-12687503D01*
X5457342Y-12690246D01*
X5452414Y-12692735D01*
X5447182Y-12694970D01*
X5441645Y-12696850D01*
X5435752Y-12698374D01*
X5429554Y-12699644D01*
X5423001Y-12700508D01*
X5416194Y-12701066D01*
X5403494Y-12701117D01*
X5392369Y-12700101D01*
X5386832Y-12699238D01*
X5381396Y-12698120D01*
X5370677Y-12695174D01*
X5365394Y-12693396D01*
X5355132Y-12689128D01*
X5345226Y-12684048D01*
X5335727Y-12678206D01*
X5326735Y-12671602D01*
X5318252Y-12664287D01*
X5314188Y-12660376D01*
X5310327Y-12656261D01*
X5286197Y-12683998D01*
X5294020Y-12691770D01*
X5302351Y-12699085D01*
X5311140Y-12705791D01*
X5320334Y-12711938D01*
X5329986Y-12717475D01*
X5340045Y-12722352D01*
X5350510Y-12726568D01*
X5361381Y-12730073D01*
X5366969Y-12731597D01*
X5378399Y-12733985D01*
X5390235Y-12735610D01*
X5402376Y-12736423D01*
X5415381Y-12736423D01*
X5421934Y-12736068D01*
X5434634Y-12734594D01*
X5446674Y-12732156D01*
X5457952Y-12728905D01*
X5468467Y-12724790D01*
X5478272Y-12719862D01*
X5487212Y-12714224D01*
X5491429Y-12711125D01*
X5499150Y-12704470D01*
X5506008Y-12697155D01*
X5509107Y-12693294D01*
X5514594Y-12685115D01*
X5519166Y-12676428D01*
X5521096Y-12671907D01*
X5522772Y-12667284D01*
X5524195Y-12662560D01*
X5525363Y-12657734D01*
X5526278Y-12652806D01*
X5526938Y-12647777D01*
X5527497Y-12637516D01*
X5527243Y-12629794D01*
X5526532Y-12622530D01*
X5525363Y-12615672D01*
X5523738Y-12609169D01*
X5521706Y-12603022D01*
X5519318Y-12597231D01*
X5516524Y-12591796D01*
X5513324Y-12586614D01*
X5509869Y-12581788D01*
X5506008Y-12577216D01*
X5501894Y-12572898D01*
X5497474Y-12568783D01*
X5492800Y-12564973D01*
X5487873Y-12561316D01*
X5482691Y-12557861D01*
X5471769Y-12551511D01*
X5460085Y-12545720D01*
X5454091Y-12542977D01*
X5397906Y-12518999D01*
X5387492Y-12514376D01*
X5377332Y-12509144D01*
X5372455Y-12506299D01*
X5367782Y-12503150D01*
X5363362Y-12499797D01*
X5359298Y-12496139D01*
X5355590Y-12492126D01*
X5352288Y-12487808D01*
X5349494Y-12483134D01*
X5347208Y-12478004D01*
X5345531Y-12472466D01*
X5344464Y-12466472D01*
X5344109Y-12459919D01*
X5344414Y-12453874D01*
X5345328Y-12448082D01*
X5346903Y-12442596D01*
X5349036Y-12437465D01*
X5351729Y-12432639D01*
X5354929Y-12428220D01*
X5358688Y-12424105D01*
X5362956Y-12420396D01*
X5367680Y-12417094D01*
X5372912Y-12414199D01*
X5378551Y-12411710D01*
X5384596Y-12409627D01*
X5391048Y-12408001D01*
X5397906Y-12406782D01*
X5405120Y-12406071D01*
X5412689Y-12405817D01*
X5418937Y-12405969D01*
X5424982Y-12406426D01*
X5430875Y-12407188D01*
X5436616Y-12408204D01*
X5442153Y-12409474D01*
X5447538Y-12411049D01*
X5452821Y-12412878D01*
X5457901Y-12414910D01*
X5467705Y-12419787D01*
X5477002Y-12425578D01*
X5485841Y-12432182D01*
X5494223Y-12439599D01*
X5515305Y-12413996D01*
X5507685Y-12406579D01*
X5499404Y-12399721D01*
X5490514Y-12393371D01*
X5480964Y-12387732D01*
X5470855Y-12382703D01*
X5460187Y-12378486D01*
X5448960Y-12375134D01*
X5437327Y-12372594D01*
X5425186Y-12371070D01*
X5418988Y-12370663D01*
G37*
G36*
X4858969Y-12376861D02*
G01*
X4935423Y-12730175D01*
X4982159Y-12730175D01*
X5037023Y-12510211D01*
X5044694Y-12476581D01*
X5050993Y-12450216D01*
X5055565Y-12429998D01*
X5057343Y-12429998D01*
X5074869Y-12510211D01*
X5131257Y-12730175D01*
X5178501Y-12730175D01*
X5252923Y-12376861D01*
X5214823Y-12376861D01*
X5172405Y-12590272D01*
X5161991Y-12647422D01*
X5154879Y-12687757D01*
X5152339Y-12687757D01*
X5126431Y-12573203D01*
X5075631Y-12376861D01*
X5038547Y-12376861D01*
X4988255Y-12573203D01*
X4977892Y-12618770D01*
X4962855Y-12687757D01*
X4960823Y-12687757D01*
X4939233Y-12573203D01*
X4900117Y-12376861D01*
G37*
G36*
X9197543Y-12395657D02*
G01*
X9192717Y-12469622D01*
X9151823Y-12472111D01*
X9151823Y-12501880D01*
X9191447Y-12501880D01*
X9191498Y-12657734D01*
X9192260Y-12669723D01*
X9193885Y-12680899D01*
X9196324Y-12691262D01*
X9197949Y-12696088D01*
X9199778Y-12700711D01*
X9201861Y-12705080D01*
X9204248Y-12709194D01*
X9206890Y-12713055D01*
X9209836Y-12716662D01*
X9213037Y-12719964D01*
X9216593Y-12723012D01*
X9220403Y-12725755D01*
X9224568Y-12728244D01*
X9229039Y-12730378D01*
X9233865Y-12732258D01*
X9239046Y-12733782D01*
X9244533Y-12735001D01*
X9250426Y-12735864D01*
X9256674Y-12736372D01*
X9263329Y-12736525D01*
X9268866Y-12736322D01*
X9274606Y-12735712D01*
X9286443Y-12733528D01*
X9298228Y-12730429D01*
X9309557Y-12726924D01*
X9301937Y-12696901D01*
X9294876Y-12699644D01*
X9287052Y-12701930D01*
X9279077Y-12703454D01*
X9271457Y-12704064D01*
X9264040Y-12703657D01*
X9257436Y-12702438D01*
X9251746Y-12700508D01*
X9246768Y-12697866D01*
X9242552Y-12694462D01*
X9239046Y-12690398D01*
X9236202Y-12685674D01*
X9233966Y-12680340D01*
X9232290Y-12674346D01*
X9231172Y-12667792D01*
X9230512Y-12660680D01*
X9230309Y-12652959D01*
X9230309Y-12501880D01*
X9302445Y-12501880D01*
X9302445Y-12469622D01*
X9230309Y-12469622D01*
X9230309Y-12395657D01*
G37*
G36*
X6474409Y-12395657D02*
G01*
X6469583Y-12469622D01*
X6428435Y-12472111D01*
X6428435Y-12501880D01*
X6468059Y-12501880D01*
X6468110Y-12657734D01*
X6468872Y-12669723D01*
X6470497Y-12680899D01*
X6472936Y-12691262D01*
X6474561Y-12696088D01*
X6476390Y-12700711D01*
X6478473Y-12705080D01*
X6480860Y-12709194D01*
X6483502Y-12713055D01*
X6486448Y-12716662D01*
X6489649Y-12719964D01*
X6493205Y-12723012D01*
X6497015Y-12725755D01*
X6501180Y-12728244D01*
X6505651Y-12730378D01*
X6510477Y-12732258D01*
X6515658Y-12733782D01*
X6521145Y-12735001D01*
X6527038Y-12735864D01*
X6533286Y-12736372D01*
X6539941Y-12736525D01*
X6545478Y-12736322D01*
X6551218Y-12735712D01*
X6563055Y-12733528D01*
X6574840Y-12730429D01*
X6586169Y-12726924D01*
X6578549Y-12696901D01*
X6571488Y-12699644D01*
X6563664Y-12701930D01*
X6555689Y-12703454D01*
X6548069Y-12704064D01*
X6540703Y-12703657D01*
X6534200Y-12702438D01*
X6528460Y-12700508D01*
X6523583Y-12697866D01*
X6519367Y-12694462D01*
X6515912Y-12690398D01*
X6513068Y-12685674D01*
X6510832Y-12680340D01*
X6509156Y-12674346D01*
X6508038Y-12667792D01*
X6507378Y-12660680D01*
X6507175Y-12652959D01*
X6507175Y-12501880D01*
X6579057Y-12501880D01*
X6579057Y-12469622D01*
X6507175Y-12469622D01*
X6507175Y-12395657D01*
G37*
G36*
X9756597Y-12462764D02*
G01*
X9751110Y-12462967D01*
X9745675Y-12463729D01*
X9740341Y-12464948D01*
X9735108Y-12466675D01*
X9729978Y-12468809D01*
X9724948Y-12471400D01*
X9720021Y-12474346D01*
X9715246Y-12477750D01*
X9710623Y-12481509D01*
X9706102Y-12485674D01*
X9701733Y-12490145D01*
X9697567Y-12494971D01*
X9693554Y-12500152D01*
X9689744Y-12505588D01*
X9686086Y-12511328D01*
X9682683Y-12517374D01*
X9681159Y-12517374D01*
X9677349Y-12469622D01*
X9645599Y-12469622D01*
X9645599Y-12730175D01*
X9684461Y-12730175D01*
X9684461Y-12560249D01*
X9687915Y-12552121D01*
X9691624Y-12544653D01*
X9695434Y-12537795D01*
X9699447Y-12531547D01*
X9703562Y-12525908D01*
X9707778Y-12520879D01*
X9712096Y-12516408D01*
X9716465Y-12512446D01*
X9720935Y-12509042D01*
X9725406Y-12506147D01*
X9729876Y-12503759D01*
X9734346Y-12501829D01*
X9738766Y-12500356D01*
X9743186Y-12499340D01*
X9747504Y-12498730D01*
X9751771Y-12498527D01*
X9758527Y-12498832D01*
X9764420Y-12499644D01*
X9770059Y-12501016D01*
X9776155Y-12502896D01*
X9784029Y-12468606D01*
X9777628Y-12465862D01*
X9771176Y-12464034D01*
X9764268Y-12463068D01*
G37*
G36*
X9454337Y-12462764D02*
G01*
X9449003Y-12462865D01*
X9438589Y-12463780D01*
X9428327Y-12465608D01*
X9418370Y-12468352D01*
X9413494Y-12470028D01*
X9404045Y-12474092D01*
X9394952Y-12479020D01*
X9390583Y-12481763D01*
X9382201Y-12487960D01*
X9378188Y-12491313D01*
X9370618Y-12498730D01*
X9367012Y-12502743D01*
X9360306Y-12511379D01*
X9357207Y-12515951D01*
X9351518Y-12525756D01*
X9346590Y-12536271D01*
X9344406Y-12541808D01*
X9342424Y-12547549D01*
X9339122Y-12559588D01*
X9336684Y-12572339D01*
X9335820Y-12578943D01*
X9334804Y-12592761D01*
X9334703Y-12599924D01*
X9375343Y-12599924D01*
X9375495Y-12592304D01*
X9376003Y-12584887D01*
X9376816Y-12577724D01*
X9377934Y-12570764D01*
X9379356Y-12564059D01*
X9381083Y-12557607D01*
X9383115Y-12551460D01*
X9385401Y-12545517D01*
X9387992Y-12539929D01*
X9390837Y-12534544D01*
X9393936Y-12529515D01*
X9397288Y-12524790D01*
X9400895Y-12520422D01*
X9404705Y-12516358D01*
X9408769Y-12512598D01*
X9413087Y-12509246D01*
X9417558Y-12506198D01*
X9422282Y-12503556D01*
X9427159Y-12501321D01*
X9432239Y-12499441D01*
X9437522Y-12497968D01*
X9442958Y-12496901D01*
X9448546Y-12496241D01*
X9454337Y-12496038D01*
X9460077Y-12496241D01*
X9465716Y-12496901D01*
X9471152Y-12497968D01*
X9476435Y-12499441D01*
X9481566Y-12501321D01*
X9486493Y-12503556D01*
X9491218Y-12506198D01*
X9495790Y-12509246D01*
X9500108Y-12512598D01*
X9504222Y-12516358D01*
X9508083Y-12520422D01*
X9511741Y-12524790D01*
X9515144Y-12529515D01*
X9518294Y-12534544D01*
X9521190Y-12539929D01*
X9523780Y-12545517D01*
X9526117Y-12551460D01*
X9528200Y-12557607D01*
X9529978Y-12564059D01*
X9531400Y-12570764D01*
X9532569Y-12577724D01*
X9533382Y-12584887D01*
X9533890Y-12592304D01*
X9534093Y-12599924D01*
X9533890Y-12607544D01*
X9533382Y-12615011D01*
X9532569Y-12622225D01*
X9531400Y-12629184D01*
X9529978Y-12635890D01*
X9528200Y-12642342D01*
X9526117Y-12648539D01*
X9523780Y-12654432D01*
X9521190Y-12660020D01*
X9518294Y-12665354D01*
X9515144Y-12670332D01*
X9511741Y-12675057D01*
X9508083Y-12679426D01*
X9504222Y-12683439D01*
X9500108Y-12687147D01*
X9495790Y-12690500D01*
X9491218Y-12693497D01*
X9486493Y-12696088D01*
X9481566Y-12698323D01*
X9476435Y-12700152D01*
X9471152Y-12701625D01*
X9465716Y-12702692D01*
X9460077Y-12703302D01*
X9454337Y-12703556D01*
X9448546Y-12703302D01*
X9442958Y-12702692D01*
X9437522Y-12701625D01*
X9432239Y-12700152D01*
X9427159Y-12698323D01*
X9422282Y-12696088D01*
X9417558Y-12693497D01*
X9413087Y-12690500D01*
X9408769Y-12687147D01*
X9404705Y-12683439D01*
X9400895Y-12679426D01*
X9397288Y-12675057D01*
X9393936Y-12670332D01*
X9390837Y-12665354D01*
X9387992Y-12660020D01*
X9385401Y-12654432D01*
X9383115Y-12648539D01*
X9381083Y-12642342D01*
X9379356Y-12635890D01*
X9377934Y-12629184D01*
X9376816Y-12622225D01*
X9376003Y-12615011D01*
X9375495Y-12607544D01*
X9375343Y-12599924D01*
X9334703Y-12599924D01*
X9334804Y-12607036D01*
X9335820Y-12620752D01*
X9336684Y-12627305D01*
X9339122Y-12640005D01*
X9342424Y-12651994D01*
X9346590Y-12663220D01*
X9351518Y-12673685D01*
X9357207Y-12683439D01*
X9363608Y-12692430D01*
X9370618Y-12700609D01*
X9374327Y-12704419D01*
X9382201Y-12711379D01*
X9386316Y-12714579D01*
X9394952Y-12720320D01*
X9404045Y-12725196D01*
X9413494Y-12729260D01*
X9423298Y-12732410D01*
X9428327Y-12733680D01*
X9438589Y-12735509D01*
X9449003Y-12736423D01*
X9459620Y-12736423D01*
X9470085Y-12735509D01*
X9480346Y-12733680D01*
X9490303Y-12730937D01*
X9495180Y-12729260D01*
X9504680Y-12725196D01*
X9513824Y-12720320D01*
X9522460Y-12714579D01*
X9530638Y-12707975D01*
X9534550Y-12704419D01*
X9541916Y-12696596D01*
X9545370Y-12692430D01*
X9551771Y-12683439D01*
X9554718Y-12678664D01*
X9560052Y-12668554D01*
X9564674Y-12657683D01*
X9566656Y-12651994D01*
X9570008Y-12640005D01*
X9572447Y-12627305D01*
X9573971Y-12613944D01*
X9574479Y-12599924D01*
X9573971Y-12585750D01*
X9572447Y-12572339D01*
X9570008Y-12559588D01*
X9566656Y-12547549D01*
X9564674Y-12541808D01*
X9560052Y-12530886D01*
X9554718Y-12520726D01*
X9551771Y-12515951D01*
X9545370Y-12506960D01*
X9538309Y-12498730D01*
X9530638Y-12491313D01*
X9522460Y-12484760D01*
X9518192Y-12481763D01*
X9509302Y-12476429D01*
X9500006Y-12471958D01*
X9495180Y-12470028D01*
X9485376Y-12466878D01*
X9480346Y-12465608D01*
X9470085Y-12463780D01*
X9459620Y-12462865D01*
G37*
G36*
X9048953Y-12462764D02*
G01*
X9043466Y-12462865D01*
X9032646Y-12463780D01*
X9022029Y-12465608D01*
X9011716Y-12468352D01*
X9006636Y-12470028D01*
X8996832Y-12474092D01*
X8987434Y-12479020D01*
X8982913Y-12481763D01*
X8974226Y-12487960D01*
X8970060Y-12491313D01*
X8962186Y-12498730D01*
X8954922Y-12506960D01*
X8948318Y-12515951D01*
X8942425Y-12525756D01*
X8939784Y-12530886D01*
X8935059Y-12541808D01*
X8933027Y-12547549D01*
X8929573Y-12559588D01*
X8928201Y-12565837D01*
X8926169Y-12578943D01*
X8925509Y-12585750D01*
X8925102Y-12592761D01*
X8925102Y-12607036D01*
X8925458Y-12613944D01*
X8926880Y-12627305D01*
X8929217Y-12640005D01*
X8932367Y-12651994D01*
X8936380Y-12663220D01*
X8938666Y-12668554D01*
X8943848Y-12678664D01*
X8946692Y-12683439D01*
X8952941Y-12692430D01*
X8959850Y-12700609D01*
X8963558Y-12704419D01*
X8971381Y-12711379D01*
X8975547Y-12714579D01*
X8984234Y-12720320D01*
X8993479Y-12725196D01*
X9003182Y-12729260D01*
X9013342Y-12732410D01*
X9018574Y-12733680D01*
X9029344Y-12735509D01*
X9040469Y-12736423D01*
X9052052Y-12736423D01*
X9057894Y-12735966D01*
X9063685Y-12735255D01*
X9069374Y-12734239D01*
X9075013Y-12732969D01*
X9080500Y-12731445D01*
X9085935Y-12729667D01*
X9091269Y-12727635D01*
X9096552Y-12725349D01*
X9106662Y-12720116D01*
X9111589Y-12717170D01*
X9121038Y-12710617D01*
X9125559Y-12707061D01*
X9129979Y-12703251D01*
X9112707Y-12677140D01*
X9103969Y-12684099D01*
X9099296Y-12687350D01*
X9094419Y-12690398D01*
X9089339Y-12693192D01*
X9084106Y-12695732D01*
X9078722Y-12697968D01*
X9073134Y-12699898D01*
X9067393Y-12701422D01*
X9061551Y-12702590D01*
X9055557Y-12703302D01*
X9049461Y-12703556D01*
X9044127Y-12703352D01*
X9038945Y-12702895D01*
X9033865Y-12702133D01*
X9028938Y-12701066D01*
X9024162Y-12699695D01*
X9019540Y-12698018D01*
X9015069Y-12696088D01*
X9010802Y-12693853D01*
X9006636Y-12691364D01*
X9002674Y-12688620D01*
X8998864Y-12685623D01*
X8991803Y-12678816D01*
X8988552Y-12675057D01*
X8982608Y-12666827D01*
X8979966Y-12662357D01*
X8977528Y-12657683D01*
X8973261Y-12647676D01*
X8971432Y-12642342D01*
X8969857Y-12636855D01*
X8968486Y-12631115D01*
X8967368Y-12625222D01*
X8966504Y-12619177D01*
X8965488Y-12606477D01*
X8965488Y-12593370D01*
X8965895Y-12586970D01*
X8967520Y-12574727D01*
X8968689Y-12568834D01*
X8971788Y-12557607D01*
X8975852Y-12547193D01*
X8978188Y-12542266D01*
X8980728Y-12537592D01*
X8986469Y-12528854D01*
X8989618Y-12524790D01*
X8996476Y-12517475D01*
X9000185Y-12514173D01*
X9004046Y-12511125D01*
X9008110Y-12508331D01*
X9012275Y-12505791D01*
X9016593Y-12503556D01*
X9021064Y-12501575D01*
X9025686Y-12499898D01*
X9030411Y-12498527D01*
X9035237Y-12497460D01*
X9040215Y-12496647D01*
X9045295Y-12496190D01*
X9050477Y-12496038D01*
X9058351Y-12496444D01*
X9065869Y-12497765D01*
X9072981Y-12499797D01*
X9079788Y-12502642D01*
X9086342Y-12506096D01*
X9092590Y-12510160D01*
X9098686Y-12514783D01*
X9104579Y-12519914D01*
X9125153Y-12494209D01*
X9115501Y-12485979D01*
X9110319Y-12482118D01*
X9104884Y-12478512D01*
X9099092Y-12475159D01*
X9093047Y-12472111D01*
X9086646Y-12469418D01*
X9079890Y-12467132D01*
X9072727Y-12465253D01*
X9065209Y-12463881D01*
X9057284Y-12463018D01*
G37*
G36*
X8776411Y-12462764D02*
G01*
X8766454Y-12463221D01*
X8756599Y-12464643D01*
X8746947Y-12467031D01*
X8742222Y-12468555D01*
X8732926Y-12472314D01*
X8723934Y-12476937D01*
X8715349Y-12482423D01*
X8707120Y-12488722D01*
X8699398Y-12495834D01*
X8692235Y-12503759D01*
X8688832Y-12507976D01*
X8682532Y-12517069D01*
X8679637Y-12521844D01*
X8674354Y-12532004D01*
X8671966Y-12537389D01*
X8667851Y-12548565D01*
X8664498Y-12560452D01*
X8662060Y-12573000D01*
X8661192Y-12579553D01*
X8698687Y-12579553D01*
X8699703Y-12571730D01*
X8701125Y-12564160D01*
X8702954Y-12556998D01*
X8705138Y-12550190D01*
X8707729Y-12543688D01*
X8710625Y-12537643D01*
X8713876Y-12531902D01*
X8717381Y-12526568D01*
X8721242Y-12521590D01*
X8725306Y-12517069D01*
X8729675Y-12512903D01*
X8734247Y-12509195D01*
X8739022Y-12505842D01*
X8744000Y-12502946D01*
X8749131Y-12500457D01*
X8754465Y-12498425D01*
X8759901Y-12496800D01*
X8765489Y-12495682D01*
X8771128Y-12494971D01*
X8776919Y-12494717D01*
X8783116Y-12494971D01*
X8789111Y-12495631D01*
X8794800Y-12496698D01*
X8800236Y-12498273D01*
X8805367Y-12500203D01*
X8810193Y-12502591D01*
X8814765Y-12505436D01*
X8819032Y-12508636D01*
X8822944Y-12512294D01*
X8826601Y-12516408D01*
X8829903Y-12520879D01*
X8832900Y-12525806D01*
X8835542Y-12531090D01*
X8837879Y-12536830D01*
X8839860Y-12542977D01*
X8841536Y-12549479D01*
X8842806Y-12556439D01*
X8843721Y-12563754D01*
X8844280Y-12571476D01*
X8844483Y-12579553D01*
X8661192Y-12579553D01*
X8660180Y-12592964D01*
X8660180Y-12606985D01*
X8661196Y-12620599D01*
X8663127Y-12633604D01*
X8665972Y-12645898D01*
X8667750Y-12651790D01*
X8671864Y-12662966D01*
X8674252Y-12668351D01*
X8679586Y-12678460D01*
X8682532Y-12683236D01*
X8688984Y-12692227D01*
X8696045Y-12700406D01*
X8703818Y-12707823D01*
X8707882Y-12711226D01*
X8716518Y-12717424D01*
X8721039Y-12720218D01*
X8730437Y-12725146D01*
X8735263Y-12727279D01*
X8740292Y-12729210D01*
X8750554Y-12732410D01*
X8761222Y-12734696D01*
X8766657Y-12735509D01*
X8777833Y-12736423D01*
X8790228Y-12736423D01*
X8796680Y-12736017D01*
X8808974Y-12734442D01*
X8820505Y-12731953D01*
X8831326Y-12728651D01*
X8841486Y-12724688D01*
X8851087Y-12720167D01*
X8860180Y-12715189D01*
X8868867Y-12709906D01*
X8854389Y-12683998D01*
X8844584Y-12690043D01*
X8834374Y-12695174D01*
X8829090Y-12697409D01*
X8823756Y-12699390D01*
X8818219Y-12701066D01*
X8812580Y-12702489D01*
X8806738Y-12703606D01*
X8800795Y-12704368D01*
X8794648Y-12704876D01*
X8788349Y-12705080D01*
X8781897Y-12704876D01*
X8775700Y-12704267D01*
X8769654Y-12703302D01*
X8763812Y-12701930D01*
X8758174Y-12700203D01*
X8752738Y-12698120D01*
X8747556Y-12695682D01*
X8742578Y-12692888D01*
X8737854Y-12689789D01*
X8733332Y-12686334D01*
X8729065Y-12682575D01*
X8725103Y-12678511D01*
X8721344Y-12674142D01*
X8717889Y-12669469D01*
X8714689Y-12664541D01*
X8711742Y-12659309D01*
X8709101Y-12653822D01*
X8706764Y-12648031D01*
X8704681Y-12642037D01*
X8702954Y-12635788D01*
X8701532Y-12629286D01*
X8700414Y-12622580D01*
X8699652Y-12615672D01*
X8699195Y-12608509D01*
X8877249Y-12608509D01*
X8878062Y-12603480D01*
X8878620Y-12597688D01*
X8879027Y-12584938D01*
X8878925Y-12577927D01*
X8878011Y-12564516D01*
X8876284Y-12551816D01*
X8873744Y-12539827D01*
X8870340Y-12528600D01*
X8868308Y-12523266D01*
X8863685Y-12513208D01*
X8861094Y-12508484D01*
X8855303Y-12499695D01*
X8852103Y-12495631D01*
X8848699Y-12491770D01*
X8845143Y-12488164D01*
X8841384Y-12484760D01*
X8837422Y-12481560D01*
X8833307Y-12478613D01*
X8828989Y-12475921D01*
X8824518Y-12473482D01*
X8819845Y-12471247D01*
X8815019Y-12469266D01*
X8804808Y-12466116D01*
X8799474Y-12464897D01*
X8788247Y-12463272D01*
X8782405Y-12462865D01*
G37*
G36*
X8513267Y-12462764D02*
G01*
X8506663Y-12462967D01*
X8500313Y-12463678D01*
X8494115Y-12464796D01*
X8488070Y-12466320D01*
X8482177Y-12468199D01*
X8476437Y-12470485D01*
X8470849Y-12473076D01*
X8465413Y-12475972D01*
X8460079Y-12479172D01*
X8454847Y-12482626D01*
X8449716Y-12486335D01*
X8439759Y-12494412D01*
X8430107Y-12503150D01*
X8425383Y-12507722D01*
X8424113Y-12507722D01*
X8420049Y-12469622D01*
X8388299Y-12469622D01*
X8388299Y-12730175D01*
X8427415Y-12730175D01*
X8427415Y-12539472D01*
X8437168Y-12529616D01*
X8446516Y-12521031D01*
X8455456Y-12513767D01*
X8459927Y-12510566D01*
X8468766Y-12505232D01*
X8473186Y-12503099D01*
X8477707Y-12501219D01*
X8482279Y-12499746D01*
X8487003Y-12498527D01*
X8491778Y-12497714D01*
X8496706Y-12497206D01*
X8501837Y-12497003D01*
X8508339Y-12497308D01*
X8514384Y-12498070D01*
X8519972Y-12499441D01*
X8525103Y-12501321D01*
X8529777Y-12503759D01*
X8533993Y-12506756D01*
X8537752Y-12510312D01*
X8541105Y-12514478D01*
X8544052Y-12519202D01*
X8546592Y-12524536D01*
X8548674Y-12530480D01*
X8550402Y-12536982D01*
X8551722Y-12544145D01*
X8552637Y-12551918D01*
X8553196Y-12560350D01*
X8553399Y-12569393D01*
X8553399Y-12730175D01*
X8593023Y-12730175D01*
X8593023Y-12564567D01*
X8592870Y-12556439D01*
X8592464Y-12548616D01*
X8591804Y-12541097D01*
X8590889Y-12533934D01*
X8589670Y-12527127D01*
X8588248Y-12520625D01*
X8586470Y-12514427D01*
X8584488Y-12508585D01*
X8582152Y-12503099D01*
X8579612Y-12497968D01*
X8576767Y-12493193D01*
X8573617Y-12488722D01*
X8570163Y-12484608D01*
X8566505Y-12480848D01*
X8562492Y-12477394D01*
X8558225Y-12474346D01*
X8553602Y-12471654D01*
X8548776Y-12469317D01*
X8543594Y-12467285D01*
X8538108Y-12465659D01*
X8532368Y-12464389D01*
X8526272Y-12463475D01*
X8519922Y-12462916D01*
G37*
G36*
X8221421Y-12462764D02*
G01*
X8214817Y-12462967D01*
X8208365Y-12463678D01*
X8202168Y-12464796D01*
X8196122Y-12466320D01*
X8190230Y-12468199D01*
X8184489Y-12470485D01*
X8178901Y-12473076D01*
X8173466Y-12475972D01*
X8168131Y-12479172D01*
X8157819Y-12486335D01*
X8147913Y-12494412D01*
X8138261Y-12503150D01*
X8133537Y-12507722D01*
X8132013Y-12507722D01*
X8128203Y-12469622D01*
X8096453Y-12469622D01*
X8096453Y-12730175D01*
X8135315Y-12730175D01*
X8135315Y-12539472D01*
X8145170Y-12529616D01*
X8154517Y-12521031D01*
X8163559Y-12513767D01*
X8167979Y-12510566D01*
X8176818Y-12505232D01*
X8185759Y-12501219D01*
X8190331Y-12499746D01*
X8195005Y-12498527D01*
X8199780Y-12497714D01*
X8204657Y-12497206D01*
X8209737Y-12497003D01*
X8216290Y-12497308D01*
X8222386Y-12498070D01*
X8227974Y-12499441D01*
X8233105Y-12501321D01*
X8237778Y-12503759D01*
X8241995Y-12506756D01*
X8245754Y-12510312D01*
X8249107Y-12514478D01*
X8252053Y-12519202D01*
X8254542Y-12524536D01*
X8256625Y-12530480D01*
X8258352Y-12536982D01*
X8259622Y-12544145D01*
X8260537Y-12551918D01*
X8261096Y-12560350D01*
X8261299Y-12569393D01*
X8261299Y-12730175D01*
X8300923Y-12730175D01*
X8300923Y-12564567D01*
X8300770Y-12556439D01*
X8300364Y-12548616D01*
X8299703Y-12541097D01*
X8298789Y-12533934D01*
X8297621Y-12527127D01*
X8296148Y-12520625D01*
X8294370Y-12514427D01*
X8292388Y-12508585D01*
X8290102Y-12503099D01*
X8287512Y-12497968D01*
X8284667Y-12493193D01*
X8281517Y-12488722D01*
X8278114Y-12484608D01*
X8274456Y-12480848D01*
X8270443Y-12477394D01*
X8266175Y-12474346D01*
X8261603Y-12471654D01*
X8256778Y-12469317D01*
X8251596Y-12467285D01*
X8246160Y-12465659D01*
X8240420Y-12464389D01*
X8234375Y-12463475D01*
X8228025Y-12462916D01*
G37*
G36*
X7905191Y-12462764D02*
G01*
X7899857Y-12462865D01*
X7889443Y-12463780D01*
X7879181Y-12465608D01*
X7869224Y-12468352D01*
X7864348Y-12470028D01*
X7854899Y-12474092D01*
X7845806Y-12479020D01*
X7841437Y-12481763D01*
X7833055Y-12487960D01*
X7829042Y-12491313D01*
X7821472Y-12498730D01*
X7817866Y-12502743D01*
X7811160Y-12511379D01*
X7808061Y-12515951D01*
X7802372Y-12525756D01*
X7797444Y-12536271D01*
X7795259Y-12541808D01*
X7793278Y-12547549D01*
X7789976Y-12559588D01*
X7787538Y-12572339D01*
X7786674Y-12578943D01*
X7785658Y-12592761D01*
X7785557Y-12599924D01*
X7826197Y-12599924D01*
X7826349Y-12592304D01*
X7826857Y-12584887D01*
X7827670Y-12577724D01*
X7828788Y-12570764D01*
X7830210Y-12564059D01*
X7831937Y-12557607D01*
X7833969Y-12551460D01*
X7836255Y-12545517D01*
X7838846Y-12539929D01*
X7841691Y-12534544D01*
X7844790Y-12529515D01*
X7848142Y-12524790D01*
X7851749Y-12520422D01*
X7855559Y-12516358D01*
X7859623Y-12512598D01*
X7863941Y-12509246D01*
X7868412Y-12506198D01*
X7873136Y-12503556D01*
X7878013Y-12501321D01*
X7883093Y-12499441D01*
X7888376Y-12497968D01*
X7893812Y-12496901D01*
X7899400Y-12496241D01*
X7905191Y-12496038D01*
X7910931Y-12496241D01*
X7916570Y-12496901D01*
X7922006Y-12497968D01*
X7927289Y-12499441D01*
X7932420Y-12501321D01*
X7937347Y-12503556D01*
X7942072Y-12506198D01*
X7946644Y-12509246D01*
X7950962Y-12512598D01*
X7955076Y-12516358D01*
X7958937Y-12520422D01*
X7962595Y-12524790D01*
X7965998Y-12529515D01*
X7969148Y-12534544D01*
X7972044Y-12539929D01*
X7974634Y-12545517D01*
X7976971Y-12551460D01*
X7979054Y-12557607D01*
X7980832Y-12564059D01*
X7982254Y-12570764D01*
X7983423Y-12577724D01*
X7984236Y-12584887D01*
X7984744Y-12592304D01*
X7984947Y-12599924D01*
X7984744Y-12607544D01*
X7984236Y-12615011D01*
X7983423Y-12622225D01*
X7982254Y-12629184D01*
X7980832Y-12635890D01*
X7979054Y-12642342D01*
X7976971Y-12648539D01*
X7974634Y-12654432D01*
X7972044Y-12660020D01*
X7969148Y-12665354D01*
X7965998Y-12670332D01*
X7962595Y-12675057D01*
X7958937Y-12679426D01*
X7955076Y-12683439D01*
X7950962Y-12687147D01*
X7946644Y-12690500D01*
X7942072Y-12693497D01*
X7937347Y-12696088D01*
X7932420Y-12698323D01*
X7927289Y-12700152D01*
X7922006Y-12701625D01*
X7916570Y-12702692D01*
X7910931Y-12703302D01*
X7905191Y-12703556D01*
X7899400Y-12703302D01*
X7893812Y-12702692D01*
X7888376Y-12701625D01*
X7883093Y-12700152D01*
X7878013Y-12698323D01*
X7873136Y-12696088D01*
X7868412Y-12693497D01*
X7863941Y-12690500D01*
X7859623Y-12687147D01*
X7855559Y-12683439D01*
X7851749Y-12679426D01*
X7848142Y-12675057D01*
X7844790Y-12670332D01*
X7841691Y-12665354D01*
X7838846Y-12660020D01*
X7836255Y-12654432D01*
X7833969Y-12648539D01*
X7831937Y-12642342D01*
X7830210Y-12635890D01*
X7828788Y-12629184D01*
X7827670Y-12622225D01*
X7826857Y-12615011D01*
X7826349Y-12607544D01*
X7826197Y-12599924D01*
X7785557Y-12599924D01*
X7785658Y-12607036D01*
X7786674Y-12620752D01*
X7787538Y-12627305D01*
X7789976Y-12640005D01*
X7793278Y-12651994D01*
X7797444Y-12663220D01*
X7802372Y-12673685D01*
X7808061Y-12683439D01*
X7814462Y-12692430D01*
X7821472Y-12700609D01*
X7825181Y-12704419D01*
X7833055Y-12711379D01*
X7837170Y-12714579D01*
X7845806Y-12720320D01*
X7854899Y-12725196D01*
X7864348Y-12729260D01*
X7874152Y-12732410D01*
X7879181Y-12733680D01*
X7889443Y-12735509D01*
X7899857Y-12736423D01*
X7910474Y-12736423D01*
X7920939Y-12735509D01*
X7931200Y-12733680D01*
X7941157Y-12730937D01*
X7946034Y-12729260D01*
X7955534Y-12725196D01*
X7964678Y-12720320D01*
X7973314Y-12714579D01*
X7981492Y-12707975D01*
X7985404Y-12704419D01*
X7992770Y-12696596D01*
X7996224Y-12692430D01*
X8002625Y-12683439D01*
X8005572Y-12678664D01*
X8010906Y-12668554D01*
X8015528Y-12657683D01*
X8017509Y-12651994D01*
X8020862Y-12640005D01*
X8023301Y-12627305D01*
X8024825Y-12613944D01*
X8025333Y-12599924D01*
X8024825Y-12585750D01*
X8023301Y-12572339D01*
X8020862Y-12559588D01*
X8017509Y-12547549D01*
X8015528Y-12541808D01*
X8010906Y-12530886D01*
X8005572Y-12520726D01*
X8002625Y-12515951D01*
X7996224Y-12506960D01*
X7989163Y-12498730D01*
X7981492Y-12491313D01*
X7973314Y-12484760D01*
X7969046Y-12481763D01*
X7960156Y-12476429D01*
X7950860Y-12471958D01*
X7946034Y-12470028D01*
X7936230Y-12466878D01*
X7931200Y-12465608D01*
X7920939Y-12463780D01*
X7910474Y-12462865D01*
G37*
G36*
X7676591Y-12462764D02*
G01*
X7671053Y-12462865D01*
X7660182Y-12463780D01*
X7649565Y-12465608D01*
X7639202Y-12468352D01*
X7634173Y-12470028D01*
X7624318Y-12474092D01*
X7619542Y-12476429D01*
X7610348Y-12481763D01*
X7601661Y-12487960D01*
X7597495Y-12491313D01*
X7589621Y-12498730D01*
X7582357Y-12506960D01*
X7575753Y-12515951D01*
X7572705Y-12520726D01*
X7567168Y-12530886D01*
X7562443Y-12541808D01*
X7560411Y-12547549D01*
X7556957Y-12559588D01*
X7555585Y-12565837D01*
X7553553Y-12578943D01*
X7552893Y-12585750D01*
X7552486Y-12592761D01*
X7552486Y-12607036D01*
X7552842Y-12613944D01*
X7554264Y-12627305D01*
X7556601Y-12640005D01*
X7559751Y-12651994D01*
X7563764Y-12663220D01*
X7566050Y-12668554D01*
X7571231Y-12678664D01*
X7574076Y-12683439D01*
X7580325Y-12692430D01*
X7587234Y-12700609D01*
X7590942Y-12704419D01*
X7598765Y-12711379D01*
X7602931Y-12714579D01*
X7611618Y-12720320D01*
X7620863Y-12725196D01*
X7630566Y-12729260D01*
X7640726Y-12732410D01*
X7645958Y-12733680D01*
X7656728Y-12735509D01*
X7667853Y-12736423D01*
X7679486Y-12736423D01*
X7685379Y-12735966D01*
X7691170Y-12735255D01*
X7696911Y-12734239D01*
X7702550Y-12732969D01*
X7708087Y-12731445D01*
X7713573Y-12729667D01*
X7718907Y-12727635D01*
X7729270Y-12722860D01*
X7739227Y-12717170D01*
X7748676Y-12710617D01*
X7753197Y-12707061D01*
X7757617Y-12703251D01*
X7740091Y-12677140D01*
X7731455Y-12684099D01*
X7726781Y-12687350D01*
X7721904Y-12690398D01*
X7716875Y-12693192D01*
X7711592Y-12695732D01*
X7706156Y-12697968D01*
X7700568Y-12699898D01*
X7694828Y-12701422D01*
X7688935Y-12702590D01*
X7682941Y-12703302D01*
X7676845Y-12703556D01*
X7671511Y-12703352D01*
X7666380Y-12702895D01*
X7661351Y-12702133D01*
X7656423Y-12701066D01*
X7651699Y-12699695D01*
X7647076Y-12698018D01*
X7642606Y-12696088D01*
X7638338Y-12693853D01*
X7634224Y-12691364D01*
X7630261Y-12688620D01*
X7626451Y-12685623D01*
X7619390Y-12678816D01*
X7616139Y-12675057D01*
X7613091Y-12671044D01*
X7610246Y-12666827D01*
X7605115Y-12657683D01*
X7602880Y-12652756D01*
X7599070Y-12642342D01*
X7597495Y-12636855D01*
X7596124Y-12631115D01*
X7595006Y-12625222D01*
X7594142Y-12619177D01*
X7593126Y-12606477D01*
X7593126Y-12593370D01*
X7593533Y-12586970D01*
X7595158Y-12574727D01*
X7596327Y-12568834D01*
X7597749Y-12563144D01*
X7599425Y-12557607D01*
X7603388Y-12547193D01*
X7605725Y-12542266D01*
X7611059Y-12533122D01*
X7614005Y-12528854D01*
X7617155Y-12524790D01*
X7620457Y-12521031D01*
X7623962Y-12517475D01*
X7627670Y-12514173D01*
X7631531Y-12511125D01*
X7635544Y-12508331D01*
X7639710Y-12505791D01*
X7644028Y-12503556D01*
X7648498Y-12501575D01*
X7653070Y-12499898D01*
X7657795Y-12498527D01*
X7662621Y-12497460D01*
X7667599Y-12496647D01*
X7672679Y-12496190D01*
X7677861Y-12496038D01*
X7685786Y-12496444D01*
X7693355Y-12497765D01*
X7700467Y-12499797D01*
X7707274Y-12502642D01*
X7713776Y-12506096D01*
X7720025Y-12510160D01*
X7726070Y-12514783D01*
X7731963Y-12519914D01*
X7752791Y-12494209D01*
X7743139Y-12485979D01*
X7737957Y-12482118D01*
X7732471Y-12478512D01*
X7726680Y-12475159D01*
X7720584Y-12472111D01*
X7714183Y-12469418D01*
X7707375Y-12467132D01*
X7700264Y-12465253D01*
X7692745Y-12463881D01*
X7684871Y-12463018D01*
G37*
G36*
X7298131Y-12462764D02*
G01*
X7291527Y-12462967D01*
X7285075Y-12463678D01*
X7278878Y-12464796D01*
X7272832Y-12466320D01*
X7266940Y-12468199D01*
X7261199Y-12470485D01*
X7255611Y-12473076D01*
X7250175Y-12475972D01*
X7244842Y-12479172D01*
X7234529Y-12486335D01*
X7224623Y-12494412D01*
X7214971Y-12503150D01*
X7210247Y-12507722D01*
X7208723Y-12507722D01*
X7204913Y-12469622D01*
X7173163Y-12469622D01*
X7173163Y-12730175D01*
X7212279Y-12730175D01*
X7212279Y-12539472D01*
X7222032Y-12529616D01*
X7231329Y-12521031D01*
X7240320Y-12513767D01*
X7244740Y-12510566D01*
X7253579Y-12505232D01*
X7257999Y-12503099D01*
X7262520Y-12501219D01*
X7267041Y-12499746D01*
X7271715Y-12498527D01*
X7276490Y-12497714D01*
X7281367Y-12497206D01*
X7286447Y-12497003D01*
X7293000Y-12497308D01*
X7299096Y-12498070D01*
X7304684Y-12499441D01*
X7309866Y-12501321D01*
X7314539Y-12503759D01*
X7318806Y-12506756D01*
X7322616Y-12510312D01*
X7325969Y-12514478D01*
X7328916Y-12519202D01*
X7331405Y-12524536D01*
X7333538Y-12530480D01*
X7335266Y-12536982D01*
X7336586Y-12544145D01*
X7337501Y-12551918D01*
X7338059Y-12560350D01*
X7338263Y-12569393D01*
X7338263Y-12730175D01*
X7377633Y-12730175D01*
X7377633Y-12564567D01*
X7377480Y-12556439D01*
X7376464Y-12541097D01*
X7375499Y-12533934D01*
X7374331Y-12527127D01*
X7372858Y-12520625D01*
X7371130Y-12514427D01*
X7369149Y-12508585D01*
X7366863Y-12503099D01*
X7364323Y-12497968D01*
X7361478Y-12493193D01*
X7358329Y-12488722D01*
X7354925Y-12484608D01*
X7351268Y-12480848D01*
X7347254Y-12477394D01*
X7342987Y-12474346D01*
X7338415Y-12471654D01*
X7333589Y-12469317D01*
X7328408Y-12467285D01*
X7322972Y-12465659D01*
X7317231Y-12464389D01*
X7311136Y-12463475D01*
X7304786Y-12462916D01*
G37*
G36*
X6867601Y-12462764D02*
G01*
X6861911Y-12462967D01*
X6856222Y-12463526D01*
X6850583Y-12464542D01*
X6845046Y-12465862D01*
X6839508Y-12467488D01*
X6834022Y-12469469D01*
X6823303Y-12474194D01*
X6812838Y-12479782D01*
X6802780Y-12486081D01*
X6793026Y-12492939D01*
X6783781Y-12500051D01*
X6782257Y-12500051D01*
X6778447Y-12469622D01*
X6746443Y-12469622D01*
X6746443Y-12674803D01*
X6785559Y-12674803D01*
X6785559Y-12533833D01*
X6798614Y-12522504D01*
X6805015Y-12517526D01*
X6811264Y-12513106D01*
X6817461Y-12509144D01*
X6823506Y-12505690D01*
X6829501Y-12502743D01*
X6835444Y-12500356D01*
X6841286Y-12498476D01*
X6847027Y-12497104D01*
X6852767Y-12496292D01*
X6858457Y-12496038D01*
X6864807Y-12496241D01*
X6870801Y-12496850D01*
X6876491Y-12497917D01*
X6881875Y-12499340D01*
X6886956Y-12501168D01*
X6891731Y-12503353D01*
X6896201Y-12505944D01*
X6900367Y-12508839D01*
X6904228Y-12512141D01*
X6907834Y-12515748D01*
X6911136Y-12519710D01*
X6914184Y-12523927D01*
X6916928Y-12528499D01*
X6919417Y-12533376D01*
X6921652Y-12538506D01*
X6923633Y-12543942D01*
X6925360Y-12549632D01*
X6926834Y-12555575D01*
X6928103Y-12561773D01*
X6929881Y-12574879D01*
X6930745Y-12588798D01*
X6930847Y-12596114D01*
X6930644Y-12604191D01*
X6930136Y-12612065D01*
X6929323Y-12619634D01*
X6928154Y-12626949D01*
X6926681Y-12633960D01*
X6924903Y-12640716D01*
X6922871Y-12647117D01*
X6920534Y-12653213D01*
X6917893Y-12659004D01*
X6915048Y-12664490D01*
X6911898Y-12669621D01*
X6908495Y-12674447D01*
X6904888Y-12678918D01*
X6901027Y-12683032D01*
X6896963Y-12686792D01*
X6892696Y-12690144D01*
X6888225Y-12693192D01*
X6883552Y-12695834D01*
X6878726Y-12698069D01*
X6873697Y-12699898D01*
X6868515Y-12701371D01*
X6863181Y-12702438D01*
X6857695Y-12703048D01*
X6852107Y-12703251D01*
X6847535Y-12703098D01*
X6842709Y-12702641D01*
X6832396Y-12700609D01*
X6826961Y-12698984D01*
X6821373Y-12696952D01*
X6815632Y-12694513D01*
X6809790Y-12691567D01*
X6803847Y-12688163D01*
X6797802Y-12684252D01*
X6791706Y-12679832D01*
X6785559Y-12674803D01*
X6746443Y-12674803D01*
X6746443Y-12842240D01*
X6785559Y-12842240D01*
X6785559Y-12752019D01*
X6784543Y-12706096D01*
X6796836Y-12715036D01*
X6802983Y-12718999D01*
X6809130Y-12722555D01*
X6815277Y-12725755D01*
X6821424Y-12728549D01*
X6827520Y-12730937D01*
X6833666Y-12732918D01*
X6839762Y-12734493D01*
X6845808Y-12735610D01*
X6851903Y-12736322D01*
X6857949Y-12736525D01*
X6862978Y-12736423D01*
X6867956Y-12736068D01*
X6877761Y-12734645D01*
X6887362Y-12732308D01*
X6896709Y-12729057D01*
X6901281Y-12727076D01*
X6910070Y-12722453D01*
X6918553Y-12716967D01*
X6926529Y-12710617D01*
X6930390Y-12707112D01*
X6937603Y-12699492D01*
X6941058Y-12695377D01*
X6947458Y-12686538D01*
X6953199Y-12676886D01*
X6955840Y-12671755D01*
X6960565Y-12660934D01*
X6964527Y-12649301D01*
X6966254Y-12643256D01*
X6968998Y-12630505D01*
X6970064Y-12623901D01*
X6971487Y-12610084D01*
X6971995Y-12595606D01*
X6971893Y-12588138D01*
X6971030Y-12573812D01*
X6969353Y-12560147D01*
X6966813Y-12547244D01*
X6965238Y-12541046D01*
X6961479Y-12529312D01*
X6959295Y-12523724D01*
X6956907Y-12518390D01*
X6954316Y-12513259D01*
X6951522Y-12508331D01*
X6948525Y-12503607D01*
X6945325Y-12499136D01*
X6941921Y-12494920D01*
X6938314Y-12490907D01*
X6930542Y-12483693D01*
X6926325Y-12480442D01*
X6921957Y-12477445D01*
X6917385Y-12474702D01*
X6912609Y-12472263D01*
X6907631Y-12470079D01*
X6902500Y-12468148D01*
X6897166Y-12466523D01*
X6891629Y-12465151D01*
X6885889Y-12464135D01*
X6879996Y-12463373D01*
X6873849Y-12462916D01*
G37*
G36*
X6388811Y-12462764D02*
G01*
X6383324Y-12462967D01*
X6377889Y-12463729D01*
X6372606Y-12464948D01*
X6367373Y-12466675D01*
X6362242Y-12468809D01*
X6357213Y-12471400D01*
X6352336Y-12474346D01*
X6347561Y-12477750D01*
X6342938Y-12481509D01*
X6338468Y-12485674D01*
X6334150Y-12490145D01*
X6329984Y-12494971D01*
X6326022Y-12500152D01*
X6322212Y-12505588D01*
X6318554Y-12511328D01*
X6315151Y-12517374D01*
X6313627Y-12517374D01*
X6309817Y-12469622D01*
X6277813Y-12469622D01*
X6277813Y-12730175D01*
X6316929Y-12730175D01*
X6316929Y-12560249D01*
X6320332Y-12552121D01*
X6323990Y-12544653D01*
X6327800Y-12537795D01*
X6331762Y-12531547D01*
X6335877Y-12525908D01*
X6340094Y-12520879D01*
X6344412Y-12516408D01*
X6348831Y-12512446D01*
X6353251Y-12509042D01*
X6357721Y-12506147D01*
X6362192Y-12503759D01*
X6366662Y-12501829D01*
X6371082Y-12500356D01*
X6375450Y-12499340D01*
X6379768Y-12498730D01*
X6383985Y-12498527D01*
X6390894Y-12498832D01*
X6396837Y-12499644D01*
X6402527Y-12501016D01*
X6408623Y-12502896D01*
X6416497Y-12468606D01*
X6409994Y-12465862D01*
X6403492Y-12464034D01*
X6396583Y-12463068D01*
G37*
G36*
X6103569Y-12462764D02*
G01*
X6095746Y-12462967D01*
X6088126Y-12463576D01*
X6080607Y-12464643D01*
X6073241Y-12465964D01*
X6059119Y-12469622D01*
X6045758Y-12474244D01*
X6033262Y-12479578D01*
X6021781Y-12485370D01*
X6011418Y-12491262D01*
X6002223Y-12497003D01*
X6018225Y-12524740D01*
X6028791Y-12517729D01*
X6034532Y-12514275D01*
X6046876Y-12507874D01*
X6053429Y-12504978D01*
X6060287Y-12502388D01*
X6067298Y-12500152D01*
X6074562Y-12498324D01*
X6082030Y-12496952D01*
X6089650Y-12496038D01*
X6097473Y-12495733D01*
X6103924Y-12496038D01*
X6109868Y-12496749D01*
X6115405Y-12497968D01*
X6120434Y-12499644D01*
X6125057Y-12501727D01*
X6129223Y-12504166D01*
X6133033Y-12507010D01*
X6136386Y-12510160D01*
X6139434Y-12513665D01*
X6142075Y-12517424D01*
X6144412Y-12521488D01*
X6146444Y-12525756D01*
X6148120Y-12530277D01*
X6149543Y-12534950D01*
X6151575Y-12544806D01*
X6152591Y-12555067D01*
X6152845Y-12565583D01*
X6134760Y-12567818D01*
X6117793Y-12570358D01*
X6101994Y-12573203D01*
X6087262Y-12576403D01*
X6073648Y-12579908D01*
X6061151Y-12583769D01*
X6049721Y-12588036D01*
X6039358Y-12592659D01*
X6030061Y-12597688D01*
X6021781Y-12603175D01*
X6018022Y-12606020D01*
X6011265Y-12612116D01*
X6008268Y-12615316D01*
X6003036Y-12622072D01*
X6000750Y-12625628D01*
X5996990Y-12633096D01*
X5995466Y-12637008D01*
X5993130Y-12645237D01*
X5992317Y-12649504D01*
X5991402Y-12658445D01*
X5991355Y-12660630D01*
X6029401Y-12660630D01*
X6029502Y-12656820D01*
X6029858Y-12653162D01*
X6031382Y-12646152D01*
X6032550Y-12642799D01*
X6033973Y-12639548D01*
X6035700Y-12636398D01*
X6037732Y-12633350D01*
X6040069Y-12630353D01*
X6045657Y-12624714D01*
X6052566Y-12619482D01*
X6056528Y-12616992D01*
X6065520Y-12612370D01*
X6070600Y-12610134D01*
X6081826Y-12606070D01*
X6088024Y-12604140D01*
X6101638Y-12600635D01*
X6116980Y-12597485D01*
X6133998Y-12594691D01*
X6152845Y-12592253D01*
X6152845Y-12668453D01*
X6139942Y-12679375D01*
X6133642Y-12684099D01*
X6127445Y-12688316D01*
X6121349Y-12692075D01*
X6115253Y-12695377D01*
X6109157Y-12698171D01*
X6103010Y-12700457D01*
X6096812Y-12702235D01*
X6090564Y-12703505D01*
X6084163Y-12704267D01*
X6077661Y-12704572D01*
X6071108Y-12704267D01*
X6064808Y-12703454D01*
X6058865Y-12702133D01*
X6053277Y-12700152D01*
X6048146Y-12697561D01*
X6043523Y-12694361D01*
X6039459Y-12690551D01*
X6035954Y-12685979D01*
X6033160Y-12680746D01*
X6031128Y-12674803D01*
X6029807Y-12668097D01*
X6029401Y-12660630D01*
X5991355Y-12660630D01*
X5991504Y-12670078D01*
X5992266Y-12676682D01*
X5993434Y-12682982D01*
X5995060Y-12688925D01*
X5997092Y-12694564D01*
X5999530Y-12699847D01*
X6002375Y-12704775D01*
X6005576Y-12709398D01*
X6009132Y-12713665D01*
X6013043Y-12717576D01*
X6017260Y-12721132D01*
X6021781Y-12724333D01*
X6026607Y-12727178D01*
X6031687Y-12729616D01*
X6037021Y-12731750D01*
X6042609Y-12733426D01*
X6048400Y-12734798D01*
X6054445Y-12735763D01*
X6060643Y-12736372D01*
X6066993Y-12736525D01*
X6073089Y-12736372D01*
X6079134Y-12735763D01*
X6085078Y-12734848D01*
X6091021Y-12733578D01*
X6096812Y-12731953D01*
X6102553Y-12730073D01*
X6113780Y-12725400D01*
X6119266Y-12722707D01*
X6129934Y-12716611D01*
X6140246Y-12709804D01*
X6150102Y-12702336D01*
X6154877Y-12698425D01*
X6156401Y-12698425D01*
X6159703Y-12730175D01*
X6191961Y-12730175D01*
X6191859Y-12561976D01*
X6191046Y-12549124D01*
X6190386Y-12542977D01*
X6188354Y-12531140D01*
X6185509Y-12520117D01*
X6183731Y-12514884D01*
X6181750Y-12509906D01*
X6179515Y-12505080D01*
X6177076Y-12500508D01*
X6174384Y-12496190D01*
X6171488Y-12492075D01*
X6168288Y-12488214D01*
X6164884Y-12484608D01*
X6161227Y-12481204D01*
X6157315Y-12478105D01*
X6153150Y-12475260D01*
X6148730Y-12472720D01*
X6144056Y-12470434D01*
X6139078Y-12468402D01*
X6133846Y-12466726D01*
X6128359Y-12465304D01*
X6122568Y-12464186D01*
X6116523Y-12463373D01*
X6110173Y-12462916D01*
G37*
G36*
X7043369Y-12469622D02*
G01*
X7043369Y-12730175D01*
X7082485Y-12730175D01*
X7082485Y-12469622D01*
G37*
D10*
X12000001Y-2300000D02*
G01*
X3149998Y-2300000D01*
X3149998Y-2999996D01*
X4049999Y-2999996D01*
X4049999Y-3750002D01*
X10849996Y-3750002D01*
X10849996Y-2999996D01*
X12000001Y-2999996D01*
X12000001Y-2300000D01*
M02*
