G04 Layer: TopLayer*
G04 EasyEDA v6.4.25, 2022-01-13T09:49:16--7:00*
G04 6920eebb592d4fdaba874a7cdc9b1d13,c152627e17c142f38e8cee34c074023c,10*
G04 Gerber Generator version 0.2*
G04 Scale: 100 percent, Rotated: No, Reflected: No *
G04 Dimensions in millimeters *
G04 leading zeros omitted , absolute positions ,4 integer and 5 decimal *
%FSLAX45Y45*%
%MOMM*%

%ADD10C,0.2540*%
%ADD12R,3.0000X2.0000*%

%LPD*%
D10*
X10090005Y-3580003D02*
G01*
X10100002Y-4500001D01*
X11150000Y-4499998D01*
X9960005Y-3550003D02*
G01*
X9980002Y-4530003D01*
X10199997Y-4749998D01*
X11150000Y-4749998D01*
X11150091Y-4999989D02*
G01*
X10249915Y-4999989D01*
X9860025Y-4590034D01*
X9840005Y-3550003D01*
X9710005Y-3550003D02*
G01*
X9740003Y-4790003D01*
X10199999Y-5249999D01*
X11150000Y-5249999D01*
X9590006Y-3560003D02*
G01*
X9600006Y-4940002D01*
X10199999Y-5499999D01*
X11150000Y-5499999D01*
X11150000Y-5749998D02*
G01*
X10150000Y-5749998D01*
X9440003Y-5100002D01*
X9470003Y-3550003D01*
X9340004Y-3560003D02*
G01*
X9340004Y-3270001D01*
X11400000Y-3250001D01*
X11499999Y-3350000D01*
X11499999Y-6150000D01*
X10900001Y-6150000D01*
X10650001Y-6150000D02*
G01*
X10650001Y-6250000D01*
X10900001Y-6499999D01*
X11699999Y-6499999D01*
X11699999Y-3399998D01*
X11400000Y-3099998D01*
X9350001Y-3099998D01*
X9210004Y-3100001D01*
X9220004Y-3550003D01*
X9090004Y-3580003D02*
G01*
X9090004Y-2900001D01*
X11449999Y-2899999D01*
X11900001Y-3350000D01*
X11900001Y-6649999D01*
X10750001Y-6649999D01*
X10400002Y-6300000D01*
X10400002Y-6150000D01*
X10150093Y-6150102D02*
G01*
X10150093Y-6299962D01*
X10700004Y-6850126D01*
X12100052Y-6850126D01*
X12100052Y-3299968D01*
X11599925Y-2800095D01*
X8970004Y-2800002D01*
X8970004Y-3530003D01*
X8840005Y-3540003D02*
G01*
X8870005Y-4990002D01*
X9720005Y-5800003D01*
X9900000Y-6150000D01*
X9649968Y-6150102D02*
G01*
X9490003Y-5800003D01*
X8740005Y-5030002D01*
X8720005Y-3550003D01*
X8590005Y-3540003D02*
G01*
X8620005Y-5070002D01*
X9220004Y-5820003D01*
X9400001Y-6150000D01*
X9150002Y-6150000D02*
G01*
X8870005Y-6150002D01*
X8510005Y-5170002D01*
X8470003Y-3550003D01*
X8340003Y-3560003D02*
G01*
X8420000Y-5320002D01*
X8660005Y-6220002D01*
X8850000Y-6499999D01*
X8850000Y-6749999D02*
G01*
X8440003Y-6730004D01*
X8410003Y-6210002D01*
X8300001Y-5449999D01*
X8220003Y-3550003D01*
X8090004Y-3550003D02*
G01*
X8140004Y-5690003D01*
X8270003Y-6210002D01*
X8260003Y-6780004D01*
X8550000Y-7000001D01*
X8850000Y-6999998D01*
X8850000Y-7249998D02*
G01*
X8599998Y-7249998D01*
X8130004Y-6910003D01*
X8120004Y-6270002D01*
X8010004Y-6070003D01*
X7970004Y-3550003D01*
X7840004Y-3560003D02*
G01*
X7880004Y-6100003D01*
X7970004Y-6270002D01*
X7970004Y-6990003D01*
X8550000Y-7500000D01*
X8850000Y-7500000D01*
X8850122Y-7750047D02*
G01*
X8599931Y-7750047D01*
X7800004Y-7060003D01*
X7800004Y-6260002D01*
X7750004Y-6100003D01*
X7720004Y-3570003D01*
X7590005Y-3550003D02*
G01*
X7630005Y-7150003D01*
X8550000Y-7999999D01*
X8850000Y-7999999D01*
X7470002Y-3530003D02*
G01*
X7470002Y-7240003D01*
X8550000Y-8250001D01*
X8850000Y-8249998D01*
X5649975Y-8249920D02*
G01*
X6150102Y-8249920D01*
X6899909Y-7500112D01*
X6899909Y-6599936D01*
X7320003Y-4330001D01*
X7340091Y-3549904D01*
X7220003Y-3550003D02*
G01*
X7170003Y-4310001D01*
X6750050Y-6549897D01*
X6750050Y-7450073D01*
X6199886Y-7999984D01*
X5649975Y-7999984D01*
X7090003Y-3550003D02*
G01*
X7060003Y-4220001D01*
X6760004Y-5420001D01*
X6549999Y-6399999D01*
X6549999Y-7400000D01*
X6200000Y-7749999D01*
X5650001Y-7749999D01*
X5650001Y-7500000D02*
G01*
X6200000Y-7500000D01*
X6399999Y-7300000D01*
X6399999Y-6300000D01*
X6960003Y-4210001D01*
X6970003Y-3540003D01*
X5650001Y-7249998D02*
G01*
X6200000Y-7249998D01*
X6200000Y-6200000D01*
X6760004Y-4470001D01*
X6830004Y-4050002D01*
X6840004Y-3550003D01*
X6710004Y-3550003D02*
G01*
X6720004Y-4060002D01*
X6050000Y-6100000D01*
X6050000Y-7000001D01*
X5650001Y-6999998D01*
X6590004Y-3550003D02*
G01*
X6600004Y-4020002D01*
X5900000Y-6000000D01*
X5900000Y-6749999D01*
X5650001Y-6749999D01*
X6470002Y-3550003D02*
G01*
X6470002Y-4060002D01*
X5649975Y-5949950D01*
X5649975Y-6500113D01*
X5399999Y-6100000D02*
G01*
X5399999Y-5950000D01*
X6340002Y-4020002D01*
X6340002Y-3560003D01*
X6220002Y-3550003D02*
G01*
X6220002Y-4000002D01*
X5150002Y-5880003D01*
X5149999Y-6100000D01*
X4900000Y-6100000D02*
G01*
X4900000Y-6050000D01*
X4900002Y-5870003D01*
X4980002Y-5770003D01*
X6090003Y-4010002D01*
X6090003Y-3570003D01*
X5970003Y-3560003D02*
G01*
X5960003Y-3960002D01*
X4920002Y-5580004D01*
X4650000Y-5850001D01*
X4650000Y-6100000D01*
X4400041Y-6100063D02*
G01*
X4400041Y-6850126D01*
X2400045Y-6850126D01*
X2400045Y-2800095D01*
X5830003Y-2800002D01*
X5830003Y-2800002D01*
X5830003Y-3550003D01*
X5720003Y-3560003D02*
G01*
X5720003Y-2960001D01*
X2599943Y-2949955D01*
X2599943Y-6599936D01*
X4150106Y-6599936D01*
X4150106Y-6100063D01*
X5590004Y-3560003D02*
G01*
X5590004Y-3110001D01*
X2799999Y-3099998D01*
X2799999Y-6399999D01*
X3899999Y-6399999D01*
X3899999Y-6100000D01*
X5460001Y-3550003D02*
G01*
X5460001Y-3250001D01*
X2999999Y-3250001D01*
X2999999Y-6100000D01*
X3650000Y-6100000D01*
X5340002Y-3570003D02*
G01*
X5120002Y-4930002D01*
X4730003Y-5260002D01*
X3399998Y-5749998D01*
X5210002Y-3560003D02*
G01*
X5020002Y-4820003D01*
X4740003Y-5030002D01*
X3399998Y-5499999D01*
X5090002Y-3550003D02*
G01*
X4970002Y-4630003D01*
X4680003Y-4840003D01*
X3399998Y-5249999D01*
X4970018Y-3549904D02*
G01*
X4899913Y-4489957D01*
X4600003Y-4670003D01*
X3400043Y-4999989D01*
X4840003Y-3560003D02*
G01*
X4840003Y-4290001D01*
X4720003Y-4450001D01*
X4370001Y-4580003D01*
X3400043Y-4750054D01*
X4720003Y-3560003D02*
G01*
X4730003Y-4280001D01*
X4640003Y-4390001D01*
X3399998Y-4499998D01*
X4590003Y-3550003D02*
G01*
X4600003Y-4190001D01*
X4600003Y-4240001D01*
X3399998Y-4249999D01*
X4460001Y-3550003D02*
G01*
X4460001Y-4000002D01*
X3400043Y-3999992D01*
X11150000Y-3999999D02*
G01*
X10349999Y-3999999D01*
X10349999Y-3600000D01*
X10220002Y-3550000D02*
G01*
X10220002Y-4249999D01*
X11150000Y-4249999D01*
G36*
X4434997Y-3400005D02*
G01*
X4494999Y-3400005D01*
X4494999Y-3700005D01*
X4434997Y-3700005D01*
G37*
G36*
X4560001Y-3400005D02*
G01*
X4620000Y-3400005D01*
X4620000Y-3700005D01*
X4560001Y-3700005D01*
G37*
G36*
X4684999Y-3400005D02*
G01*
X4744999Y-3400005D01*
X4744999Y-3700005D01*
X4684999Y-3700005D01*
G37*
G36*
X4810000Y-3400005D02*
G01*
X4870000Y-3400005D01*
X4870000Y-3700005D01*
X4810000Y-3700005D01*
G37*
G36*
X5309999Y-3400005D02*
G01*
X5369999Y-3400005D01*
X5369999Y-3700005D01*
X5309999Y-3700005D01*
G37*
G36*
X5185001Y-3400005D02*
G01*
X5245000Y-3400005D01*
X5245000Y-3700005D01*
X5185001Y-3700005D01*
G37*
G36*
X5060000Y-3400005D02*
G01*
X5119999Y-3400005D01*
X5119999Y-3700005D01*
X5060000Y-3700005D01*
G37*
G36*
X4934999Y-3400005D02*
G01*
X4994998Y-3400005D01*
X4994998Y-3700005D01*
X4934999Y-3700005D01*
G37*
G36*
X5934999Y-3400005D02*
G01*
X5994999Y-3400005D01*
X5994999Y-3700005D01*
X5934999Y-3700005D01*
G37*
G36*
X6060000Y-3400005D02*
G01*
X6120000Y-3400005D01*
X6120000Y-3700005D01*
X6060000Y-3700005D01*
G37*
G36*
X6184999Y-3400005D02*
G01*
X6244998Y-3400005D01*
X6244998Y-3700005D01*
X6184999Y-3700005D01*
G37*
G36*
X6310000Y-3400005D02*
G01*
X6369999Y-3400005D01*
X6369999Y-3700005D01*
X6310000Y-3700005D01*
G37*
G36*
X5810001Y-3400005D02*
G01*
X5870000Y-3400005D01*
X5870000Y-3700005D01*
X5810001Y-3700005D01*
G37*
G36*
X5685000Y-3400005D02*
G01*
X5744999Y-3400005D01*
X5744999Y-3700005D01*
X5685000Y-3700005D01*
G37*
G36*
X5559999Y-3400005D02*
G01*
X5619998Y-3400005D01*
X5619998Y-3700005D01*
X5559999Y-3700005D01*
G37*
G36*
X5435000Y-3400005D02*
G01*
X5495000Y-3400005D01*
X5495000Y-3700005D01*
X5435000Y-3700005D01*
G37*
G36*
X6935000Y-3400005D02*
G01*
X6994999Y-3400005D01*
X6994999Y-3700005D01*
X6935000Y-3700005D01*
G37*
G36*
X7060001Y-3400005D02*
G01*
X7120000Y-3400005D01*
X7120000Y-3700005D01*
X7060001Y-3700005D01*
G37*
G36*
X7184999Y-3400005D02*
G01*
X7244999Y-3400005D01*
X7244999Y-3700005D01*
X7184999Y-3700005D01*
G37*
G36*
X7310000Y-3400005D02*
G01*
X7370000Y-3400005D01*
X7370000Y-3700005D01*
X7310000Y-3700005D01*
G37*
G36*
X6809999Y-3400005D02*
G01*
X6869998Y-3400005D01*
X6869998Y-3700005D01*
X6809999Y-3700005D01*
G37*
G36*
X6685000Y-3400005D02*
G01*
X6745000Y-3400005D01*
X6745000Y-3700005D01*
X6685000Y-3700005D01*
G37*
G36*
X6559999Y-3400005D02*
G01*
X6619999Y-3400005D01*
X6619999Y-3700005D01*
X6559999Y-3700005D01*
G37*
G36*
X6435001Y-3400005D02*
G01*
X6495000Y-3400005D01*
X6495000Y-3700005D01*
X6435001Y-3700005D01*
G37*
G36*
X7935000Y-3400005D02*
G01*
X7995000Y-3400005D01*
X7995000Y-3700005D01*
X7935000Y-3700005D01*
G37*
G36*
X8059999Y-3400005D02*
G01*
X8119999Y-3400005D01*
X8119999Y-3700005D01*
X8059999Y-3700005D01*
G37*
G36*
X8185000Y-3400005D02*
G01*
X8245000Y-3400005D01*
X8245000Y-3700005D01*
X8185000Y-3700005D01*
G37*
G36*
X8310001Y-3400005D02*
G01*
X8370001Y-3400005D01*
X8370001Y-3700005D01*
X8310001Y-3700005D01*
G37*
G36*
X7809999Y-3400005D02*
G01*
X7869999Y-3400005D01*
X7869999Y-3700005D01*
X7809999Y-3700005D01*
G37*
G36*
X7685001Y-3400005D02*
G01*
X7745001Y-3400005D01*
X7745001Y-3700005D01*
X7685001Y-3700005D01*
G37*
G36*
X7560000Y-3400005D02*
G01*
X7620000Y-3400005D01*
X7620000Y-3700005D01*
X7560000Y-3700005D01*
G37*
G36*
X7434999Y-3400005D02*
G01*
X7494998Y-3400005D01*
X7494998Y-3700005D01*
X7434999Y-3700005D01*
G37*
G36*
X8935001Y-3400005D02*
G01*
X8995001Y-3400005D01*
X8995001Y-3700005D01*
X8935001Y-3700005D01*
G37*
G36*
X9059999Y-3400005D02*
G01*
X9119999Y-3400005D01*
X9119999Y-3700005D01*
X9059999Y-3700005D01*
G37*
G36*
X9185000Y-3400005D02*
G01*
X9245000Y-3400005D01*
X9245000Y-3700005D01*
X9185000Y-3700005D01*
G37*
G36*
X9309999Y-3400005D02*
G01*
X9369999Y-3400005D01*
X9369999Y-3700005D01*
X9309999Y-3700005D01*
G37*
G36*
X8810000Y-3400005D02*
G01*
X8870000Y-3400005D01*
X8870000Y-3700005D01*
X8810000Y-3700005D01*
G37*
G36*
X8684999Y-3400005D02*
G01*
X8744999Y-3400005D01*
X8744999Y-3700005D01*
X8684999Y-3700005D01*
G37*
G36*
X8560000Y-3400005D02*
G01*
X8620000Y-3400005D01*
X8620000Y-3700005D01*
X8560000Y-3700005D01*
G37*
G36*
X8434999Y-3400005D02*
G01*
X8494999Y-3400005D01*
X8494999Y-3700005D01*
X8434999Y-3700005D01*
G37*
G36*
X9934999Y-3400005D02*
G01*
X9994999Y-3400005D01*
X9994999Y-3700005D01*
X9934999Y-3700005D01*
G37*
G36*
X10060000Y-3400005D02*
G01*
X10120000Y-3400005D01*
X10120000Y-3700005D01*
X10060000Y-3700005D01*
G37*
G36*
X10185001Y-3400005D02*
G01*
X10245001Y-3400005D01*
X10245001Y-3700005D01*
X10185001Y-3700005D01*
G37*
G36*
X10310009Y-3400005D02*
G01*
X10370009Y-3400005D01*
X10370009Y-3700005D01*
X10310009Y-3700005D01*
G37*
G36*
X9810000Y-3400005D02*
G01*
X9870000Y-3400005D01*
X9870000Y-3700005D01*
X9810000Y-3700005D01*
G37*
G36*
X9684999Y-3400005D02*
G01*
X9744999Y-3400005D01*
X9744999Y-3700005D01*
X9684999Y-3700005D01*
G37*
G36*
X9560001Y-3400005D02*
G01*
X9620001Y-3400005D01*
X9620001Y-3700005D01*
X9560001Y-3700005D01*
G37*
G36*
X9435000Y-3400005D02*
G01*
X9495000Y-3400005D01*
X9495000Y-3700005D01*
X9435000Y-3700005D01*
G37*
D12*
G01*
X11149990Y-3999992D03*
G01*
X11149990Y-4250004D03*
G01*
X11149990Y-4499990D03*
G01*
X11149990Y-4750003D03*
G01*
X11149990Y-4999989D03*
G01*
X11149990Y-5250002D03*
G01*
X11149990Y-5499988D03*
G01*
X11149990Y-5750001D03*
G36*
X10800001Y-6000000D02*
G01*
X11000000Y-6000000D01*
X11000000Y-6300000D01*
X10800001Y-6300000D01*
G37*
G36*
X10550001Y-6000000D02*
G01*
X10750001Y-6000000D01*
X10750001Y-6300000D01*
X10550001Y-6300000D01*
G37*
G36*
X10300002Y-6000000D02*
G01*
X10500001Y-6000000D01*
X10500001Y-6300000D01*
X10300002Y-6300000D01*
G37*
G36*
X10050002Y-6000000D02*
G01*
X10250002Y-6000000D01*
X10250002Y-6300000D01*
X10050002Y-6300000D01*
G37*
G36*
X9800000Y-6000000D02*
G01*
X10000000Y-6000000D01*
X10000000Y-6300000D01*
X9800000Y-6300000D01*
G37*
G36*
X9550001Y-6000000D02*
G01*
X9750000Y-6000000D01*
X9750000Y-6300000D01*
X9550001Y-6300000D01*
G37*
G36*
X9300001Y-6000000D02*
G01*
X9500001Y-6000000D01*
X9500001Y-6300000D01*
X9300001Y-6300000D01*
G37*
G36*
X9050002Y-6000000D02*
G01*
X9250001Y-6000000D01*
X9250001Y-6300000D01*
X9050002Y-6300000D01*
G37*
G01*
X8849995Y-6500012D03*
G01*
X8849995Y-6749999D03*
G01*
X8849995Y-7000011D03*
G01*
X8849995Y-7249998D03*
G01*
X8849995Y-7500010D03*
G01*
X8849995Y-7749997D03*
G01*
X8849995Y-8000009D03*
G01*
X8849995Y-8249996D03*
G01*
X5650001Y-8249996D03*
G01*
X5650001Y-8000009D03*
G01*
X5650001Y-7749997D03*
G01*
X5650001Y-7500010D03*
G01*
X5650001Y-7249998D03*
G01*
X5650001Y-7000011D03*
G01*
X5650001Y-6749999D03*
G01*
X5650001Y-6500012D03*
G36*
X5299999Y-5950000D02*
G01*
X5499999Y-5950000D01*
X5499999Y-6250000D01*
X5299999Y-6250000D01*
G37*
G36*
X5050000Y-5950000D02*
G01*
X5249999Y-5950000D01*
X5249999Y-6250000D01*
X5050000Y-6250000D01*
G37*
G36*
X4800000Y-5950000D02*
G01*
X5000000Y-5950000D01*
X5000000Y-6250000D01*
X4800000Y-6250000D01*
G37*
G36*
X4550001Y-5950000D02*
G01*
X4750000Y-5950000D01*
X4750000Y-6250000D01*
X4550001Y-6250000D01*
G37*
G36*
X4299999Y-5950000D02*
G01*
X4499998Y-5950000D01*
X4499998Y-6250000D01*
X4299999Y-6250000D01*
G37*
G36*
X4049999Y-5950000D02*
G01*
X4249999Y-5950000D01*
X4249999Y-6250000D01*
X4049999Y-6250000D01*
G37*
G36*
X3800000Y-5950000D02*
G01*
X3999999Y-5950000D01*
X3999999Y-6250000D01*
X3800000Y-6250000D01*
G37*
G36*
X3550000Y-5950000D02*
G01*
X3750000Y-5950000D01*
X3750000Y-6250000D01*
X3550000Y-6250000D01*
G37*
G01*
X3399993Y-5750001D03*
G01*
X3399993Y-5499988D03*
G01*
X3399993Y-5250002D03*
G01*
X3399993Y-4999989D03*
G01*
X3399993Y-4750003D03*
G01*
X3399993Y-4499990D03*
G01*
X3399993Y-4250004D03*
G01*
X3399993Y-3999992D03*
G36*
X8850000Y-10650001D02*
G01*
X9049999Y-10650001D01*
X9049999Y-10950000D01*
X8850000Y-10950000D01*
G37*
G36*
X5600001Y-10750001D02*
G01*
X5800001Y-10750001D01*
X5800001Y-11050000D01*
X5600001Y-11050000D01*
G37*
G36*
X11900001Y-9250001D02*
G01*
X12100001Y-9250001D01*
X12100001Y-9550001D01*
X11900001Y-9550001D01*
G37*
G36*
X2050000Y-9450001D02*
G01*
X2250000Y-9450001D01*
X2250000Y-9750000D01*
X2050000Y-9750000D01*
G37*
M02*
