G04 Layer: TopSolderMaskLayer*
G04 EasyEDA v6.4.25, 2022-01-13T09:49:16--7:00*
G04 6920eebb592d4fdaba874a7cdc9b1d13,c152627e17c142f38e8cee34c074023c,10*
G04 Gerber Generator version 0.2*
G04 Scale: 100 percent, Rotated: No, Reflected: No *
G04 Dimensions in millimeters *
G04 leading zeros omitted , absolute positions ,4 integer and 5 decimal *
%FSLAX45Y45*%
%MOMM*%

%ADD16R,3.2032X2.2032*%

%LPD*%
G36*
X4424934Y-3710178D02*
G01*
X4424934Y-3389884D01*
X4505197Y-3389884D01*
X4505197Y-3710178D01*
G37*
G36*
X4549902Y-3710178D02*
G01*
X4549902Y-3389884D01*
X4630165Y-3389884D01*
X4630165Y-3710178D01*
G37*
G36*
X4674870Y-3710178D02*
G01*
X4674870Y-3389884D01*
X4755134Y-3389884D01*
X4755134Y-3710178D01*
G37*
G36*
X4799838Y-3710178D02*
G01*
X4799838Y-3389884D01*
X4880102Y-3389884D01*
X4880102Y-3710178D01*
G37*
G36*
X5299963Y-3710178D02*
G01*
X5299963Y-3389884D01*
X5380227Y-3389884D01*
X5380227Y-3710178D01*
G37*
G36*
X5174741Y-3710178D02*
G01*
X5174741Y-3389884D01*
X5255259Y-3389884D01*
X5255259Y-3710178D01*
G37*
G36*
X5049774Y-3710178D02*
G01*
X5049774Y-3389884D01*
X5130038Y-3389884D01*
X5130038Y-3710178D01*
G37*
G36*
X4924806Y-3710178D02*
G01*
X4924806Y-3389884D01*
X5005070Y-3389884D01*
X5005070Y-3710178D01*
G37*
G36*
X5924804Y-3710178D02*
G01*
X5924804Y-3389884D01*
X6005068Y-3389884D01*
X6005068Y-3710178D01*
G37*
G36*
X6049772Y-3710178D02*
G01*
X6049772Y-3389884D01*
X6130036Y-3389884D01*
X6130036Y-3710178D01*
G37*
G36*
X6174740Y-3710178D02*
G01*
X6174740Y-3389884D01*
X6255258Y-3389884D01*
X6255258Y-3710178D01*
G37*
G36*
X6299961Y-3710178D02*
G01*
X6299961Y-3389884D01*
X6380225Y-3389884D01*
X6380225Y-3710178D01*
G37*
G36*
X5799836Y-3710178D02*
G01*
X5799836Y-3389884D01*
X5880100Y-3389884D01*
X5880100Y-3710178D01*
G37*
G36*
X5674868Y-3710178D02*
G01*
X5674868Y-3389884D01*
X5755131Y-3389884D01*
X5755131Y-3710178D01*
G37*
G36*
X5549900Y-3710178D02*
G01*
X5549900Y-3389884D01*
X5630163Y-3389884D01*
X5630163Y-3710178D01*
G37*
G36*
X5424931Y-3710178D02*
G01*
X5424931Y-3389884D01*
X5505195Y-3389884D01*
X5505195Y-3710178D01*
G37*
G36*
X6924802Y-3710178D02*
G01*
X6924802Y-3389884D01*
X7005065Y-3389884D01*
X7005065Y-3710178D01*
G37*
G36*
X7049770Y-3710178D02*
G01*
X7049770Y-3389884D01*
X7130034Y-3389884D01*
X7130034Y-3710178D01*
G37*
G36*
X7174738Y-3710178D02*
G01*
X7174738Y-3389884D01*
X7255256Y-3389884D01*
X7255256Y-3710178D01*
G37*
G36*
X7299959Y-3710178D02*
G01*
X7299959Y-3389884D01*
X7380224Y-3389884D01*
X7380224Y-3710178D01*
G37*
G36*
X6799834Y-3710178D02*
G01*
X6799834Y-3389884D01*
X6880097Y-3389884D01*
X6880097Y-3710178D01*
G37*
G36*
X6674865Y-3710178D02*
G01*
X6674865Y-3389884D01*
X6755129Y-3389884D01*
X6755129Y-3710178D01*
G37*
G36*
X6549897Y-3710178D02*
G01*
X6549897Y-3389884D01*
X6630161Y-3389884D01*
X6630161Y-3710178D01*
G37*
G36*
X6424929Y-3710178D02*
G01*
X6424929Y-3389884D01*
X6505193Y-3389884D01*
X6505193Y-3710178D01*
G37*
G36*
X7924800Y-3710178D02*
G01*
X7924800Y-3389884D01*
X8005063Y-3389884D01*
X8005063Y-3710178D01*
G37*
G36*
X8049768Y-3710178D02*
G01*
X8049768Y-3389884D01*
X8130286Y-3389884D01*
X8130286Y-3710178D01*
G37*
G36*
X8174736Y-3710178D02*
G01*
X8174736Y-3389884D01*
X8255254Y-3389884D01*
X8255254Y-3710178D01*
G37*
G36*
X8299958Y-3710178D02*
G01*
X8299958Y-3389884D01*
X8380222Y-3389884D01*
X8380222Y-3710178D01*
G37*
G36*
X7799831Y-3710178D02*
G01*
X7799831Y-3389884D01*
X7880095Y-3389884D01*
X7880095Y-3710178D01*
G37*
G36*
X7674863Y-3710178D02*
G01*
X7674863Y-3389884D01*
X7755127Y-3389884D01*
X7755127Y-3710178D01*
G37*
G36*
X7549895Y-3710178D02*
G01*
X7549895Y-3389884D01*
X7630159Y-3389884D01*
X7630159Y-3710178D01*
G37*
G36*
X7424927Y-3710178D02*
G01*
X7424927Y-3389884D01*
X7505191Y-3389884D01*
X7505191Y-3710178D01*
G37*
G36*
X8924797Y-3710178D02*
G01*
X8924797Y-3389884D01*
X9005061Y-3389884D01*
X9005061Y-3710178D01*
G37*
G36*
X9049765Y-3710178D02*
G01*
X9049765Y-3389884D01*
X9130284Y-3389884D01*
X9130284Y-3710178D01*
G37*
G36*
X9174734Y-3710178D02*
G01*
X9174734Y-3389884D01*
X9255252Y-3389884D01*
X9255252Y-3710178D01*
G37*
G36*
X9299956Y-3710178D02*
G01*
X9299956Y-3389884D01*
X9380220Y-3389884D01*
X9380220Y-3710178D01*
G37*
G36*
X8799829Y-3710178D02*
G01*
X8799829Y-3389884D01*
X8880093Y-3389884D01*
X8880093Y-3710178D01*
G37*
G36*
X8674861Y-3710178D02*
G01*
X8674861Y-3389884D01*
X8755125Y-3389884D01*
X8755125Y-3710178D01*
G37*
G36*
X8549893Y-3710178D02*
G01*
X8549893Y-3389884D01*
X8630158Y-3389884D01*
X8630158Y-3710178D01*
G37*
G36*
X8424925Y-3710178D02*
G01*
X8424925Y-3389884D01*
X8505190Y-3389884D01*
X8505190Y-3710178D01*
G37*
G36*
X9924795Y-3710178D02*
G01*
X9924795Y-3389884D01*
X10005059Y-3389884D01*
X10005059Y-3710178D01*
G37*
G36*
X10049763Y-3710178D02*
G01*
X10049763Y-3389884D01*
X10130281Y-3389884D01*
X10130281Y-3710178D01*
G37*
G36*
X10174731Y-3710178D02*
G01*
X10174731Y-3389884D01*
X10255250Y-3389884D01*
X10255250Y-3710178D01*
G37*
G36*
X10299954Y-3710178D02*
G01*
X10299954Y-3389884D01*
X10380218Y-3389884D01*
X10380218Y-3710178D01*
G37*
G36*
X9799827Y-3710178D02*
G01*
X9799827Y-3389884D01*
X9880091Y-3389884D01*
X9880091Y-3710178D01*
G37*
G36*
X9674859Y-3710178D02*
G01*
X9674859Y-3389884D01*
X9755124Y-3389884D01*
X9755124Y-3710178D01*
G37*
G36*
X9549891Y-3710178D02*
G01*
X9549891Y-3389884D01*
X9630156Y-3389884D01*
X9630156Y-3710178D01*
G37*
G36*
X9424924Y-3710178D02*
G01*
X9424924Y-3389884D01*
X9505188Y-3389884D01*
X9505188Y-3710178D01*
G37*
G36*
X10989818Y-4110228D02*
G01*
X10989818Y-3889755D01*
X11310111Y-3889755D01*
X11310111Y-4110228D01*
G37*
G36*
X10989818Y-4360163D02*
G01*
X10989818Y-4139945D01*
X11310111Y-4139945D01*
X11310111Y-4360163D01*
G37*
G36*
X10989818Y-4610100D02*
G01*
X10989818Y-4389881D01*
X11310111Y-4389881D01*
X11310111Y-4610100D01*
G37*
D16*
G01*
X11149990Y-4750003D03*
G36*
X10989818Y-5110226D02*
G01*
X10989818Y-4889754D01*
X11310111Y-4889754D01*
X11310111Y-5110226D01*
G37*
G36*
X10989818Y-5360162D02*
G01*
X10989818Y-5139944D01*
X11310111Y-5139944D01*
X11310111Y-5360162D01*
G37*
G36*
X10989818Y-5610097D02*
G01*
X10989818Y-5389879D01*
X11310111Y-5389879D01*
X11310111Y-5610097D01*
G37*
G36*
X10989818Y-5860034D02*
G01*
X10989818Y-5639815D01*
X11310111Y-5639815D01*
X11310111Y-5860034D01*
G37*
G36*
X10789920Y-6310121D02*
G01*
X10789920Y-5989828D01*
X11010138Y-5989828D01*
X11010138Y-6310121D01*
G37*
G36*
X10539729Y-6310121D02*
G01*
X10539729Y-5989828D01*
X10760202Y-5989828D01*
X10760202Y-6310121D01*
G37*
G36*
X10289793Y-6310121D02*
G01*
X10289793Y-5989828D01*
X10510265Y-5989828D01*
X10510265Y-6310121D01*
G37*
G36*
X10039858Y-6310121D02*
G01*
X10039858Y-5989828D01*
X10260075Y-5989828D01*
X10260075Y-6310121D01*
G37*
G36*
X9789922Y-6310121D02*
G01*
X9789922Y-5989828D01*
X10010140Y-5989828D01*
X10010140Y-6310121D01*
G37*
G36*
X9539731Y-6310121D02*
G01*
X9539731Y-5989828D01*
X9760204Y-5989828D01*
X9760204Y-6310121D01*
G37*
G36*
X9289795Y-6310121D02*
G01*
X9289795Y-5989828D01*
X9510268Y-5989828D01*
X9510268Y-6310121D01*
G37*
G36*
X9039859Y-6310121D02*
G01*
X9039859Y-5989828D01*
X9260077Y-5989828D01*
X9260077Y-6310121D01*
G37*
G36*
X8689847Y-6610095D02*
G01*
X8689847Y-6389878D01*
X9010141Y-6389878D01*
X9010141Y-6610095D01*
G37*
G36*
X8689847Y-6860286D02*
G01*
X8689847Y-6639813D01*
X9010141Y-6639813D01*
X9010141Y-6860286D01*
G37*
G36*
X8689847Y-7110221D02*
G01*
X8689847Y-6889750D01*
X9010141Y-6889750D01*
X9010141Y-7110221D01*
G37*
G36*
X8689847Y-7360158D02*
G01*
X8689847Y-7139939D01*
X9010141Y-7139939D01*
X9010141Y-7360158D01*
G37*
G36*
X8689847Y-7610094D02*
G01*
X8689847Y-7389876D01*
X9010141Y-7389876D01*
X9010141Y-7610094D01*
G37*
G01*
X8849995Y-7749997D03*
G36*
X8689847Y-8110220D02*
G01*
X8689847Y-7889747D01*
X9010141Y-7889747D01*
X9010141Y-8110220D01*
G37*
G36*
X8689847Y-8360155D02*
G01*
X8689847Y-8139937D01*
X9010141Y-8139937D01*
X9010141Y-8360155D01*
G37*
G36*
X5489956Y-8360155D02*
G01*
X5489956Y-8139937D01*
X5810250Y-8139937D01*
X5810250Y-8360155D01*
G37*
G36*
X5489956Y-8110220D02*
G01*
X5489956Y-7889747D01*
X5810250Y-7889747D01*
X5810250Y-8110220D01*
G37*
G36*
X5489956Y-7860284D02*
G01*
X5489956Y-7639812D01*
X5810250Y-7639812D01*
X5810250Y-7860284D01*
G37*
G36*
X5489956Y-7610094D02*
G01*
X5489956Y-7389876D01*
X5810250Y-7389876D01*
X5810250Y-7610094D01*
G37*
G36*
X5489956Y-7360158D02*
G01*
X5489956Y-7139939D01*
X5810250Y-7139939D01*
X5810250Y-7360158D01*
G37*
G36*
X5489956Y-7110221D02*
G01*
X5489956Y-6889750D01*
X5810250Y-6889750D01*
X5810250Y-7110221D01*
G37*
G36*
X5489956Y-6860286D02*
G01*
X5489956Y-6639813D01*
X5810250Y-6639813D01*
X5810250Y-6860286D01*
G37*
G36*
X5489956Y-6610095D02*
G01*
X5489956Y-6389878D01*
X5810250Y-6389878D01*
X5810250Y-6610095D01*
G37*
G36*
X5289804Y-6260084D02*
G01*
X5289804Y-5939789D01*
X5510275Y-5939789D01*
X5510275Y-6260084D01*
G37*
G36*
X5039868Y-6260084D02*
G01*
X5039868Y-5939789D01*
X5260086Y-5939789D01*
X5260086Y-6260084D01*
G37*
G36*
X4789931Y-6260084D02*
G01*
X4789931Y-5939789D01*
X5010150Y-5939789D01*
X5010150Y-6260084D01*
G37*
G36*
X4539741Y-6260084D02*
G01*
X4539741Y-5939789D01*
X4760213Y-5939789D01*
X4760213Y-6260084D01*
G37*
G36*
X4289806Y-6260084D02*
G01*
X4289806Y-5939789D01*
X4510277Y-5939789D01*
X4510277Y-6260084D01*
G37*
G36*
X4039870Y-6260084D02*
G01*
X4039870Y-5939789D01*
X4260088Y-5939789D01*
X4260088Y-6260084D01*
G37*
G36*
X3789934Y-6260084D02*
G01*
X3789934Y-5939789D01*
X4010152Y-5939789D01*
X4010152Y-6260084D01*
G37*
G36*
X3539743Y-6260084D02*
G01*
X3539743Y-5939789D01*
X3760215Y-5939789D01*
X3760215Y-6260084D01*
G37*
G36*
X3239770Y-5860034D02*
G01*
X3239770Y-5639815D01*
X3560063Y-5639815D01*
X3560063Y-5860034D01*
G37*
G36*
X3239770Y-5610097D02*
G01*
X3239770Y-5389879D01*
X3560063Y-5389879D01*
X3560063Y-5610097D01*
G37*
G36*
X3239770Y-5360162D02*
G01*
X3239770Y-5139944D01*
X3560063Y-5139944D01*
X3560063Y-5360162D01*
G37*
G36*
X3239770Y-5110226D02*
G01*
X3239770Y-4889754D01*
X3560063Y-4889754D01*
X3560063Y-5110226D01*
G37*
G36*
X3239770Y-4860036D02*
G01*
X3239770Y-4639818D01*
X3560063Y-4639818D01*
X3560063Y-4860036D01*
G37*
G36*
X3239770Y-4610100D02*
G01*
X3239770Y-4389881D01*
X3560063Y-4389881D01*
X3560063Y-4610100D01*
G37*
G36*
X3239770Y-4360163D02*
G01*
X3239770Y-4139945D01*
X3560063Y-4139945D01*
X3560063Y-4360163D01*
G37*
G36*
X3239770Y-4110228D02*
G01*
X3239770Y-3889755D01*
X3560063Y-3889755D01*
X3560063Y-4110228D01*
G37*
G36*
X8839961Y-10960100D02*
G01*
X8839961Y-10639805D01*
X9060179Y-10639805D01*
X9060179Y-10960100D01*
G37*
G36*
X5589777Y-11060176D02*
G01*
X5589777Y-10739881D01*
X5810250Y-10739881D01*
X5810250Y-11060176D01*
G37*
G36*
X11889740Y-9560052D02*
G01*
X11889740Y-9239758D01*
X12110211Y-9239758D01*
X12110211Y-9560052D01*
G37*
G36*
X2039874Y-9760204D02*
G01*
X2039874Y-9439910D01*
X2260091Y-9439910D01*
X2260091Y-9760204D01*
G37*
M02*
