G04 Layer: TopSolderMaskLayer*
G04 EasyEDA v6.4.25, 2022-01-12T17:36:27--7:00*
G04 12c81a346b754f11b05be9c808d69f64,c152627e17c142f38e8cee34c074023c,10*
G04 Gerber Generator version 0.2*
G04 Scale: 100 percent, Rotated: No, Reflected: No *
G04 Dimensions in millimeters *
G04 leading zeros omitted , absolute positions ,4 integer and 5 decimal *
%FSLAX45Y45*%
%MOMM*%

%ADD16R,3.2032X2.2032*%

%LPD*%
G36*
X4674870Y-3710178D02*
G01*
X4674870Y-3389884D01*
X4725161Y-3389884D01*
X4725161Y-3710178D01*
G37*
G36*
X4794758Y-3710178D02*
G01*
X4794758Y-3389884D01*
X4845050Y-3389884D01*
X4845050Y-3710178D01*
G37*
G36*
X4914900Y-3710178D02*
G01*
X4914900Y-3389884D01*
X4965191Y-3389884D01*
X4965191Y-3710178D01*
G37*
G36*
X5034788Y-3710178D02*
G01*
X5034788Y-3389884D01*
X5085079Y-3389884D01*
X5085079Y-3710178D01*
G37*
G36*
X5514847Y-3710178D02*
G01*
X5514847Y-3389884D01*
X5565140Y-3389884D01*
X5565140Y-3710178D01*
G37*
G36*
X5394959Y-3710178D02*
G01*
X5394959Y-3389884D01*
X5445252Y-3389884D01*
X5445252Y-3710178D01*
G37*
G36*
X5274818Y-3710178D02*
G01*
X5274818Y-3389884D01*
X5325109Y-3389884D01*
X5325109Y-3710178D01*
G37*
G36*
X5154929Y-3710178D02*
G01*
X5154929Y-3389884D01*
X5205222Y-3389884D01*
X5205222Y-3710178D01*
G37*
G36*
X6114795Y-3710178D02*
G01*
X6114795Y-3389884D01*
X6165088Y-3389884D01*
X6165088Y-3710178D01*
G37*
G36*
X6234938Y-3710178D02*
G01*
X6234938Y-3389884D01*
X6285229Y-3389884D01*
X6285229Y-3710178D01*
G37*
G36*
X6354825Y-3710178D02*
G01*
X6354825Y-3389884D01*
X6405118Y-3389884D01*
X6405118Y-3710178D01*
G37*
G36*
X6474713Y-3710178D02*
G01*
X6474713Y-3389884D01*
X6525259Y-3389884D01*
X6525259Y-3710178D01*
G37*
G36*
X5994908Y-3710178D02*
G01*
X5994908Y-3389884D01*
X6045200Y-3389884D01*
X6045200Y-3710178D01*
G37*
G36*
X5874765Y-3710178D02*
G01*
X5874765Y-3389884D01*
X5925058Y-3389884D01*
X5925058Y-3710178D01*
G37*
G36*
X5754877Y-3710178D02*
G01*
X5754877Y-3389884D01*
X5805170Y-3389884D01*
X5805170Y-3710178D01*
G37*
G36*
X5634736Y-3710178D02*
G01*
X5634736Y-3389884D01*
X5685281Y-3389884D01*
X5685281Y-3710178D01*
G37*
G36*
X7074915Y-3710178D02*
G01*
X7074915Y-3389884D01*
X7125208Y-3389884D01*
X7125208Y-3710178D01*
G37*
G36*
X7194804Y-3710178D02*
G01*
X7194804Y-3389884D01*
X7245095Y-3389884D01*
X7245095Y-3710178D01*
G37*
G36*
X7314945Y-3710178D02*
G01*
X7314945Y-3389884D01*
X7365238Y-3389884D01*
X7365238Y-3710178D01*
G37*
G36*
X7434834Y-3710178D02*
G01*
X7434834Y-3389884D01*
X7485125Y-3389884D01*
X7485125Y-3710178D01*
G37*
G36*
X6954774Y-3710178D02*
G01*
X6954774Y-3389884D01*
X7005065Y-3389884D01*
X7005065Y-3710178D01*
G37*
G36*
X6834886Y-3710178D02*
G01*
X6834886Y-3389884D01*
X6885177Y-3389884D01*
X6885177Y-3710178D01*
G37*
G36*
X6714743Y-3710178D02*
G01*
X6714743Y-3389884D01*
X6765290Y-3389884D01*
X6765290Y-3710178D01*
G37*
G36*
X6594856Y-3710178D02*
G01*
X6594856Y-3389884D01*
X6645147Y-3389884D01*
X6645147Y-3710178D01*
G37*
G36*
X8034781Y-3710178D02*
G01*
X8034781Y-3389884D01*
X8085074Y-3389884D01*
X8085074Y-3710178D01*
G37*
G36*
X8154924Y-3710178D02*
G01*
X8154924Y-3389884D01*
X8205215Y-3389884D01*
X8205215Y-3710178D01*
G37*
G36*
X8274811Y-3710178D02*
G01*
X8274811Y-3389884D01*
X8325104Y-3389884D01*
X8325104Y-3710178D01*
G37*
G36*
X8394954Y-3710178D02*
G01*
X8394954Y-3389884D01*
X8445245Y-3389884D01*
X8445245Y-3710178D01*
G37*
G36*
X7914893Y-3710178D02*
G01*
X7914893Y-3389884D01*
X7965186Y-3389884D01*
X7965186Y-3710178D01*
G37*
G36*
X7794752Y-3710178D02*
G01*
X7794752Y-3389884D01*
X7845043Y-3389884D01*
X7845043Y-3710178D01*
G37*
G36*
X7674863Y-3710178D02*
G01*
X7674863Y-3389884D01*
X7725156Y-3389884D01*
X7725156Y-3710178D01*
G37*
G36*
X7554722Y-3710178D02*
G01*
X7554722Y-3389884D01*
X7605268Y-3389884D01*
X7605268Y-3710178D01*
G37*
G36*
X8994902Y-3710178D02*
G01*
X8994902Y-3389884D01*
X9045193Y-3389884D01*
X9045193Y-3710178D01*
G37*
G36*
X9114790Y-3710178D02*
G01*
X9114790Y-3389884D01*
X9165081Y-3389884D01*
X9165081Y-3710178D01*
G37*
G36*
X9234931Y-3710178D02*
G01*
X9234931Y-3389884D01*
X9285224Y-3389884D01*
X9285224Y-3710178D01*
G37*
G36*
X9354820Y-3710178D02*
G01*
X9354820Y-3389884D01*
X9405111Y-3389884D01*
X9405111Y-3710178D01*
G37*
G36*
X8874759Y-3710178D02*
G01*
X8874759Y-3389884D01*
X8925052Y-3389884D01*
X8925052Y-3710178D01*
G37*
G36*
X8754872Y-3710178D02*
G01*
X8754872Y-3389884D01*
X8805163Y-3389884D01*
X8805163Y-3710178D01*
G37*
G36*
X8634729Y-3710178D02*
G01*
X8634729Y-3389884D01*
X8685275Y-3389884D01*
X8685275Y-3710178D01*
G37*
G36*
X8514841Y-3710178D02*
G01*
X8514841Y-3389884D01*
X8565134Y-3389884D01*
X8565134Y-3710178D01*
G37*
G36*
X9954768Y-3710178D02*
G01*
X9954768Y-3389884D01*
X10005059Y-3389884D01*
X10005059Y-3710178D01*
G37*
G36*
X10074909Y-3710178D02*
G01*
X10074909Y-3389884D01*
X10125202Y-3389884D01*
X10125202Y-3710178D01*
G37*
G36*
X10194797Y-3710178D02*
G01*
X10194797Y-3389884D01*
X10245090Y-3389884D01*
X10245090Y-3710178D01*
G37*
G36*
X10314940Y-3710178D02*
G01*
X10314940Y-3389884D01*
X10365231Y-3389884D01*
X10365231Y-3710178D01*
G37*
G36*
X9834879Y-3710178D02*
G01*
X9834879Y-3389884D01*
X9885172Y-3389884D01*
X9885172Y-3710178D01*
G37*
G36*
X9714738Y-3710178D02*
G01*
X9714738Y-3389884D01*
X9765284Y-3389884D01*
X9765284Y-3710178D01*
G37*
G36*
X9594850Y-3710178D02*
G01*
X9594850Y-3389884D01*
X9645141Y-3389884D01*
X9645141Y-3710178D01*
G37*
G36*
X9474961Y-3710178D02*
G01*
X9474961Y-3389884D01*
X9525254Y-3389884D01*
X9525254Y-3710178D01*
G37*
G36*
X10989818Y-4110228D02*
G01*
X10989818Y-3889755D01*
X11310111Y-3889755D01*
X11310111Y-4110228D01*
G37*
G36*
X10989818Y-4360163D02*
G01*
X10989818Y-4139945D01*
X11310111Y-4139945D01*
X11310111Y-4360163D01*
G37*
G36*
X10989818Y-4610100D02*
G01*
X10989818Y-4389881D01*
X11310111Y-4389881D01*
X11310111Y-4610100D01*
G37*
D16*
G01*
X11149990Y-4750003D03*
G36*
X10989818Y-5110226D02*
G01*
X10989818Y-4889754D01*
X11310111Y-4889754D01*
X11310111Y-5110226D01*
G37*
G36*
X10989818Y-5360162D02*
G01*
X10989818Y-5139944D01*
X11310111Y-5139944D01*
X11310111Y-5360162D01*
G37*
G36*
X10989818Y-5610097D02*
G01*
X10989818Y-5389879D01*
X11310111Y-5389879D01*
X11310111Y-5610097D01*
G37*
G36*
X10989818Y-5860034D02*
G01*
X10989818Y-5639815D01*
X11310111Y-5639815D01*
X11310111Y-5860034D01*
G37*
G36*
X10789920Y-6310121D02*
G01*
X10789920Y-5989828D01*
X11010138Y-5989828D01*
X11010138Y-6310121D01*
G37*
G36*
X10539729Y-6310121D02*
G01*
X10539729Y-5989828D01*
X10760202Y-5989828D01*
X10760202Y-6310121D01*
G37*
G36*
X10289793Y-6310121D02*
G01*
X10289793Y-5989828D01*
X10510265Y-5989828D01*
X10510265Y-6310121D01*
G37*
G36*
X10039858Y-6310121D02*
G01*
X10039858Y-5989828D01*
X10260075Y-5989828D01*
X10260075Y-6310121D01*
G37*
G36*
X9789922Y-6310121D02*
G01*
X9789922Y-5989828D01*
X10010140Y-5989828D01*
X10010140Y-6310121D01*
G37*
G36*
X9539731Y-6310121D02*
G01*
X9539731Y-5989828D01*
X9760204Y-5989828D01*
X9760204Y-6310121D01*
G37*
G36*
X9289795Y-6310121D02*
G01*
X9289795Y-5989828D01*
X9510268Y-5989828D01*
X9510268Y-6310121D01*
G37*
G36*
X9039859Y-6310121D02*
G01*
X9039859Y-5989828D01*
X9260077Y-5989828D01*
X9260077Y-6310121D01*
G37*
G36*
X8689847Y-6610095D02*
G01*
X8689847Y-6389878D01*
X9010141Y-6389878D01*
X9010141Y-6610095D01*
G37*
G36*
X8689847Y-6860286D02*
G01*
X8689847Y-6639813D01*
X9010141Y-6639813D01*
X9010141Y-6860286D01*
G37*
G36*
X8689847Y-7110221D02*
G01*
X8689847Y-6889750D01*
X9010141Y-6889750D01*
X9010141Y-7110221D01*
G37*
G36*
X8689847Y-7360158D02*
G01*
X8689847Y-7139939D01*
X9010141Y-7139939D01*
X9010141Y-7360158D01*
G37*
G36*
X8689847Y-7610094D02*
G01*
X8689847Y-7389876D01*
X9010141Y-7389876D01*
X9010141Y-7610094D01*
G37*
G01*
X8849995Y-7749997D03*
G36*
X8689847Y-8110220D02*
G01*
X8689847Y-7889747D01*
X9010141Y-7889747D01*
X9010141Y-8110220D01*
G37*
G36*
X8689847Y-8360155D02*
G01*
X8689847Y-8139937D01*
X9010141Y-8139937D01*
X9010141Y-8360155D01*
G37*
G36*
X5489956Y-8360155D02*
G01*
X5489956Y-8139937D01*
X5810250Y-8139937D01*
X5810250Y-8360155D01*
G37*
G36*
X5489956Y-8110220D02*
G01*
X5489956Y-7889747D01*
X5810250Y-7889747D01*
X5810250Y-8110220D01*
G37*
G36*
X5489956Y-7860284D02*
G01*
X5489956Y-7639812D01*
X5810250Y-7639812D01*
X5810250Y-7860284D01*
G37*
G36*
X5489956Y-7610094D02*
G01*
X5489956Y-7389876D01*
X5810250Y-7389876D01*
X5810250Y-7610094D01*
G37*
G36*
X5489956Y-7360158D02*
G01*
X5489956Y-7139939D01*
X5810250Y-7139939D01*
X5810250Y-7360158D01*
G37*
G36*
X5489956Y-7110221D02*
G01*
X5489956Y-6889750D01*
X5810250Y-6889750D01*
X5810250Y-7110221D01*
G37*
G36*
X5489956Y-6860286D02*
G01*
X5489956Y-6639813D01*
X5810250Y-6639813D01*
X5810250Y-6860286D01*
G37*
G36*
X5489956Y-6610095D02*
G01*
X5489956Y-6389878D01*
X5810250Y-6389878D01*
X5810250Y-6610095D01*
G37*
G36*
X5289804Y-6260084D02*
G01*
X5289804Y-5939789D01*
X5510275Y-5939789D01*
X5510275Y-6260084D01*
G37*
G36*
X5039868Y-6260084D02*
G01*
X5039868Y-5939789D01*
X5260086Y-5939789D01*
X5260086Y-6260084D01*
G37*
G36*
X4789931Y-6260084D02*
G01*
X4789931Y-5939789D01*
X5010150Y-5939789D01*
X5010150Y-6260084D01*
G37*
G36*
X4539741Y-6260084D02*
G01*
X4539741Y-5939789D01*
X4760213Y-5939789D01*
X4760213Y-6260084D01*
G37*
G36*
X4289806Y-6260084D02*
G01*
X4289806Y-5939789D01*
X4510277Y-5939789D01*
X4510277Y-6260084D01*
G37*
G36*
X4039870Y-6260084D02*
G01*
X4039870Y-5939789D01*
X4260088Y-5939789D01*
X4260088Y-6260084D01*
G37*
G36*
X3789934Y-6260084D02*
G01*
X3789934Y-5939789D01*
X4010152Y-5939789D01*
X4010152Y-6260084D01*
G37*
G36*
X3539743Y-6260084D02*
G01*
X3539743Y-5939789D01*
X3760215Y-5939789D01*
X3760215Y-6260084D01*
G37*
G36*
X3239770Y-5860034D02*
G01*
X3239770Y-5639815D01*
X3560063Y-5639815D01*
X3560063Y-5860034D01*
G37*
G36*
X3239770Y-5610097D02*
G01*
X3239770Y-5389879D01*
X3560063Y-5389879D01*
X3560063Y-5610097D01*
G37*
G36*
X3239770Y-5360162D02*
G01*
X3239770Y-5139944D01*
X3560063Y-5139944D01*
X3560063Y-5360162D01*
G37*
G36*
X3239770Y-5110226D02*
G01*
X3239770Y-4889754D01*
X3560063Y-4889754D01*
X3560063Y-5110226D01*
G37*
G36*
X3239770Y-4860036D02*
G01*
X3239770Y-4639818D01*
X3560063Y-4639818D01*
X3560063Y-4860036D01*
G37*
G36*
X3239770Y-4610100D02*
G01*
X3239770Y-4389881D01*
X3560063Y-4389881D01*
X3560063Y-4610100D01*
G37*
G36*
X3239770Y-4360163D02*
G01*
X3239770Y-4139945D01*
X3560063Y-4139945D01*
X3560063Y-4360163D01*
G37*
G36*
X3239770Y-4110228D02*
G01*
X3239770Y-3889755D01*
X3560063Y-3889755D01*
X3560063Y-4110228D01*
G37*
G36*
X8839961Y-10960100D02*
G01*
X8839961Y-10639805D01*
X9060179Y-10639805D01*
X9060179Y-10960100D01*
G37*
G36*
X5589777Y-11060176D02*
G01*
X5589777Y-10739881D01*
X5810250Y-10739881D01*
X5810250Y-11060176D01*
G37*
G36*
X11889740Y-9560052D02*
G01*
X11889740Y-9239758D01*
X12110211Y-9239758D01*
X12110211Y-9560052D01*
G37*
G36*
X2039874Y-9760204D02*
G01*
X2039874Y-9439910D01*
X2260091Y-9439910D01*
X2260091Y-9760204D01*
G37*
M02*
