M48
METRIC,LZ,000.000
;FILE_FORMAT=3:3
;TYPE=PLATED
;Layer: Drill PTH
;EasyEDA v6.4.25, 2022-01-13T09:49:16--7:00
;6920eebb592d4fdaba874a7cdc9b1d13,c152627e17c142f38e8cee34c074023c,10
;Gerber Generator version 0.2
;Holesize 1 = 1.199 mm
T01C1.199
%
G05
G90
T01
X111500Y-040000
X111500Y-042500
X111500Y-045000
X111500Y-047500
X111500Y-050000
X111500Y-052500
X111500Y-055000
X111500Y-057500
X109000Y-061500
X106500Y-061500
X104000Y-061500
X101500Y-061500
X099000Y-061500
X096500Y-061500
X094000Y-061500
X091500Y-061500
X088500Y-065000
X088500Y-067500
X088500Y-070000
X088500Y-072500
X088500Y-075000
X088500Y-077500
X088500Y-080000
X088500Y-082500
X056500Y-082500
X056500Y-080000
X056500Y-077500
X056500Y-075000
X056500Y-072500
X056500Y-070000
X056500Y-067500
X056500Y-065000
X054000Y-061000
X051500Y-061000
X049000Y-061000
X046500Y-061000
X044000Y-061000
X041500Y-061000
X039000Y-061000
X036500Y-061000
X034000Y-057500
X034000Y-055000
X034000Y-052500
X034000Y-050000
X034000Y-047500
X034000Y-045000
X034000Y-042500
X034000Y-040000
X089500Y-108000
X057000Y-109000
X120000Y-094000
X021500Y-096000
M30
