G04 Layer: BottomLayer*
G04 EasyEDA v6.4.25, 2022-01-13T09:49:16--7:00*
G04 6920eebb592d4fdaba874a7cdc9b1d13,c152627e17c142f38e8cee34c074023c,10*
G04 Gerber Generator version 0.2*
G04 Scale: 100 percent, Rotated: No, Reflected: No *
G04 Dimensions in millimeters *
G04 leading zeros omitted , absolute positions ,4 integer and 5 decimal *
%FSLAX45Y45*%
%MOMM*%

%ADD10C,0.2540*%
%ADD12R,3.0000X2.0000*%

%LPD*%
D10*
X11150000Y-3999999D02*
G01*
X12000001Y-3999999D01*
X12000001Y-9400001D01*
X8850002Y-8249996D02*
G01*
X8949994Y-8349988D01*
X8949994Y-10800003D01*
X5650001Y-8249998D02*
G01*
X5700001Y-8299998D01*
X5700001Y-10900001D01*
X3399998Y-3999999D02*
G01*
X2250000Y-3999999D01*
X2150000Y-4099999D01*
X2150000Y-9600001D01*
D12*
G01*
X11149990Y-3999992D03*
G01*
X11149990Y-4250004D03*
G01*
X11149990Y-4499990D03*
G01*
X11149990Y-4750003D03*
G01*
X11149990Y-4999989D03*
G01*
X11149990Y-5250002D03*
G01*
X11149990Y-5499988D03*
G01*
X11149990Y-5750001D03*
G36*
X10800001Y-6000000D02*
G01*
X11000000Y-6000000D01*
X11000000Y-6300000D01*
X10800001Y-6300000D01*
G37*
G36*
X10550001Y-6000000D02*
G01*
X10750001Y-6000000D01*
X10750001Y-6300000D01*
X10550001Y-6300000D01*
G37*
G36*
X10300002Y-6000000D02*
G01*
X10500001Y-6000000D01*
X10500001Y-6300000D01*
X10300002Y-6300000D01*
G37*
G36*
X10050002Y-6000000D02*
G01*
X10250002Y-6000000D01*
X10250002Y-6300000D01*
X10050002Y-6300000D01*
G37*
G36*
X9800000Y-6000000D02*
G01*
X10000000Y-6000000D01*
X10000000Y-6300000D01*
X9800000Y-6300000D01*
G37*
G36*
X9550001Y-6000000D02*
G01*
X9750000Y-6000000D01*
X9750000Y-6300000D01*
X9550001Y-6300000D01*
G37*
G36*
X9300001Y-6000000D02*
G01*
X9500001Y-6000000D01*
X9500001Y-6300000D01*
X9300001Y-6300000D01*
G37*
G36*
X9050002Y-6000000D02*
G01*
X9250001Y-6000000D01*
X9250001Y-6300000D01*
X9050002Y-6300000D01*
G37*
G01*
X8849995Y-6500012D03*
G01*
X8849995Y-6749999D03*
G01*
X8849995Y-7000011D03*
G01*
X8849995Y-7249998D03*
G01*
X8849995Y-7500010D03*
G01*
X8849995Y-7749997D03*
G01*
X8849995Y-8000009D03*
G01*
X8849995Y-8249996D03*
G01*
X5650001Y-8249996D03*
G01*
X5650001Y-8000009D03*
G01*
X5650001Y-7749997D03*
G01*
X5650001Y-7500010D03*
G01*
X5650001Y-7249998D03*
G01*
X5650001Y-7000011D03*
G01*
X5650001Y-6749999D03*
G01*
X5650001Y-6500012D03*
G36*
X5299999Y-5950000D02*
G01*
X5499999Y-5950000D01*
X5499999Y-6250000D01*
X5299999Y-6250000D01*
G37*
G36*
X5050000Y-5950000D02*
G01*
X5249999Y-5950000D01*
X5249999Y-6250000D01*
X5050000Y-6250000D01*
G37*
G36*
X4800000Y-5950000D02*
G01*
X5000000Y-5950000D01*
X5000000Y-6250000D01*
X4800000Y-6250000D01*
G37*
G36*
X4550001Y-5950000D02*
G01*
X4750000Y-5950000D01*
X4750000Y-6250000D01*
X4550001Y-6250000D01*
G37*
G36*
X4299999Y-5950000D02*
G01*
X4499998Y-5950000D01*
X4499998Y-6250000D01*
X4299999Y-6250000D01*
G37*
G36*
X4049999Y-5950000D02*
G01*
X4249999Y-5950000D01*
X4249999Y-6250000D01*
X4049999Y-6250000D01*
G37*
G36*
X3800000Y-5950000D02*
G01*
X3999999Y-5950000D01*
X3999999Y-6250000D01*
X3800000Y-6250000D01*
G37*
G36*
X3550000Y-5950000D02*
G01*
X3750000Y-5950000D01*
X3750000Y-6250000D01*
X3550000Y-6250000D01*
G37*
G01*
X3399993Y-5750001D03*
G01*
X3399993Y-5499988D03*
G01*
X3399993Y-5250002D03*
G01*
X3399993Y-4999989D03*
G01*
X3399993Y-4750003D03*
G01*
X3399993Y-4499990D03*
G01*
X3399993Y-4250004D03*
G01*
X3399993Y-3999992D03*
G36*
X8850000Y-10650001D02*
G01*
X9049999Y-10650001D01*
X9049999Y-10950000D01*
X8850000Y-10950000D01*
G37*
G36*
X5600001Y-10750001D02*
G01*
X5800001Y-10750001D01*
X5800001Y-11050000D01*
X5600001Y-11050000D01*
G37*
G36*
X11900001Y-9250001D02*
G01*
X12100001Y-9250001D01*
X12100001Y-9550001D01*
X11900001Y-9550001D01*
G37*
G36*
X2050000Y-9450001D02*
G01*
X2250000Y-9450001D01*
X2250000Y-9750000D01*
X2050000Y-9750000D01*
G37*
M02*
